<svg width="213" height="21" viewBox="0 0 213 21" fill="none" xmlns="http://www.w3.org/2000/svg">
<path d="M47.9406 16L43.4126 4.848H41.7646L37.2286 16H39.6446L40.4286 13.92H44.7486L45.5246 16H47.9406ZM42.5966 8.136L44.0126 11.936H41.1726L42.5966 8.136ZM53.8623 8.928C53.3663 8.336 52.4943 7.944 51.6143 7.944C49.8063 7.944 48.3503 9.448 48.3503 12.048C48.3503 14.408 49.5663 16.168 51.6143 16.168C52.4063 16.168 53.3023 15.888 53.8623 15.216V16H55.9823V4.848H53.8623V8.928ZM52.2703 14.208C51.1743 14.208 50.4783 13.384 50.4783 12.048C50.4783 10.72 51.1743 9.896 52.2703 9.896C53.3663 9.896 54.0543 10.736 54.0543 12.048C54.0543 13.376 53.3663 14.208 52.2703 14.208ZM63.0654 8.928C62.5694 8.336 61.6974 7.944 60.8174 7.944C59.0094 7.944 57.5534 9.448 57.5534 12.048C57.5534 14.408 58.7694 16.168 60.8174 16.168C61.6094 16.168 62.5054 15.888 63.0654 15.216V16H65.1854V4.848H63.0654V8.928ZM61.4734 14.208C60.3774 14.208 59.6814 13.384 59.6814 12.048C59.6814 10.72 60.3774 9.896 61.4734 9.896C62.5694 9.896 63.2574 10.736 63.2574 12.048C63.2574 13.376 62.5694 14.208 61.4734 14.208ZM75.7177 8.112H74.0217V5.184L71.8777 6.344V8.112H70.4777V9.768H71.8777V13.624C71.8777 15.504 73.0377 16.168 74.3417 16.168C74.8217 16.168 75.2697 16.088 75.7177 15.92V14.288C75.4057 14.376 75.1417 14.424 74.9257 14.424C74.2217 14.424 74.0217 13.952 74.0217 13.016V9.768H75.7177V8.112ZM80.6381 16.168C82.9341 16.168 84.6301 14.416 84.6301 12.048C84.6301 9.664 82.9501 7.944 80.6381 7.944C78.3181 7.944 76.6381 9.664 76.6381 12.048C76.6381 14.432 78.3341 16.168 80.6381 16.168ZM80.6381 14.296C79.4621 14.296 78.7741 13.464 78.7741 12.048C78.7741 10.632 79.4461 9.816 80.6381 9.816C81.8221 9.816 82.4941 10.632 82.4941 12.048C82.4941 13.464 81.8221 14.296 80.6381 14.296ZM95.1318 16.264C97.5238 16.264 99.3398 14.984 100.1 12.888L98.0038 12.136C97.5478 13.4 96.5238 14.144 95.1318 14.144C93.2038 14.144 91.9718 12.736 91.9718 10.416C91.9718 8.112 93.2038 6.704 95.1318 6.704C96.5238 6.704 97.5478 7.448 98.0038 8.712L100.1 7.96C99.3398 5.864 97.5238 4.584 95.1318 4.584C91.9318 4.584 89.7478 6.92 89.7478 10.416C89.7478 13.928 91.9318 16.264 95.1318 16.264ZM105.821 7.944C104.933 7.944 104.109 8.184 103.533 8.976V4.848H101.397V16H103.533V12.256C103.533 10.576 104.053 9.8 105.165 9.8C106.125 9.8 106.557 10.368 106.557 11.608V16H108.693V10.816C108.693 9.04 107.629 7.944 105.821 7.944ZM114.738 7.944C113.906 7.944 113.066 8.464 112.658 9.288V8.112H110.506V16H112.642V12.68C112.642 11.776 112.69 11.408 112.802 11.112C113.042 10.384 113.586 10.064 114.218 10.064C114.594 10.064 114.994 10.2 115.226 10.344L116.25 8.416C115.722 8.08 115.258 7.944 114.738 7.944ZM120.513 16.168C122.809 16.168 124.505 14.416 124.505 12.048C124.505 9.664 122.825 7.944 120.513 7.944C118.193 7.944 116.513 9.664 116.513 12.048C116.513 14.432 118.209 16.168 120.513 16.168ZM120.513 14.296C119.337 14.296 118.649 13.464 118.649 12.048C118.649 10.632 119.321 9.816 120.513 9.816C121.697 9.816 122.369 10.632 122.369 12.048C122.369 13.464 121.697 14.296 120.513 14.296ZM134.878 7.944C134.022 7.944 133.174 8.176 132.518 9.016C131.942 8.184 131.062 7.944 130.286 7.944C129.526 7.944 128.71 8.2 128.158 8.944V8.112H126.022V16H128.158V12.064C128.158 10.544 128.646 9.8 129.63 9.8C130.39 9.8 130.838 10.36 130.838 11.48V16H132.958V12.064C132.958 10.528 133.43 9.8 134.366 9.8C135.206 9.8 135.638 10.36 135.638 11.504V16H137.774V10.984C137.774 9.472 136.91 7.944 134.878 7.944ZM146.697 12.032C146.697 9.728 145.457 7.944 143.009 7.944C140.305 7.944 139.201 10.072 139.201 12.096C139.201 14.176 140.329 16.168 143.137 16.168C144.505 16.168 145.577 15.664 146.417 14.728L144.945 13.424C144.441 14.008 143.817 14.24 143.145 14.24C141.993 14.24 141.417 13.64 141.337 12.784H146.649C146.681 12.472 146.697 12.248 146.697 12.032ZM141.305 11.208C141.401 10.496 141.889 9.72 143.049 9.72C143.993 9.72 144.665 10.352 144.673 11.208H141.305Z" fill="white"/>
<path d="M158.717 16V4.848H156.501V16H158.717ZM165.39 8.112H163.694V5.184L161.55 6.344V8.112H160.15V9.768H161.55V13.624C161.55 15.504 162.71 16.168 164.014 16.168C164.494 16.168 164.942 16.088 165.39 15.92V14.288C165.078 14.376 164.814 14.424 164.598 14.424C163.894 14.424 163.694 13.952 163.694 13.016V9.768H165.39V8.112ZM167.739 9.288L169.739 4.848H167.267L166.347 9.288H167.739ZM172.372 16.168C174.332 16.168 175.644 15.08 175.644 13.48C175.644 11.624 173.94 11.2 172.676 10.896C171.684 10.648 171.34 10.496 171.34 10.128C171.34 9.776 171.74 9.52 172.308 9.52C172.972 9.52 173.62 9.856 174.02 10.432L175.332 9.392C174.724 8.464 173.636 7.944 172.364 7.944C170.556 7.944 169.34 8.896 169.34 10.32C169.34 12.008 170.876 12.456 172.084 12.792C172.876 13.016 173.548 13.192 173.548 13.712C173.548 14.12 173.124 14.464 172.388 14.464C171.396 14.464 170.78 13.824 170.412 13.296L168.964 14.56C169.508 15.216 170.564 16.168 172.372 16.168ZM184.076 16V9.768H185.716V8.112H184.076V7.336C184.076 6.816 184.236 6.456 184.708 6.456C184.94 6.456 185.164 6.544 185.372 6.648L186.052 5.024C185.596 4.824 185.14 4.68 184.468 4.68C183.116 4.68 181.956 5.24 181.956 7.32V8.112H180.556V9.768H181.94V16H184.076ZM191.176 7.944C190.344 7.944 189.504 8.464 189.096 9.288V8.112H186.944V16H189.08V12.68C189.08 11.776 189.128 11.408 189.24 11.112C189.48 10.384 190.024 10.064 190.656 10.064C191.032 10.064 191.432 10.2 191.664 10.344L192.688 8.416C192.16 8.08 191.696 7.944 191.176 7.944ZM200.479 12.032C200.479 9.728 199.239 7.944 196.791 7.944C194.087 7.944 192.983 10.072 192.983 12.096C192.983 14.176 194.111 16.168 196.919 16.168C198.287 16.168 199.359 15.664 200.199 14.728L198.727 13.424C198.223 14.008 197.599 14.24 196.927 14.24C195.775 14.24 195.199 13.64 195.119 12.784H200.431C200.463 12.472 200.479 12.248 200.479 12.032ZM195.087 11.208C195.183 10.496 195.671 9.72 196.831 9.72C197.775 9.72 198.447 10.352 198.455 11.208H195.087ZM209.166 12.032C209.166 9.728 207.926 7.944 205.478 7.944C202.774 7.944 201.67 10.072 201.67 12.096C201.67 14.176 202.798 16.168 205.606 16.168C206.974 16.168 208.046 15.664 208.886 14.728L207.414 13.424C206.91 14.008 206.286 14.24 205.614 14.24C204.462 14.24 203.886 13.64 203.806 12.784H209.118C209.15 12.472 209.166 12.248 209.166 12.032ZM203.774 11.208C203.87 10.496 204.358 9.72 205.518 9.72C206.462 9.72 207.134 10.352 207.142 11.208H203.774ZM212.606 12.568L212.854 4.848H210.75L210.982 12.568H212.606ZM212.902 16V13.84H210.686V16H212.902Z" fill="white" fill-opacity="0.7"/>
<path d="M10.4998 13.9863C12.4252 13.9863 13.9861 12.4254 13.9861 10.5C13.9861 8.57455 12.4252 7.01367 10.4998 7.01367C8.57431 7.01367 7.01343 8.57455 7.01343 10.5C7.01343 12.4254 8.57431 13.9863 10.4998 13.9863Z" fill="white"/>
<path d="M5.89197 9.49151C6.35512 7.37367 8.24508 5.7832 10.4999 5.7832H19.8867C19.3887 4.79444 18.7301 3.88098 17.9245 3.07535C15.9413 1.09221 13.3045 0 10.4999 0C7.69522 0 5.05845 1.09221 3.07522 3.07535C2.8845 3.26607 2.70223 3.46295 2.5282 3.66532L5.89197 9.49151Z" fill="white"/>
<path d="M11.9304 14.9947C11.479 15.1387 10.9983 15.2167 10.4998 15.2167C8.74765 15.2167 7.21572 14.2563 6.40238 12.8344C6.39655 12.8254 6.39077 12.8165 6.38536 12.8071L1.72286 4.73145C0.601906 6.42949 -0.000244141 8.41834 -0.000244141 10.4999C-0.000244141 13.3045 1.09196 15.9413 3.07511 17.9245C4.59445 19.4438 6.49757 20.4394 8.5657 20.8224L11.9304 14.9947Z" fill="white"/>
<path d="M13.6735 7.01367C14.621 7.87697 15.2165 9.12023 15.2165 10.5C15.2165 11.3678 14.9807 12.1814 14.5701 12.8807C14.5659 12.8888 14.5623 12.8969 14.5578 12.9048L9.89429 20.9823C10.0951 20.9936 10.2969 21 10.4997 21C13.3044 21 15.9411 19.9078 17.9244 17.9247C19.9075 15.9414 20.9997 13.3046 20.9997 10.5C20.9997 9.2939 20.7972 8.11904 20.4093 7.01367H13.6735Z" fill="white"/>
</svg>
