<svg width="21" height="21" viewBox="0 0 21 21" fill="none" xmlns="http://www.w3.org/2000/svg">
<path d="M10.5 13.9863C12.4254 13.9863 13.9863 12.4254 13.9863 10.5C13.9863 8.57455 12.4254 7.01367 10.5 7.01367C8.57455 7.01367 7.01367 8.57455 7.01367 10.5C7.01367 12.4254 8.57455 13.9863 10.5 13.9863Z" fill="white"/>
<path d="M5.89209 9.49151C6.35524 7.37367 8.2452 5.7832 10.5 5.7832H19.8869C19.3888 4.79444 18.7302 3.88098 17.9246 3.07535C15.9414 1.09221 13.3046 0 10.5 0C7.69535 0 5.05857 1.09221 3.07535 3.07535C2.88462 3.26607 2.70235 3.46295 2.52832 3.66532L5.89209 9.49151Z" fill="white"/>
<path d="M11.9306 14.9948C11.4792 15.1388 10.9985 15.2168 10.5 15.2168C8.74789 15.2168 7.21596 14.2565 6.40262 12.8345C6.3968 12.8255 6.39101 12.8166 6.3856 12.8073L1.72311 4.73157C0.60215 6.42961 0 8.41846 0 10.5C0 13.3047 1.09221 15.9414 3.07535 17.9246C4.59469 19.4439 6.49782 20.4396 8.56595 20.8226L11.9306 14.9948Z" fill="white"/>
<path d="M13.6737 7.01367C14.6212 7.87697 15.2168 9.12023 15.2168 10.5C15.2168 11.3678 14.9809 12.1814 14.5704 12.8807C14.5662 12.8888 14.5626 12.8969 14.558 12.9048L9.89453 20.9823C10.0954 20.9936 10.2972 21 10.5 21C13.3046 21 15.9414 19.9078 17.9246 17.9246C19.9078 15.9414 21 13.3046 21 10.5C21 9.29389 20.7974 8.11904 20.4095 7.01367H13.6737Z" fill="white"/>
</svg>
