<svg width="21" height="21" viewBox="0 0 21 21" fill="none" xmlns="http://www.w3.org/2000/svg">
<path fill-rule="evenodd" clip-rule="evenodd" d="M16.9419 0H4.05852C1.82064 0 0 1.82021 0 4.05809V8.34493V16.9419C0 19.1798 1.82064 21 4.05852 21H16.9423C19.1802 21 21.0004 19.1798 21.0004 16.9419V8.34451V4.05767C21 1.81979 19.1798 0 16.9419 0ZM18.106 2.42003L18.5702 2.41834V2.88048V5.97785L15.0226 5.98929L15.0103 2.4302L18.106 2.42003ZM7.50281 8.34451C8.17549 7.41386 9.26669 6.80345 10.5002 6.80345C11.7337 6.80345 12.8249 7.41386 13.4968 8.34451C13.9343 8.95195 14.1965 9.69495 14.1965 10.4998C14.1965 12.5377 12.5369 14.1957 10.4998 14.1957C8.46142 14.1957 6.80345 12.5377 6.80345 10.4998C6.80387 9.69495 7.06523 8.95195 7.50281 8.34451ZM18.954 16.9415C18.954 18.0517 18.0513 18.9536 16.9419 18.9536H4.05852C2.94868 18.9536 2.04599 18.0517 2.04599 16.9415V8.34451H5.18063C4.90995 9.01041 4.75788 9.73773 4.75788 10.4998C4.75788 13.6654 7.33337 16.2425 10.5002 16.2425C13.6666 16.2425 16.2421 13.6654 16.2421 10.4998C16.2421 9.73773 16.0892 9.01041 15.8185 8.34451H18.954V16.9415Z" fill="#112378"/>
</svg>
