<svg fill="none" xmlns="http://www.w3.org/2000/svg" viewBox="0.15 0.87 115.38 30.55">
<path d="M15.8438 25H0.15625V2.59375H4.64062V20.5156H15.8438V25ZM50.2969 11.5938L47.1719 14.7344C47.0156 14.2969 46.8021 13.9062 46.5312 13.5625C46.2604 13.2083 45.9531 12.9115 45.6094 12.6719C45.276 12.4323 44.9115 12.25 44.5156 12.125C44.1198 12 43.7135 11.9375 43.2969 11.9375C42.7135 11.9375 42.1615 12.0573 41.6406 12.2969C41.1302 12.5365 40.6823 12.875 40.2969 13.3125C39.9219 13.7396 39.625 14.25 39.4062 14.8438C39.1875 15.4375 39.0781 16.0938 39.0781 16.8125C39.0781 17.3958 39.1875 17.9427 39.4062 18.4531C39.625 18.9635 39.9219 19.4115 40.2969 19.7969C40.6823 20.1823 41.1302 20.4844 41.6406 20.7031C42.1615 20.9219 42.7135 21.0312 43.2969 21.0312C43.7135 21.0312 44.1146 20.974 44.5 20.8594C44.8854 20.7448 45.2448 20.5833 45.5781 20.375C45.9219 20.1562 46.224 19.8958 46.4844 19.5938C46.7552 19.2812 46.974 18.9375 47.1406 18.5625L50.2656 21.7031C49.8698 22.2656 49.4115 22.7708 48.8906 23.2188C48.3802 23.6667 47.8229 24.0469 47.2188 24.3594C46.625 24.6719 45.9948 24.9062 45.3281 25.0625C44.6719 25.2292 43.9948 25.3125 43.2969 25.3125C42.1198 25.3125 41.0104 25.0938 39.9688 24.6562C38.9375 24.2083 38.0312 23.599 37.25 22.8281C36.4792 22.0573 35.8698 21.1562 35.4219 20.125C34.974 19.0938 34.75 17.9896 34.75 16.8125C34.75 15.5312 34.974 14.3333 35.4219 13.2188C35.8698 12.1042 36.4792 11.1354 37.25 10.3125C38.0312 9.47917 38.9375 8.82292 39.9688 8.34375C41.0104 7.86458 42.1198 7.625 43.2969 7.625C43.9948 7.625 44.6771 7.71354 45.3438 7.89062C46.0208 8.06771 46.6615 8.32812 47.2656 8.67188C47.8802 9.00521 48.4427 9.41667 48.9531 9.90625C49.474 10.3958 49.9219 10.9583 50.2969 11.5938ZM68.3438 25H67.3125L65.6562 22.7031C65.25 23.0677 64.8177 23.4115 64.3594 23.7344C63.9115 24.0469 63.4375 24.3229 62.9375 24.5625C62.4375 24.7917 61.9219 24.974 61.3906 25.1094C60.8698 25.2448 60.3385 25.3125 59.7969 25.3125C58.6198 25.3125 57.5104 25.1146 56.4688 24.7188C55.4375 24.3229 54.5312 23.75 53.75 23C52.9792 22.2396 52.3698 21.3125 51.9219 20.2188C51.474 19.125 51.25 17.8802 51.25 16.4844C51.25 15.1823 51.474 13.9896 51.9219 12.9062C52.3698 11.8125 52.9792 10.875 53.75 10.0938C54.5312 9.3125 55.4375 8.70833 56.4688 8.28125C57.5104 7.84375 58.6198 7.625 59.7969 7.625C60.3385 7.625 60.875 7.69271 61.4062 7.82812C61.9375 7.96354 62.4531 8.15104 62.9531 8.39062C63.4531 8.63021 63.9271 8.91146 64.375 9.23438C64.8333 9.55729 65.2604 9.90625 65.6562 10.2812L67.3125 8.29688H68.3438V25ZM64.0469 16.4844C64.0469 15.901 63.9323 15.3385 63.7031 14.7969C63.4844 14.2448 63.1823 13.7604 62.7969 13.3438C62.4115 12.9167 61.9583 12.5781 61.4375 12.3281C60.9271 12.0677 60.3802 11.9375 59.7969 11.9375C59.2135 11.9375 58.6615 12.0365 58.1406 12.2344C57.6302 12.4323 57.1823 12.724 56.7969 13.1094C56.4219 13.4948 56.125 13.974 55.9062 14.5469C55.6875 15.1094 55.5781 15.7552 55.5781 16.4844C55.5781 17.2135 55.6875 17.8646 55.9062 18.4375C56.125 19 56.4219 19.474 56.7969 19.8594C57.1823 20.2448 57.6302 20.5365 58.1406 20.7344C58.6615 20.9323 59.2135 21.0312 59.7969 21.0312C60.3802 21.0312 60.9271 20.9062 61.4375 20.6562C61.9583 20.3958 62.4115 20.0573 62.7969 19.6406C63.1823 19.2135 63.4844 18.7292 63.7031 18.1875C63.9323 17.6354 64.0469 17.0677 64.0469 16.4844ZM75.9062 25H71.6094V1.60938H75.9062V25ZM84.2031 3.71875C84.2031 4.11458 84.125 4.48438 83.9688 4.82812C83.8229 5.17188 83.6198 5.47396 83.3594 5.73438C83.099 5.98438 82.7917 6.1875 82.4375 6.34375C82.0938 6.48958 81.724 6.5625 81.3281 6.5625C80.9323 6.5625 80.5573 6.48958 80.2031 6.34375C79.8594 6.1875 79.5573 5.98438 79.2969 5.73438C79.0469 5.47396 78.8438 5.17188 78.6875 4.82812C78.5417 4.48438 78.4688 4.11458 78.4688 3.71875C78.4688 3.33333 78.5417 2.96875 78.6875 2.625C78.8438 2.27083 79.0469 1.96875 79.2969 1.71875C79.5573 1.45833 79.8594 1.25521 80.2031 1.10938C80.5573 0.953125 80.9323 0.875 81.3281 0.875C81.724 0.875 82.0938 0.953125 82.4375 1.10938C82.7917 1.25521 83.099 1.45833 83.3594 1.71875C83.6198 1.96875 83.8229 2.27083 83.9688 2.625C84.125 2.96875 84.2031 3.33333 84.2031 3.71875ZM83.4688 25H79.1719V8.26562H83.4688V25ZM95.125 25C94.0938 25 93.125 24.8073 92.2188 24.4219C91.3125 24.026 90.5156 23.4896 89.8281 22.8125C89.151 22.125 88.6146 21.3281 88.2188 20.4219C87.8333 19.5156 87.6406 18.5469 87.6406 17.5156V12.5469H85.5625V8.29688H87.6406V1.60938H91.8906V8.29688H98.3594V12.5469H91.8906V17.5156C91.8906 17.9635 91.974 18.3854 92.1406 18.7812C92.3073 19.1667 92.5365 19.5052 92.8281 19.7969C93.1198 20.0885 93.4635 20.3229 93.8594 20.5C94.2552 20.6667 94.6771 20.75 95.125 20.75H98.3594V25H95.125ZM104.797 31.375V27.0781L107.172 27.1094C107.589 27.1094 107.99 27.0417 108.375 26.9062C108.76 26.7708 109.115 26.5833 109.438 26.3438C109.771 26.1042 110.062 25.8177 110.312 25.4844C110.562 25.1615 110.766 24.8073 110.922 24.4219C110.453 24.6198 109.974 24.8177 109.484 25.0156C109.005 25.2135 108.521 25.3125 108.031 25.3125C107 25.3125 106.031 25.1302 105.125 24.7656C104.219 24.401 103.422 23.8854 102.734 23.2188C102.057 22.5417 101.521 21.724 101.125 20.7656C100.74 19.7969 100.547 18.7135 100.547 17.5156V8.26562H104.797V17.5156C104.797 18.1094 104.88 18.6302 105.047 19.0781C105.224 19.5156 105.458 19.8854 105.75 20.1875C106.042 20.4792 106.38 20.6979 106.766 20.8438C107.161 20.9896 107.583 21.0625 108.031 21.0625C108.469 21.0625 108.88 20.9635 109.266 20.7656C109.661 20.5573 110.005 20.2865 110.297 19.9531C110.589 19.6198 110.818 19.2448 110.984 18.8281C111.151 18.401 111.234 17.9635 111.234 17.5156V8.26562H115.531V22.8906C115.521 24.0677 115.292 25.1719 114.844 26.2031C114.396 27.2344 113.781 28.1354 113 28.9062C112.229 29.6771 111.328 30.2865 110.297 30.7344C109.266 31.1823 108.161 31.4062 106.984 31.4062L104.797 31.375Z" fill="#112378"/>
<path d="M33.2933 15.9706V16.3532C33.1032 18.3172 32.2873 20.1683 30.9658 21.6335C30.8688 21.7413 30.7611 21.8491 30.6425 21.9676L25.4218 27.1887C25.3244 27.2887 25.208 27.3682 25.0793 27.4225C24.9507 27.4768 24.8125 27.5048 24.6729 27.5048C24.5333 27.5048 24.3951 27.4768 24.2665 27.4225C24.1378 27.3682 24.0214 27.2887 23.924 27.1887L18.5362 21.8006C17.9362 21.2014 17.4279 20.5169 17.0277 19.7693C16.8473 19.4396 16.6907 19.0975 16.5589 18.7455C15.97 17.1836 15.8433 15.4852 16.1939 13.8532C16.5446 12.2212 17.3577 10.7247 18.5362 9.54265C18.948 9.13344 19.3972 8.76364 19.8778 8.43808C20.1157 8.27466 20.3641 8.12706 20.6213 7.99626C20.9934 7.8008 21.3786 7.63157 21.7743 7.48978C22.1717 7.34631 22.5809 7.23812 22.9973 7.16649C23.6923 7.02828 24.4016 6.97581 25.1093 7.01024C25.2763 7.01024 25.4326 7.01024 25.5996 7.05873C25.7666 7.10722 25.9121 7.09645 26.0683 7.118C26.2246 7.13955 26.3808 7.17727 26.5371 7.21499C26.6933 7.2527 26.8495 7.28503 27.0058 7.32275C27.3021 7.41973 27.6038 7.51672 27.9055 7.63526C28.0618 7.69453 28.2019 7.75379 28.3473 7.82384C28.4928 7.89389 28.6006 7.95854 28.7191 8.01781C29.0549 8.18598 29.3757 8.38246 29.6781 8.60512C29.802 8.68594 29.9098 8.77215 30.0176 8.85836C30.5507 9.28105 31.0334 9.76378 31.4561 10.297C31.4787 10.3197 31.4986 10.345 31.5153 10.3724C31.6562 10.5397 31.7807 10.7202 31.8871 10.9112C31.9679 11.0244 32.0541 11.1591 32.1242 11.2776C32.3155 11.5896 32.483 11.9156 32.6252 12.2529C32.7687 12.5855 32.8893 12.9275 32.9862 13.2766C33.0626 13.5423 33.1237 13.8121 33.1694 14.0848C33.2194 14.3627 33.2518 14.6434 33.2664 14.9254C33.2939 15.2731 33.3029 15.622 33.2933 15.9706Z" fill="url(#paint0_linear)"/>
<path d="M18.0944 19.2574H20.0555C20.2201 19.2573 20.3831 19.2901 20.5349 19.3539C20.6866 19.4178 20.8241 19.5114 20.9391 19.6292L22.2537 20.9762C22.3687 21.095 22.5065 21.1894 22.6587 21.2539C22.811 21.3184 22.9746 21.3517 23.14 21.3517C23.3053 21.3517 23.469 21.3184 23.6213 21.2539C23.7735 21.1894 23.9112 21.095 24.0263 20.9762L27.2589 17.6894C27.4945 17.4514 27.6266 17.13 27.6266 16.795C27.6266 16.4601 27.4945 16.1387 27.2589 15.9006L25.5456 14.1602C25.4307 14.0423 25.2933 13.9485 25.1415 13.8845C24.9898 13.8205 24.8267 13.7875 24.662 13.7875C24.4973 13.7875 24.3343 13.8205 24.1825 13.8845C24.0308 13.9485 23.8934 14.0423 23.7784 14.1602L22.8733 15.1032C22.7587 15.2218 22.6215 15.3161 22.4696 15.3806C22.3178 15.445 22.1546 15.4782 21.9897 15.4782C21.8248 15.4782 21.6616 15.445 21.5098 15.3806C21.358 15.3161 21.2207 15.2218 21.1061 15.1032C20.988 14.9855 20.8943 14.8457 20.8304 14.6918C20.7664 14.5378 20.7335 14.3727 20.7335 14.206C20.7335 14.0393 20.7664 13.8743 20.8304 13.7203C20.8943 13.5664 20.988 13.4266 21.1061 13.3089L24.0263 10.3509C24.1414 10.2317 24.2796 10.1372 24.4324 10.0733C24.5853 10.0094 24.7496 9.9773 24.9153 9.97907H25.9605C26.1251 9.97895 26.2881 10.0118 26.4399 10.0756C26.5916 10.1395 26.729 10.2331 26.8441 10.3509L28.8699 12.3983C28.9817 12.5173 29.117 12.6118 29.2673 12.6758C29.4175 12.7398 29.5794 12.7719 29.7427 12.7701H32.0999" stroke="white" stroke-miterlimit="10" stroke-linecap="round"/>
<rect x="31.2598" y="11.2021" width="2.52133" height="3.36178" fill="white"/>
<rect x="16.1312" y="17.5054" width="2.52133" height="3.36178" fill="white"/>
<defs>
<linearGradient id="paint0_linear" x1="16" y1="17.0038" x2="33.5067" y2="21.3805" gradientUnits="userSpaceOnUse">
<stop stop-color="#FC5774"/>
<stop offset="1" stop-color="#AB1BFF"/>
</linearGradient>
</defs>
</svg>