<svg viewBox="0 0 705 551" fill="none" xmlns="http://www.w3.org/2000/svg">
<g filter="url(#filter0_bd)">
<rect x="49" y="49" width="604.75" height="391.724" rx="21" fill="#F2F2F2"/>
<rect x="49.25" y="49.25" width="604.25" height="391.224" rx="20.75" stroke="white" stroke-opacity="0.25" stroke-width="0.5"/>
</g>
<circle cx="95.4513" cy="84.3361" r="8.07679" fill="#EB5757"/>
<circle cx="119.682" cy="84.3361" r="8.07679" fill="#F2C94C"/>
<circle cx="143.912" cy="84.3361" r="8.07679" fill="#27AE60"/>
<rect x="89.3933" y="109.576" width="491.675" height="26.2496" rx="13.1248" fill="#DBD9D9"/>
<rect x="89.3933" y="150.969" width="258.457" height="26.2496" rx="5" fill="#DBD9D9"/>
<path d="M143.307 158.037C141.718 158.037 140.367 159.068 139.874 160.505C139.381 159.068 138.03 158.037 136.44 158.037C134.433 158.037 132.807 159.68 132.807 161.708C132.807 167.144 139.874 170.968 139.874 170.968C139.874 170.968 146.941 167.144 146.941 161.708C146.941 159.68 145.314 158.037 143.307 158.037Z" fill="#272727"/>
<rect x="89.3933" y="150.969" width="36.3456" height="26.2496" rx="5" fill="#CACACA"/>
<path d="M108.163 168.999L104.105 158.544H102.92L98.8555 168.999H100.528L101.368 166.681H105.65L106.49 168.999H108.163ZM103.52 160.771L105.163 165.316H101.87L103.52 160.771ZM110.732 169.134C111.024 169.134 111.414 169.074 111.827 168.924V167.664C111.609 167.731 111.407 167.769 111.227 167.769C110.852 167.769 110.612 167.566 110.612 167.041V158.544H109.149V167.319C109.149 168.579 109.802 169.134 110.732 169.134ZM114.892 169.134C115.185 169.134 115.575 169.074 115.987 168.924V167.664C115.77 167.731 115.567 167.769 115.387 167.769C115.012 167.769 114.772 167.566 114.772 167.041V158.544H113.31V167.319C113.31 168.579 113.962 169.134 114.892 169.134Z" fill="black"/>
<rect x="106.557" y="117.653" width="285.717" height="10.096" rx="5.048" fill="#ADAAAA"/>
<rect x="89.3933" y="316.544" width="113.075" height="5.048" rx="2.524" fill="#ADAAAA"/>
<rect x="222.661" y="316.544" width="113.075" height="5.048" rx="2.524" fill="#ADAAAA"/>
<rect x="89.3933" y="326.64" width="39.3744" height="5.048" rx="2.524" fill="#ADAAAA"/>
<rect x="89.3933" y="353.899" width="39.3744" height="5.048" rx="2.524" fill="#ADAAAA"/>
<rect x="222.661" y="342.793" width="39.3744" height="5.048" rx="2.524" fill="#ADAAAA"/>
<rect x="152.999" y="158.037" width="12.1152" height="12.1152" fill="#272727"/>
<circle cx="177.229" cy="164.094" r="6.0576" fill="#272727"/>
<rect x="89.3933" y="192.363" width="113.075" height="113.075" rx="1" fill="#CCCCCC"/>
<rect x="222.661" y="192.363" width="113.075" height="113.075" rx="1" fill="#CCCCCC"/>
<path d="M158.194 225.68C152.518 225.68 147.692 229.303 145.931 234.35C144.17 229.303 139.345 225.68 133.668 225.68C126.501 225.68 120.691 231.455 120.691 238.579C120.691 257.677 145.931 271.112 145.931 271.112C145.931 271.112 171.171 257.677 171.171 238.579C171.171 231.455 165.361 225.68 158.194 225.68Z" fill="#636363"/>
<rect x="252.949" y="222.651" width="52.4992" height="52.4992" fill="#636363"/>
<path d="M95.4509 336.735L96.8109 340.921L101.212 340.921L97.6515 343.508L99.0115 347.694L95.4509 345.107L91.8903 347.694L93.2504 343.508L89.6898 340.921L94.0909 340.921L95.4509 336.735Z" fill="#AEAEAE"/>
<path d="M228.718 326.64L230.078 330.825L234.479 330.825L230.919 333.412L232.279 337.598L228.718 335.011L225.158 337.598L226.518 333.412L222.957 330.825L227.358 330.825L228.718 326.64Z" fill="#AEAEAE"/>
<path d="M108.576 336.735L109.936 340.921L114.337 340.921L110.776 343.508L112.136 347.694L108.576 345.107L105.015 347.694L106.375 343.508L102.815 340.921L107.216 340.921L108.576 336.735Z" fill="#AEAEAE"/>
<path d="M241.843 326.64L243.203 330.825L247.604 330.825L244.044 333.412L245.404 337.598L241.843 335.011L238.283 337.598L239.643 333.412L236.082 330.825L240.483 330.825L241.843 326.64Z" fill="#AEAEAE"/>
<path d="M121.701 336.735L123.061 340.921L127.462 340.921L123.901 343.508L125.261 347.694L121.701 345.107L118.14 347.694L119.5 343.508L115.94 340.921L120.341 340.921L121.701 336.735Z" fill="#AEAEAE"/>
<path d="M254.968 326.64L256.328 330.825L260.729 330.825L257.169 333.412L258.529 337.598L254.968 335.011L251.408 337.598L252.768 333.412L249.207 330.825L253.608 330.825L254.968 326.64Z" fill="#AEAEAE"/>
<path d="M134.825 336.735L136.185 340.921L140.587 340.921L137.026 343.508L138.386 347.694L134.825 345.107L131.265 347.694L132.625 343.508L129.064 340.921L133.465 340.921L134.825 336.735Z" fill="#AEAEAE"/>
<path d="M147.95 336.735L149.31 340.921L153.711 340.921L150.15 343.508L151.51 347.694L147.95 345.107L144.389 347.694L145.749 343.508L142.189 340.921L146.59 340.921L147.95 336.735Z" fill="#AEAEAE"/>
<path d="M607.146 121.866V122.175C606.992 123.761 606.333 125.255 605.267 126.438C605.188 126.525 605.101 126.612 605.006 126.708L600.79 130.923C600.712 131.004 600.618 131.068 600.514 131.112C600.41 131.156 600.299 131.178 600.186 131.178C600.073 131.178 599.962 131.156 599.858 131.112C599.754 131.068 599.66 131.004 599.581 130.923L595.231 126.573C594.747 126.089 594.336 125.537 594.013 124.933C593.868 124.667 593.741 124.391 593.635 124.107C593.159 122.846 593.057 121.474 593.34 120.157C593.623 118.839 594.28 117.631 595.231 116.676C595.564 116.346 595.926 116.047 596.314 115.785C596.506 115.653 596.707 115.533 596.915 115.428C597.215 115.27 597.526 115.133 597.846 115.019C598.166 114.903 598.497 114.816 598.833 114.758C599.394 114.646 599.967 114.604 600.538 114.632C600.673 114.632 600.799 114.632 600.934 114.671C601.069 114.71 601.186 114.701 601.312 114.719C601.439 114.736 601.565 114.767 601.691 114.797C601.817 114.828 601.943 114.854 602.069 114.884C602.309 114.962 602.552 115.041 602.796 115.136C602.922 115.184 603.035 115.232 603.152 115.289C603.27 115.345 603.357 115.397 603.453 115.445C603.724 115.581 603.983 115.74 604.227 115.919C604.327 115.985 604.414 116.054 604.501 116.124C604.931 116.465 605.321 116.855 605.662 117.285C605.681 117.304 605.697 117.324 605.71 117.346C605.824 117.481 605.924 117.627 606.01 117.781C606.076 117.873 606.145 117.981 606.202 118.077C606.356 118.329 606.492 118.592 606.606 118.865C606.722 119.133 606.819 119.409 606.898 119.691C606.959 119.906 607.009 120.123 607.046 120.344C607.086 120.568 607.112 120.795 607.124 121.022C607.146 121.303 607.153 121.585 607.146 121.866Z" fill="#112378"/>
<path d="M594.874 124.52H596.457C596.59 124.52 596.722 124.546 596.844 124.598C596.967 124.649 597.078 124.725 597.171 124.82L598.232 125.908C598.325 126.004 598.436 126.08 598.559 126.132C598.682 126.184 598.814 126.211 598.948 126.211C599.081 126.211 599.213 126.184 599.336 126.132C599.459 126.08 599.57 126.004 599.663 125.908L602.273 123.254C602.463 123.062 602.57 122.802 602.57 122.532C602.57 122.261 602.463 122.002 602.273 121.81L600.89 120.405C600.797 120.309 600.686 120.234 600.564 120.182C600.441 120.13 600.31 120.104 600.177 120.104C600.044 120.104 599.912 120.13 599.789 120.182C599.667 120.234 599.556 120.309 599.463 120.405L598.732 121.166C598.64 121.262 598.529 121.338 598.407 121.39C598.284 121.442 598.152 121.469 598.019 121.469C597.886 121.469 597.754 121.442 597.632 121.39C597.509 121.338 597.398 121.262 597.306 121.166C597.21 121.071 597.135 120.958 597.083 120.834C597.031 120.709 597.005 120.576 597.005 120.442C597.005 120.307 597.031 120.174 597.083 120.049C597.135 119.925 597.21 119.812 597.306 119.717L599.663 117.329C599.756 117.233 599.868 117.157 599.991 117.105C600.115 117.053 600.247 117.027 600.381 117.029H601.225C601.358 117.029 601.489 117.055 601.612 117.107C601.734 117.158 601.845 117.234 601.938 117.329L603.574 118.982C603.664 119.078 603.773 119.154 603.895 119.206C604.016 119.258 604.147 119.284 604.279 119.282H606.182" stroke="white" stroke-miterlimit="10" stroke-linecap="round"/>
<g filter="url(#filter1_d)">
<rect x="262" y="145" width="356.437" height="354.551" rx="21" fill="white"/>
<rect x="262.25" y="145.25" width="355.937" height="354.051" rx="20.75" stroke="white" stroke-opacity="0.25" stroke-width="0.5"/>
</g>
<rect x="301.604" y="231.752" width="120.698" height="7.54365" rx="3.77182" fill="#D7DAE7"/>
<rect x="301.604" y="352.45" width="45.2619" height="7.54365" rx="3.77182" fill="#D7DAE7"/>
<rect x="394.957" y="352.45" width="45.2619" height="7.54365" rx="3.77182" fill="#D7DAE7"/>
<rect x="490.195" y="352.45" width="45.2619" height="7.54365" rx="3.77182" fill="#D7DAE7"/>
<rect x="301.604" y="367.538" width="52.8055" height="7.54365" rx="3.77182" fill="#0B64FE" fill-opacity="0.65"/>
<rect x="394.957" y="367.538" width="52.8055" height="7.54365" rx="3.77182" fill="#0B64FE" fill-opacity="0.65"/>
<rect x="490.195" y="367.538" width="52.8055" height="7.54365" rx="3.77182" fill="#0B64FE" fill-opacity="0.65"/>
<rect x="301.604" y="382.625" width="67.8928" height="7.54365" rx="3.77182" fill="#D7DAE7"/>
<rect x="394.957" y="382.625" width="67.8928" height="7.54365" rx="3.77182" fill="#D7DAE7"/>
<rect x="490.195" y="382.625" width="67.8928" height="7.54365" rx="3.77182" fill="#D7DAE7"/>
<g filter="url(#filter2_bd)">
<rect x="301.875" y="426" width="264.028" height="45.2619" rx="9" fill="white"/>
<rect x="302.125" y="426.25" width="263.528" height="44.7619" rx="8.75" stroke="#B6B6B6" stroke-opacity="0.25" stroke-width="0.5"/>
</g>
<path d="M399.146 452.654C398.658 453.074 398.111 453.396 397.505 453.621C396.9 453.845 396.272 453.958 395.623 453.958C395.125 453.958 394.644 453.892 394.18 453.76C393.721 453.633 393.289 453.452 392.884 453.218C392.483 452.979 392.117 452.693 391.785 452.361C391.453 452.029 391.167 451.663 390.928 451.262C390.694 450.857 390.511 450.425 390.379 449.966C390.252 449.502 390.188 449.021 390.188 448.523C390.188 448.025 390.252 447.544 390.379 447.08C390.511 446.616 390.694 446.184 390.928 445.784C391.167 445.378 391.453 445.01 391.785 444.678C392.117 444.346 392.483 444.062 392.884 443.828C393.289 443.589 393.721 443.406 394.18 443.279C394.644 443.147 395.125 443.081 395.623 443.081C396.272 443.081 396.9 443.193 397.505 443.418C398.111 443.638 398.658 443.96 399.146 444.385L398.033 446.216C397.725 445.884 397.361 445.63 396.941 445.454C396.521 445.273 396.082 445.183 395.623 445.183C395.159 445.183 394.724 445.271 394.319 445.447C393.914 445.623 393.56 445.862 393.257 446.165C392.954 446.462 392.715 446.816 392.539 447.227C392.364 447.632 392.276 448.064 392.276 448.523C392.276 448.982 392.364 449.414 392.539 449.819C392.715 450.22 392.954 450.571 393.257 450.874C393.56 451.177 393.914 451.416 394.319 451.592C394.724 451.768 395.159 451.855 395.623 451.855C396.082 451.855 396.521 451.768 396.941 451.592C397.361 451.411 397.725 451.155 398.033 450.823L399.146 452.654ZM402.156 453.73H400.157V442.766H402.156V446.23C402.395 446.05 402.642 445.923 402.896 445.85C403.15 445.771 403.409 445.732 403.672 445.732C404.156 445.732 404.61 445.825 405.035 446.011C405.459 446.191 405.828 446.443 406.14 446.765C406.458 447.083 406.707 447.456 406.888 447.886C407.073 448.311 407.166 448.765 407.166 449.248V453.73H405.152V449.248H405.166C405.166 449.043 405.127 448.85 405.049 448.669C404.971 448.484 404.864 448.323 404.727 448.186C404.59 448.049 404.432 447.942 404.251 447.864C404.07 447.786 403.877 447.747 403.672 447.747C403.462 447.747 403.265 447.786 403.079 447.864C402.893 447.942 402.732 448.049 402.596 448.186C402.459 448.323 402.351 448.484 402.273 448.669C402.195 448.85 402.156 449.043 402.156 449.248V453.73ZM411.714 451.812C411.792 451.836 411.87 451.853 411.949 451.863C412.027 451.868 412.105 451.87 412.183 451.87C412.378 451.87 412.566 451.843 412.747 451.79C412.928 451.736 413.096 451.66 413.252 451.562C413.413 451.46 413.555 451.338 413.677 451.196C413.804 451.05 413.907 450.889 413.985 450.713L415.45 452.185C415.264 452.449 415.049 452.686 414.805 452.896C414.566 453.105 414.305 453.284 414.021 453.43C413.743 453.577 413.448 453.687 413.135 453.76C412.827 453.838 412.51 453.877 412.183 453.877C411.631 453.877 411.111 453.774 410.623 453.569C410.14 453.364 409.715 453.079 409.348 452.712C408.987 452.346 408.702 451.912 408.492 451.409C408.282 450.901 408.177 450.344 408.177 449.739C408.177 449.119 408.282 448.552 408.492 448.04C408.702 447.527 408.987 447.09 409.348 446.729C409.715 446.367 410.14 446.086 410.623 445.886C411.111 445.686 411.631 445.586 412.183 445.586C412.51 445.586 412.83 445.625 413.142 445.703C413.455 445.781 413.75 445.894 414.029 446.04C414.312 446.187 414.576 446.367 414.82 446.582C415.064 446.792 415.279 447.029 415.464 447.292L411.714 451.812ZM412.74 447.688C412.647 447.654 412.554 447.632 412.461 447.622C412.373 447.612 412.281 447.607 412.183 447.607C411.91 447.607 411.651 447.659 411.407 447.761C411.167 447.859 410.957 448 410.777 448.186C410.601 448.372 410.462 448.596 410.359 448.86C410.257 449.119 410.205 449.412 410.205 449.739C410.205 449.812 410.208 449.895 410.213 449.988C410.223 450.081 410.235 450.176 410.249 450.273C410.269 450.366 410.291 450.457 410.315 450.544C410.34 450.632 410.371 450.71 410.411 450.779L412.74 447.688ZM423.272 447.446L421.807 448.918C421.734 448.713 421.634 448.53 421.507 448.369C421.38 448.203 421.236 448.064 421.075 447.952C420.918 447.839 420.747 447.754 420.562 447.695C420.376 447.637 420.186 447.607 419.991 447.607C419.717 447.607 419.458 447.664 419.214 447.776C418.975 447.888 418.765 448.047 418.584 448.252C418.409 448.452 418.269 448.691 418.167 448.97C418.064 449.248 418.013 449.556 418.013 449.893C418.013 450.166 418.064 450.422 418.167 450.662C418.269 450.901 418.409 451.111 418.584 451.292C418.765 451.472 418.975 451.614 419.214 451.716C419.458 451.819 419.717 451.87 419.991 451.87C420.186 451.87 420.374 451.843 420.555 451.79C420.735 451.736 420.904 451.66 421.06 451.562C421.221 451.46 421.363 451.338 421.485 451.196C421.612 451.05 421.714 450.889 421.792 450.713L423.257 452.185C423.072 452.449 422.857 452.686 422.613 452.896C422.373 453.105 422.112 453.284 421.829 453.43C421.551 453.577 421.255 453.687 420.943 453.76C420.635 453.838 420.318 453.877 419.991 453.877C419.439 453.877 418.919 453.774 418.431 453.569C417.947 453.359 417.522 453.074 417.156 452.712C416.795 452.351 416.509 451.929 416.299 451.445C416.089 450.962 415.984 450.444 415.984 449.893C415.984 449.292 416.089 448.73 416.299 448.208C416.509 447.686 416.795 447.231 417.156 446.846C417.522 446.455 417.947 446.147 418.431 445.923C418.919 445.698 419.439 445.586 419.991 445.586C420.318 445.586 420.638 445.627 420.95 445.71C421.267 445.793 421.568 445.916 421.851 446.077C422.139 446.233 422.403 446.426 422.642 446.655C422.886 446.885 423.096 447.148 423.272 447.446ZM426.267 453.73H424.253V442.766H426.267V449.68L429.248 445.901H431.548L428.948 449.167L431.548 453.73H429.248L427.659 450.881L426.267 452.727V453.73ZM438.858 453.73H436.756V443.228H438.858V453.73ZM444.534 453.73C444.051 453.73 443.597 453.64 443.172 453.459C442.747 453.274 442.373 453.022 442.051 452.705C441.734 452.383 441.482 452.009 441.297 451.584C441.116 451.16 441.026 450.706 441.026 450.222V447.893H440.052V445.901H441.026V442.766H443.018V445.901H446.05V447.893H443.018V450.222C443.018 450.432 443.057 450.63 443.135 450.815C443.213 450.996 443.321 451.155 443.457 451.292C443.594 451.428 443.755 451.538 443.941 451.621C444.126 451.699 444.324 451.738 444.534 451.738H446.05V453.73H444.534ZM461.885 448.523C461.885 449.021 461.819 449.502 461.687 449.966C461.56 450.425 461.38 450.857 461.145 451.262C460.911 451.663 460.628 452.029 460.296 452.361C459.964 452.693 459.598 452.979 459.197 453.218C458.797 453.452 458.365 453.633 457.901 453.76C457.437 453.892 456.956 453.958 456.458 453.958C455.96 453.958 455.479 453.892 455.015 453.76C454.556 453.633 454.124 453.452 453.719 453.218C453.318 452.979 452.952 452.693 452.62 452.361C452.288 452.029 452.002 451.663 451.763 451.262C451.529 450.857 451.346 450.425 451.214 449.966C451.087 449.502 451.023 449.021 451.023 448.523C451.023 448.025 451.087 447.544 451.214 447.08C451.346 446.616 451.529 446.184 451.763 445.784C452.002 445.383 452.288 445.017 452.62 444.685C452.952 444.353 453.318 444.07 453.719 443.835C454.124 443.601 454.556 443.42 455.015 443.293C455.479 443.162 455.96 443.096 456.458 443.096C456.956 443.096 457.437 443.162 457.901 443.293C458.365 443.42 458.797 443.601 459.197 443.835C459.598 444.07 459.964 444.353 460.296 444.685C460.628 445.017 460.911 445.383 461.145 445.784C461.38 446.184 461.56 446.616 461.687 447.08C461.819 447.544 461.885 448.025 461.885 448.523ZM459.798 448.523C459.798 448.064 459.71 447.632 459.534 447.227C459.358 446.816 459.119 446.462 458.816 446.165C458.518 445.862 458.164 445.623 457.754 445.447C457.349 445.271 456.917 445.183 456.458 445.183C455.994 445.183 455.559 445.271 455.154 445.447C454.749 445.623 454.395 445.862 454.092 446.165C453.789 446.462 453.55 446.816 453.374 447.227C453.199 447.632 453.111 448.064 453.111 448.523C453.111 448.982 453.199 449.414 453.374 449.819C453.55 450.22 453.789 450.571 454.092 450.874C454.395 451.177 454.749 451.416 455.154 451.592C455.559 451.768 455.994 451.855 456.458 451.855C456.917 451.855 457.349 451.768 457.754 451.592C458.164 451.416 458.518 451.177 458.816 450.874C459.119 450.571 459.358 450.22 459.534 449.819C459.71 449.414 459.798 448.982 459.798 448.523ZM468.821 452.815C468.66 452.961 468.487 453.101 468.301 453.232C468.12 453.359 467.93 453.472 467.73 453.569C467.53 453.662 467.322 453.735 467.107 453.789C466.897 453.848 466.682 453.877 466.463 453.877C465.979 453.877 465.525 453.792 465.1 453.621C464.676 453.45 464.302 453.208 463.98 452.896C463.662 452.578 463.411 452.195 463.225 451.746C463.045 451.292 462.954 450.784 462.954 450.222V445.886H464.947V450.222C464.947 450.486 464.986 450.723 465.064 450.933C465.147 451.138 465.257 451.311 465.393 451.453C465.53 451.594 465.689 451.702 465.869 451.775C466.055 451.848 466.253 451.885 466.463 451.885C466.668 451.885 466.861 451.838 467.041 451.746C467.227 451.648 467.388 451.521 467.525 451.365C467.661 451.208 467.769 451.033 467.847 450.837C467.925 450.637 467.964 450.432 467.964 450.222V445.886H469.964V453.73H469.48L468.821 452.815ZM475.428 453.73C474.944 453.73 474.49 453.64 474.065 453.459C473.64 453.274 473.267 453.022 472.945 452.705C472.627 452.383 472.376 452.009 472.19 451.584C472.01 451.16 471.919 450.706 471.919 450.222V447.893H470.945V445.901H471.919V442.766H473.911V445.901H476.944V447.893H473.911V450.222C473.911 450.432 473.951 450.63 474.029 450.815C474.107 450.996 474.214 451.155 474.351 451.292C474.488 451.428 474.649 451.538 474.834 451.621C475.02 451.699 475.218 451.738 475.428 451.738H476.944V453.73H475.428Z" fill="#112378"/>
<rect x="302" y="264" width="72" height="72" rx="4" fill="#C4C4C4"/>
<rect x="395" y="264" width="72" height="72" rx="4" fill="#C4C4C4"/>
<rect x="490" y="264" width="72" height="72" rx="4" fill="#C4C4C4"/>
<path d="M397.844 193H382.156V170.594H386.641V188.516H397.844V193ZM432.297 179.594L429.172 182.734C429.016 182.297 428.802 181.906 428.531 181.562C428.26 181.208 427.953 180.911 427.609 180.672C427.276 180.432 426.911 180.25 426.516 180.125C426.12 180 425.714 179.938 425.297 179.938C424.714 179.938 424.161 180.057 423.641 180.297C423.13 180.536 422.682 180.875 422.297 181.312C421.922 181.74 421.625 182.25 421.406 182.844C421.188 183.438 421.078 184.094 421.078 184.812C421.078 185.396 421.188 185.943 421.406 186.453C421.625 186.964 421.922 187.411 422.297 187.797C422.682 188.182 423.13 188.484 423.641 188.703C424.161 188.922 424.714 189.031 425.297 189.031C425.714 189.031 426.115 188.974 426.5 188.859C426.885 188.745 427.245 188.583 427.578 188.375C427.922 188.156 428.224 187.896 428.484 187.594C428.755 187.281 428.974 186.938 429.141 186.562L432.266 189.703C431.87 190.266 431.411 190.771 430.891 191.219C430.38 191.667 429.823 192.047 429.219 192.359C428.625 192.672 427.995 192.906 427.328 193.062C426.672 193.229 425.995 193.312 425.297 193.312C424.12 193.312 423.01 193.094 421.969 192.656C420.938 192.208 420.031 191.599 419.25 190.828C418.479 190.057 417.87 189.156 417.422 188.125C416.974 187.094 416.75 185.99 416.75 184.812C416.75 183.531 416.974 182.333 417.422 181.219C417.87 180.104 418.479 179.135 419.25 178.312C420.031 177.479 420.938 176.823 421.969 176.344C423.01 175.865 424.12 175.625 425.297 175.625C425.995 175.625 426.677 175.714 427.344 175.891C428.021 176.068 428.661 176.328 429.266 176.672C429.88 177.005 430.443 177.417 430.953 177.906C431.474 178.396 431.922 178.958 432.297 179.594ZM450.344 193H449.312L447.656 190.703C447.25 191.068 446.818 191.411 446.359 191.734C445.911 192.047 445.438 192.323 444.938 192.562C444.438 192.792 443.922 192.974 443.391 193.109C442.87 193.245 442.339 193.312 441.797 193.312C440.62 193.312 439.51 193.115 438.469 192.719C437.438 192.323 436.531 191.75 435.75 191C434.979 190.24 434.37 189.312 433.922 188.219C433.474 187.125 433.25 185.88 433.25 184.484C433.25 183.182 433.474 181.99 433.922 180.906C434.37 179.812 434.979 178.875 435.75 178.094C436.531 177.312 437.438 176.708 438.469 176.281C439.51 175.844 440.62 175.625 441.797 175.625C442.339 175.625 442.875 175.693 443.406 175.828C443.938 175.964 444.453 176.151 444.953 176.391C445.453 176.63 445.927 176.911 446.375 177.234C446.833 177.557 447.26 177.906 447.656 178.281L449.312 176.297H450.344V193ZM446.047 184.484C446.047 183.901 445.932 183.339 445.703 182.797C445.484 182.245 445.182 181.76 444.797 181.344C444.411 180.917 443.958 180.578 443.438 180.328C442.927 180.068 442.38 179.938 441.797 179.938C441.214 179.938 440.661 180.036 440.141 180.234C439.63 180.432 439.182 180.724 438.797 181.109C438.422 181.495 438.125 181.974 437.906 182.547C437.688 183.109 437.578 183.755 437.578 184.484C437.578 185.214 437.688 185.865 437.906 186.438C438.125 187 438.422 187.474 438.797 187.859C439.182 188.245 439.63 188.536 440.141 188.734C440.661 188.932 441.214 189.031 441.797 189.031C442.38 189.031 442.927 188.906 443.438 188.656C443.958 188.396 444.411 188.057 444.797 187.641C445.182 187.214 445.484 186.729 445.703 186.188C445.932 185.635 446.047 185.068 446.047 184.484ZM457.906 193H453.609V169.609H457.906V193ZM466.203 171.719C466.203 172.115 466.125 172.484 465.969 172.828C465.823 173.172 465.62 173.474 465.359 173.734C465.099 173.984 464.792 174.188 464.438 174.344C464.094 174.49 463.724 174.562 463.328 174.562C462.932 174.562 462.557 174.49 462.203 174.344C461.859 174.188 461.557 173.984 461.297 173.734C461.047 173.474 460.844 173.172 460.688 172.828C460.542 172.484 460.469 172.115 460.469 171.719C460.469 171.333 460.542 170.969 460.688 170.625C460.844 170.271 461.047 169.969 461.297 169.719C461.557 169.458 461.859 169.255 462.203 169.109C462.557 168.953 462.932 168.875 463.328 168.875C463.724 168.875 464.094 168.953 464.438 169.109C464.792 169.255 465.099 169.458 465.359 169.719C465.62 169.969 465.823 170.271 465.969 170.625C466.125 170.969 466.203 171.333 466.203 171.719ZM465.469 193H461.172V176.266H465.469V193ZM477.125 193C476.094 193 475.125 192.807 474.219 192.422C473.312 192.026 472.516 191.49 471.828 190.812C471.151 190.125 470.615 189.328 470.219 188.422C469.833 187.516 469.641 186.547 469.641 185.516V180.547H467.562V176.297H469.641V169.609H473.891V176.297H480.359V180.547H473.891V185.516C473.891 185.964 473.974 186.385 474.141 186.781C474.307 187.167 474.536 187.505 474.828 187.797C475.12 188.089 475.464 188.323 475.859 188.5C476.255 188.667 476.677 188.75 477.125 188.75H480.359V193H477.125ZM486.797 199.375V195.078L489.172 195.109C489.589 195.109 489.99 195.042 490.375 194.906C490.76 194.771 491.115 194.583 491.438 194.344C491.771 194.104 492.062 193.818 492.312 193.484C492.562 193.161 492.766 192.807 492.922 192.422C492.453 192.62 491.974 192.818 491.484 193.016C491.005 193.214 490.521 193.312 490.031 193.312C489 193.312 488.031 193.13 487.125 192.766C486.219 192.401 485.422 191.885 484.734 191.219C484.057 190.542 483.521 189.724 483.125 188.766C482.74 187.797 482.547 186.714 482.547 185.516V176.266H486.797V185.516C486.797 186.109 486.88 186.63 487.047 187.078C487.224 187.516 487.458 187.885 487.75 188.188C488.042 188.479 488.38 188.698 488.766 188.844C489.161 188.99 489.583 189.062 490.031 189.062C490.469 189.062 490.88 188.964 491.266 188.766C491.661 188.557 492.005 188.286 492.297 187.953C492.589 187.62 492.818 187.245 492.984 186.828C493.151 186.401 493.234 185.964 493.234 185.516V176.266H497.531V190.891C497.521 192.068 497.292 193.172 496.844 194.203C496.396 195.234 495.781 196.135 495 196.906C494.229 197.677 493.328 198.286 492.297 198.734C491.266 199.182 490.161 199.406 488.984 199.406L486.797 199.375Z" fill="#112378"/>
<path d="M415.293 183.971V184.353C415.103 186.317 414.287 188.168 412.966 189.634C412.869 189.741 412.761 189.849 412.643 189.968L407.422 195.189C407.324 195.289 407.208 195.368 407.079 195.423C406.951 195.477 406.813 195.505 406.673 195.505C406.533 195.505 406.395 195.477 406.266 195.423C406.138 195.368 406.021 195.289 405.924 195.189L400.536 189.801C399.936 189.201 399.428 188.517 399.028 187.769C398.847 187.44 398.691 187.097 398.559 186.746C397.97 185.184 397.843 183.485 398.194 181.853C398.545 180.221 399.358 178.725 400.536 177.543C400.948 177.133 401.397 176.764 401.878 176.438C402.116 176.275 402.364 176.127 402.621 175.996C402.993 175.801 403.379 175.632 403.774 175.49C404.172 175.346 404.581 175.238 404.997 175.166C405.692 175.028 406.402 174.976 407.109 175.01C407.276 175.01 407.433 175.01 407.6 175.059C407.767 175.107 407.912 175.096 408.068 175.118C408.225 175.14 408.381 175.177 408.537 175.215C408.693 175.253 408.85 175.285 409.006 175.323C409.302 175.42 409.604 175.517 409.906 175.635C410.062 175.695 410.202 175.754 410.347 175.824C410.493 175.894 410.601 175.959 410.719 176.018C411.055 176.186 411.376 176.382 411.678 176.605C411.802 176.686 411.91 176.772 412.018 176.858C412.551 177.281 413.033 177.764 413.456 178.297C413.479 178.32 413.499 178.345 413.515 178.372C413.656 178.54 413.781 178.72 413.887 178.911C413.968 179.024 414.054 179.159 414.124 179.278C414.316 179.59 414.483 179.916 414.625 180.253C414.769 180.586 414.889 180.928 414.986 181.277C415.063 181.542 415.124 181.812 415.169 182.085C415.219 182.363 415.252 182.643 415.266 182.925C415.294 183.273 415.303 183.622 415.293 183.971Z" fill="#112378"/>
<path d="M400.094 187.257H402.055C402.22 187.257 402.383 187.29 402.535 187.354C402.687 187.418 402.824 187.511 402.939 187.629L404.254 188.976C404.369 189.095 404.506 189.189 404.659 189.254C404.811 189.318 404.975 189.352 405.14 189.352C405.305 189.352 405.469 189.318 405.621 189.254C405.773 189.189 405.911 189.095 406.026 188.976L409.259 185.689C409.494 185.451 409.627 185.13 409.627 184.795C409.627 184.46 409.494 184.139 409.259 183.901L407.545 182.16C407.431 182.042 407.293 181.949 407.141 181.885C406.99 181.821 406.827 181.788 406.662 181.788C406.497 181.788 406.334 181.821 406.182 181.885C406.031 181.949 405.893 182.042 405.778 182.16L404.873 183.103C404.759 183.222 404.621 183.316 404.47 183.381C404.318 183.445 404.154 183.478 403.99 183.478C403.825 183.478 403.661 183.445 403.51 183.381C403.358 183.316 403.221 183.222 403.106 183.103C402.988 182.986 402.894 182.846 402.83 182.692C402.766 182.538 402.733 182.373 402.733 182.206C402.733 182.039 402.766 181.874 402.83 181.72C402.894 181.566 402.988 181.427 403.106 181.309L406.026 178.351C406.141 178.232 406.279 178.137 406.432 178.073C406.585 178.009 406.749 177.977 406.915 177.979H407.96C408.125 177.979 408.288 178.012 408.44 178.076C408.591 178.139 408.729 178.233 408.844 178.351L410.87 180.398C410.982 180.517 411.117 180.612 411.267 180.676C411.417 180.74 411.579 180.772 411.743 180.77H414.1" stroke="white" stroke-miterlimit="10" stroke-linecap="round"/>
<defs>
<filter id="filter0_bd" x="0" y="0" width="704.75" height="491.724" filterUnits="userSpaceOnUse" color-interpolation-filters="sRGB">
<feFlood flood-opacity="0" result="BackgroundImageFix"/>
<feGaussianBlur in="BackgroundImage" stdDeviation="7.5"/>
<feComposite in2="SourceAlpha" operator="in" result="effect1_backgroundBlur"/>
<feColorMatrix in="SourceAlpha" type="matrix" values="0 0 0 0 0 0 0 0 0 0 0 0 0 0 0 0 0 0 127 0"/>
<feOffset dx="1" dy="1"/>
<feGaussianBlur stdDeviation="25"/>
<feColorMatrix type="matrix" values="0 0 0 0 0.133333 0 0 0 0 0.133333 0 0 0 0 0.133333 0 0 0 0.1 0"/>
<feBlend mode="normal" in2="effect1_backgroundBlur" result="effect2_dropShadow"/>
<feBlend mode="normal" in="SourceGraphic" in2="effect2_dropShadow" result="shape"/>
</filter>
<filter id="filter1_d" x="213" y="96" width="456.437" height="454.551" filterUnits="userSpaceOnUse" color-interpolation-filters="sRGB">
<feFlood flood-opacity="0" result="BackgroundImageFix"/>
<feColorMatrix in="SourceAlpha" type="matrix" values="0 0 0 0 0 0 0 0 0 0 0 0 0 0 0 0 0 0 127 0"/>
<feOffset dx="1" dy="1"/>
<feGaussianBlur stdDeviation="25"/>
<feColorMatrix type="matrix" values="0 0 0 0 0.133333 0 0 0 0 0.133333 0 0 0 0 0.133333 0 0 0 0.1 0"/>
<feBlend mode="normal" in2="BackgroundImageFix" result="effect1_dropShadow"/>
<feBlend mode="normal" in="SourceGraphic" in2="effect1_dropShadow" result="shape"/>
</filter>
<filter id="filter2_bd" x="252.875" y="377" width="364.028" height="145.262" filterUnits="userSpaceOnUse" color-interpolation-filters="sRGB">
<feFlood flood-opacity="0" result="BackgroundImageFix"/>
<feGaussianBlur in="BackgroundImage" stdDeviation="7.5"/>
<feComposite in2="SourceAlpha" operator="in" result="effect1_backgroundBlur"/>
<feColorMatrix in="SourceAlpha" type="matrix" values="0 0 0 0 0 0 0 0 0 0 0 0 0 0 0 0 0 0 127 0"/>
<feOffset dx="1" dy="1"/>
<feGaussianBlur stdDeviation="25"/>
<feColorMatrix type="matrix" values="0 0 0 0 0.133333 0 0 0 0 0.133333 0 0 0 0 0.133333 0 0 0 0.1 0"/>
<feBlend mode="normal" in2="effect1_backgroundBlur" result="effect2_dropShadow"/>
<feBlend mode="normal" in="SourceGraphic" in2="effect2_dropShadow" result="shape"/>
</filter>
</defs>
</svg>
