<svg width="40" height="40" viewBox="0 0 40 40" fill="none" xmlns="http://www.w3.org/2000/svg">
<rect x="1" y="1" width="38" height="38" rx="19" fill="#112378" stroke="#112378" stroke-width="2"/>
<path d="M23.6167 13.5264C23.7993 13.7091 23.9747 13.9014 24.1381 14.1009C24.1741 14.1465 24.2102 14.1922 24.2462 14.2379C24.3303 14.3436 24.1381 14.0937 24.2174 14.2018C24.2342 14.2259 24.251 14.2475 24.2702 14.2715C24.3447 14.3725 24.4192 14.4758 24.4889 14.5816C24.7628 14.9902 24.9958 15.4253 25.188 15.8796C25.164 15.8219 25.14 15.7642 25.116 15.7065C25.3875 16.3531 25.5701 17.0309 25.6638 17.7256C25.6542 17.6607 25.6469 17.5982 25.6373 17.5333C25.7262 18.2231 25.7262 18.9202 25.6373 19.61C25.6469 19.5451 25.6542 19.4826 25.6638 19.4177C25.5701 20.1124 25.3875 20.7902 25.116 21.4368C25.14 21.3791 25.164 21.3214 25.188 21.2637C25.0391 21.617 24.8637 21.9583 24.6643 22.2876C24.5634 22.4535 24.4552 22.6169 24.3423 22.7732C24.3159 22.8116 24.2895 22.8477 24.2606 22.8837C24.2462 22.903 24.2318 22.9198 24.2198 22.939C24.1549 23.028 24.2678 22.8765 24.2702 22.8765C24.2006 22.9534 24.1405 23.04 24.0732 23.1193C23.8137 23.4246 23.5326 23.713 23.2323 23.975C23.1626 24.0375 23.0905 24.0976 23.0185 24.1553C22.9824 24.1841 22.9464 24.2129 22.9103 24.2418C22.8719 24.2706 22.8022 24.3163 22.9728 24.1937C22.9488 24.2105 22.9272 24.2298 22.9031 24.2466C22.747 24.3644 22.586 24.4749 22.4226 24.5783C22.055 24.8115 21.6682 25.0134 21.2694 25.184C21.327 25.16 21.3847 25.1359 21.4423 25.1119C20.796 25.3835 20.1185 25.5662 19.4241 25.6599C19.489 25.6503 19.5515 25.6431 19.6163 25.6335C18.9268 25.7224 18.23 25.7224 17.5405 25.6335C17.6053 25.6431 17.6678 25.6503 17.7327 25.6599C17.0383 25.5662 16.3608 25.3835 15.7145 25.1119C15.7721 25.1359 15.8298 25.16 15.8875 25.184C15.5343 25.035 15.1931 24.8595 14.8639 24.66C14.6982 24.5591 14.5348 24.4509 14.3786 24.3379C14.3402 24.3115 14.3041 24.2851 14.2681 24.2562C14.2489 24.2418 14.232 24.2274 14.2128 24.2154C14.1239 24.1505 14.2753 24.2634 14.2753 24.2658C14.1984 24.1961 14.1119 24.136 14.0326 24.0687C13.7275 23.8091 13.4392 23.5279 13.1773 23.2275C13.1148 23.1578 13.0548 23.0856 12.9971 23.0135C12.9683 22.9775 12.9394 22.9414 12.9106 22.9054C12.8818 22.8669 12.8361 22.7972 12.9586 22.9679C12.9418 22.9438 12.9226 22.9222 12.9058 22.8982C12.7881 22.7419 12.6775 22.5809 12.5742 22.4174C12.3412 22.0497 12.1393 21.6627 11.9688 21.2637C11.9928 21.3214 12.0168 21.3791 12.0408 21.4368C11.7693 20.7902 11.5867 20.1124 11.493 19.4177C11.5026 19.4826 11.5099 19.5451 11.5195 19.61C11.4306 18.9202 11.4306 18.2231 11.5195 17.5333C11.5099 17.5982 11.5026 17.6607 11.493 17.7256C11.5867 17.0309 11.7693 16.3531 12.0408 15.7065C12.0168 15.7642 11.9928 15.8219 11.9688 15.8796C12.1177 15.5262 12.2931 15.1849 12.4925 14.8556C12.5934 14.6898 12.7016 14.5263 12.8145 14.3701C12.8409 14.3316 12.8673 14.2956 12.8962 14.2595C12.9106 14.2403 12.925 14.2235 12.937 14.2042C13.0019 14.1153 12.889 14.2667 12.8866 14.2667C12.9562 14.1898 13.0163 14.1033 13.0836 14.024C13.3431 13.7187 13.6242 13.4303 13.9245 13.1683C13.9942 13.1058 14.0663 13.0457 14.1383 12.988C14.1744 12.9592 14.2104 12.9303 14.2465 12.9015C14.2849 12.8726 14.3546 12.827 14.184 12.9495C14.208 12.9327 14.2296 12.9135 14.2537 12.8967C14.4098 12.7789 14.5708 12.6683 14.7342 12.565C15.1018 12.3318 15.4886 12.1299 15.8875 11.9592C15.8298 11.9833 15.7721 12.0073 15.7145 12.0314C16.3608 11.7597 17.0383 11.5771 17.7327 11.4833C17.6678 11.4929 17.6053 11.5002 17.5405 11.5098C18.23 11.4208 18.9268 11.4208 19.6163 11.5098C19.5515 11.5002 19.489 11.4929 19.4241 11.4833C20.1185 11.5771 20.796 11.7597 21.4423 12.0314C21.3847 12.0073 21.327 11.9833 21.2694 11.9592C21.7234 12.1515 22.1583 12.3847 22.5668 12.6587C22.6677 12.726 22.7662 12.7957 22.8623 12.8654C22.8911 12.887 22.9176 12.9063 22.9464 12.9279C23.0401 12.9976 22.8287 12.8366 22.8959 12.8895C22.9464 12.9279 22.9968 12.9688 23.0449 13.0096C23.2419 13.1683 23.4341 13.3437 23.6167 13.5264C23.8834 13.7932 24.3711 13.8148 24.6354 13.5264C24.8997 13.238 24.9214 12.7909 24.6354 12.5073C23.4005 11.2766 21.7883 10.4161 20.0656 10.1277C19.1911 9.98106 18.3189 9.95702 17.4396 10.0748C16.5554 10.1926 15.7169 10.4426 14.9072 10.8175C13.3046 11.5602 11.9399 12.8486 11.0846 14.3917C10.2557 15.882 9.87367 17.6318 10.037 19.3312C10.2124 21.1291 10.9164 22.8068 12.0937 24.1817C13.2301 25.5109 14.8039 26.4748 16.5001 26.893C18.1555 27.3016 19.9455 27.2199 21.5433 26.6166C23.2611 25.9676 24.7291 24.8066 25.7455 23.2755C26.6945 21.8454 27.187 20.1051 27.1462 18.389C27.1077 16.668 26.5503 14.9446 25.5268 13.5553C25.2553 13.1851 24.9622 12.8318 24.6378 12.5049C24.3711 12.2381 23.881 12.2188 23.6191 12.5049C23.3524 12.7933 23.3332 13.2404 23.6167 13.5264Z" fill="white"/>
<path d="M23.6166 24.6357C24.2005 25.2198 24.7867 25.8063 25.3705 26.3903C26.3028 27.3229 27.235 28.2556 28.1672 29.1882C28.381 29.4021 28.5973 29.6184 28.8111 29.8323C29.0778 30.0991 29.5679 30.1184 29.8298 29.8323C30.0941 29.5439 30.1157 29.0968 29.8298 28.8132C29.246 28.2291 28.6597 27.6426 28.0759 27.0586C27.1437 26.1259 26.2115 25.1933 25.2792 24.2607C25.0654 24.0468 24.8492 23.8305 24.6353 23.6166C24.3686 23.3498 23.8785 23.3305 23.6166 23.6166C23.3523 23.9026 23.3331 24.3497 23.6166 24.6357Z" fill="white"/>
</svg>
