<svg width="475" height="313" viewBox="0 0 475 313" fill="none" xmlns="http://www.w3.org/2000/svg">
<path d="M51.96 20.24C55.128 20.24 57.28 17.928 57.28 14.432C57.28 10.92 55.144 8.608 51.96 8.608C48.808 8.608 46.664 10.928 46.664 14.432C46.664 17.912 48.808 20.24 51.96 20.24ZM51.96 18.392C49.904 18.392 48.584 16.888 48.584 14.432C48.584 11.952 49.904 10.448 51.96 10.448C54.04 10.448 55.344 11.976 55.344 14.432C55.344 16.864 54.04 18.392 51.96 18.392ZM63.955 15.92C63.955 17.736 63.347 18.536 62.171 18.536C61.131 18.536 60.635 17.92 60.635 16.544V12.112H58.787V17.224C58.787 19.096 59.843 20.152 61.667 20.152C62.555 20.152 63.379 19.896 63.955 19.136V20H65.803V12.112H63.955V15.92ZM71.7321 11.96C70.8761 11.96 70.1321 12.408 69.7001 13.112V12.112H67.8361V20H69.6921V16.552C69.6921 15.68 69.7401 15.336 69.8201 15.056C70.0761 14.152 70.7321 13.736 71.4361 13.736C71.8041 13.736 72.1961 13.864 72.4361 14L73.3241 12.392C72.8681 12.12 72.2921 11.96 71.7321 11.96ZM82.9301 16.864L79.8501 8.848H77.7301L82.1941 20H83.6421L88.0901 8.848H85.9621L82.9301 16.864ZM90.8499 10.84V8.848H88.9379V10.84H90.8499ZM90.8099 20V12.112H88.9539V20H90.8099ZM95.7318 20.152C97.6358 20.152 98.8998 19.104 98.8998 17.544C98.8998 15.72 97.2358 15.32 95.9557 15.008C94.9398 14.76 94.4918 14.576 94.4918 14.144C94.4918 13.736 94.9558 13.44 95.6118 13.44C96.3238 13.44 96.9158 13.736 97.4038 14.36L98.6838 13.36C98.0038 12.44 96.9398 11.96 95.6838 11.96C93.9398 11.96 92.7638 13.008 92.7638 14.264C92.7638 15.888 94.2198 16.328 95.4438 16.656C96.5158 16.952 97.0838 17.16 97.0838 17.736C97.0838 18.296 96.6598 18.624 95.8598 18.624C94.9878 18.624 94.1638 18.184 93.6358 17.408L92.3717 18.504C93.2198 19.568 94.3878 20.152 95.7318 20.152ZM102.459 10.84V8.848H100.547V10.84H102.459ZM102.419 20V12.112H100.563V20H102.419ZM108.037 20.152C110.309 20.152 111.965 18.416 111.965 16.048C111.965 13.664 110.317 11.96 108.037 11.96C105.741 11.96 104.093 13.664 104.093 16.048C104.093 18.432 105.749 20.152 108.037 20.152ZM108.037 18.528C106.733 18.528 105.941 17.592 105.941 16.048C105.941 14.504 106.725 13.584 108.037 13.584C109.333 13.584 110.117 14.504 110.117 16.048C110.117 17.592 109.333 18.528 108.037 18.528ZM117.761 11.96C116.865 11.96 116.041 12.216 115.473 12.976V12.112H113.617V20H115.473V16.184C115.473 14.376 116.073 13.568 117.257 13.568C118.289 13.568 118.785 14.184 118.785 15.56V20H120.641V14.88C120.641 13.016 119.577 11.96 117.761 11.96Z" fill="#F582AE"/>
<path d="M51.36 57V47.048H55.128V45.848H46.232V47.048H50.008V57H51.36ZM58.4438 57.128C60.6678 57.128 62.2598 55.424 62.2598 53.048C62.2598 50.672 60.6758 48.984 58.4438 48.984C56.2038 48.984 54.6198 50.672 54.6198 53.048C54.6198 55.432 56.2118 57.128 58.4438 57.128ZM58.4438 55.992C56.8998 55.992 55.9078 54.84 55.9078 53.048C55.9078 51.264 56.8918 50.12 58.4438 50.12C59.9878 50.12 60.9718 51.264 60.9718 53.048C60.9718 54.84 59.9878 55.992 58.4438 55.992ZM71.5879 57.128C73.0919 57.128 74.2439 56.376 74.7719 54.928L73.6359 54.48C73.3159 55.416 72.6279 56 71.5879 56C69.9879 56 69.2519 54.592 69.2519 53.048C69.2519 51.52 69.9879 50.112 71.5879 50.112C72.6279 50.112 73.3159 50.696 73.6359 51.632L74.7719 51.184C74.2439 49.736 73.0919 48.984 71.5879 48.984C69.2679 48.984 67.9639 50.832 67.9639 53.048C67.9639 55.28 69.2679 57.128 71.5879 57.128ZM81.5289 53.056C81.5289 55.096 80.7849 56 79.4489 56C78.2409 56 77.6329 55.264 77.6329 53.632V49.112H76.3449V54.096C76.3449 56.104 77.3769 57.128 79.1289 57.128C80.1369 57.128 81.0009 56.768 81.5289 55.824V57H82.8169V49.112H81.5289V53.056ZM86.446 57.128C86.75 57.128 87.142 57.064 87.558 56.92V55.808C87.302 55.896 87.07 55.936 86.87 55.936C86.422 55.936 86.15 55.68 86.15 55.04V45.848H84.87V55.28C84.87 56.568 85.502 57.128 86.446 57.128ZM92.6131 49.112H90.7731V46.248L89.4771 46.976V49.112H87.8211V50.128H89.4771V55.024C89.4771 56.504 90.2851 57.128 91.4051 57.128C91.7971 57.128 92.1971 57.056 92.6131 56.92V55.912C92.2771 56.016 91.9811 56.064 91.7411 56.064C91.0291 56.064 90.7731 55.584 90.7731 54.68V50.128H92.6131V49.112ZM95.5273 47.664V45.848H94.1673V47.664H95.5273ZM95.4873 57V49.112H94.1993V57H95.4873ZM101.344 57L104.56 49.112H103.16L100.792 55.344L98.4483 49.112H97.0323L100.256 57H101.344ZM108.906 48.984C107.602 48.984 106.45 49.432 105.57 50.488L106.506 51.264C107.218 50.416 107.93 50.112 108.818 50.112C110.162 50.112 110.85 50.808 110.85 52.072V52.32H108.41C107.546 52.32 106.778 52.48 106.234 52.872C105.698 53.248 105.378 53.84 105.378 54.656C105.378 56.144 106.49 57.128 108.306 57.128C109.346 57.128 110.266 56.76 110.866 55.704L110.946 57H112.13V52.072C112.13 50.104 110.97 48.984 108.906 48.984ZM108.418 56.088C107.322 56.088 106.666 55.528 106.666 54.672C106.666 54.216 106.842 53.896 107.146 53.672C107.49 53.432 108.002 53.336 108.586 53.336H110.85V53.664C110.85 55.056 109.746 56.088 108.418 56.088ZM118.144 49.112H116.304V46.248L115.008 46.976V49.112H113.352V50.128H115.008V55.024C115.008 56.504 115.816 57.128 116.936 57.128C117.328 57.128 117.728 57.056 118.144 56.92V55.912C117.808 56.016 117.512 56.064 117.272 56.064C116.56 56.064 116.304 55.584 116.304 54.68V50.128H118.144V49.112ZM126.324 52.736C126.324 50.84 125.276 48.984 122.852 48.984C120.484 48.984 119.292 50.912 119.292 53.104C119.292 55.32 120.508 57.128 122.98 57.128C124.284 57.128 125.204 56.712 126.084 55.792L125.18 54.992C124.524 55.704 123.876 55.96 122.988 55.96C121.5 55.96 120.628 55 120.58 53.44H126.284C126.308 53.208 126.324 52.952 126.324 52.736ZM120.572 52.432C120.692 51.112 121.5 50.064 122.876 50.064C124.396 50.064 125.1 51.2 125.1 52.28V52.432H120.572ZM135.546 48.984C134.242 48.984 133.09 49.432 132.21 50.488L133.146 51.264C133.858 50.416 134.57 50.112 135.458 50.112C136.802 50.112 137.49 50.808 137.49 52.072V52.32H135.05C134.186 52.32 133.418 52.48 132.874 52.872C132.338 53.248 132.018 53.84 132.018 54.656C132.018 56.144 133.13 57.128 134.946 57.128C135.986 57.128 136.906 56.76 137.506 55.704L137.586 57H138.77V52.072C138.77 50.104 137.61 48.984 135.546 48.984ZM135.058 56.088C133.962 56.088 133.306 55.528 133.306 54.672C133.306 54.216 133.482 53.896 133.786 53.672C134.13 53.432 134.642 53.336 135.226 53.336H137.49V53.664C137.49 55.056 136.386 56.088 135.058 56.088ZM147.945 57L149.929 50.912L151.913 57H153.105L155.441 49.112H154.065L152.433 55.032L150.497 49.112H149.353L147.409 55.048L145.785 49.112H144.409L146.745 57H147.945ZM160.163 57.128C162.387 57.128 163.979 55.424 163.979 53.048C163.979 50.672 162.395 48.984 160.163 48.984C157.923 48.984 156.339 50.672 156.339 53.048C156.339 55.432 157.931 57.128 160.163 57.128ZM160.163 55.992C158.619 55.992 157.627 54.84 157.627 53.048C157.627 51.264 158.611 50.12 160.163 50.12C161.707 50.12 162.691 51.264 162.691 53.048C162.691 54.84 161.707 55.992 160.163 55.992ZM169.486 48.984C168.55 48.984 167.67 49.512 167.214 50.416V49.112H165.918V57H167.206V53.288C167.206 52.416 167.254 52.064 167.342 51.768C167.646 50.68 168.486 50.224 169.286 50.224C169.638 50.224 170.006 50.328 170.262 50.456L170.886 49.336C170.478 49.112 169.974 48.984 169.486 48.984ZM173.712 57.128C174.016 57.128 174.408 57.064 174.824 56.92V55.808C174.568 55.896 174.336 55.936 174.136 55.936C173.688 55.936 173.416 55.68 173.416 55.04V45.848H172.136V55.28C172.136 56.568 172.768 57.128 173.712 57.128ZM181.632 50.216C181.064 49.44 180.176 48.984 179.048 48.984C177.016 48.984 175.472 50.584 175.472 53.048C175.472 55.376 176.872 57.128 179.048 57.128C180.128 57.128 181.024 56.728 181.632 55.912V57H182.912V45.848H181.632V50.216ZM179.264 55.944C177.792 55.944 176.76 54.752 176.76 53.048C176.76 51.352 177.792 50.168 179.264 50.168C180.728 50.168 181.744 51.352 181.744 53.048C181.744 54.752 180.728 55.944 179.264 55.944ZM192.195 57L194.179 50.912L196.163 57H197.355L199.691 49.112H198.315L196.683 55.032L194.747 49.112H193.603L191.659 55.048L190.035 49.112H188.659L190.995 57H192.195ZM204.996 48.984C203.956 48.984 203.116 49.36 202.596 50.288V45.848H201.308V57H202.596V53.056C202.596 51.088 203.292 50.112 204.676 50.112C205.908 50.112 206.492 50.88 206.492 52.48V57H207.78V52.016C207.78 50.08 206.796 48.984 204.996 48.984ZM216.59 52.736C216.59 50.84 215.542 48.984 213.118 48.984C210.75 48.984 209.558 50.912 209.558 53.104C209.558 55.32 210.774 57.128 213.246 57.128C214.55 57.128 215.47 56.712 216.35 55.792L215.446 54.992C214.79 55.704 214.142 55.96 213.254 55.96C211.766 55.96 210.894 55 210.846 53.44H216.55C216.574 53.208 216.59 52.952 216.59 52.736ZM210.838 52.432C210.958 51.112 211.766 50.064 213.142 50.064C214.662 50.064 215.366 51.2 215.366 52.28V52.432H210.838ZM222.095 48.984C221.159 48.984 220.279 49.512 219.823 50.416V49.112H218.527V57H219.815V53.288C219.815 52.416 219.863 52.064 219.951 51.768C220.255 50.68 221.095 50.224 221.895 50.224C222.247 50.224 222.615 50.328 222.871 50.456L223.495 49.336C223.087 49.112 222.583 48.984 222.095 48.984ZM230.856 52.736C230.856 50.84 229.808 48.984 227.384 48.984C225.016 48.984 223.824 50.912 223.824 53.104C223.824 55.32 225.04 57.128 227.512 57.128C228.816 57.128 229.736 56.712 230.616 55.792L229.712 54.992C229.056 55.704 228.408 55.96 227.52 55.96C226.032 55.96 225.16 55 225.112 53.44H230.816C230.84 53.208 230.856 52.952 230.856 52.736ZM225.104 52.432C225.224 51.112 226.032 50.064 227.408 50.064C228.928 50.064 229.632 51.2 229.632 52.28V52.432H225.104ZM238.462 57.128C238.766 57.128 239.158 57.064 239.574 56.92V55.808C239.318 55.896 239.086 55.936 238.886 55.936C238.438 55.936 238.166 55.68 238.166 55.04V45.848H236.886V55.28C236.886 56.568 237.518 57.128 238.462 57.128ZM244.241 57.128C246.465 57.128 248.057 55.424 248.057 53.048C248.057 50.672 246.473 48.984 244.241 48.984C242.001 48.984 240.417 50.672 240.417 53.048C240.417 55.432 242.009 57.128 244.241 57.128ZM244.241 55.992C242.697 55.992 241.705 54.84 241.705 53.048C241.705 51.264 242.689 50.12 244.241 50.12C245.785 50.12 246.769 51.264 246.769 53.048C246.769 54.84 245.785 55.992 244.241 55.992ZM253.26 57.128C254.764 57.128 255.916 56.376 256.444 54.928L255.308 54.48C254.988 55.416 254.3 56 253.26 56C251.66 56 250.924 54.592 250.924 53.048C250.924 51.52 251.66 50.112 253.26 50.112C254.3 50.112 254.988 50.696 255.308 51.632L256.444 51.184C255.916 49.736 254.764 48.984 253.26 48.984C250.94 48.984 249.636 50.832 249.636 53.048C249.636 55.28 250.94 57.128 253.26 57.128ZM261.328 48.984C260.024 48.984 258.872 49.432 257.992 50.488L258.928 51.264C259.64 50.416 260.352 50.112 261.24 50.112C262.584 50.112 263.272 50.808 263.272 52.072V52.32H260.832C259.968 52.32 259.2 52.48 258.656 52.872C258.12 53.248 257.8 53.84 257.8 54.656C257.8 56.144 258.912 57.128 260.728 57.128C261.768 57.128 262.688 56.76 263.288 55.704L263.368 57H264.552V52.072C264.552 50.104 263.392 48.984 261.328 48.984ZM260.84 56.088C259.744 56.088 259.088 55.528 259.088 54.672C259.088 54.216 259.264 53.896 259.568 53.672C259.912 53.432 260.424 53.336 261.008 53.336H263.272V53.664C263.272 55.056 262.168 56.088 260.84 56.088ZM268.102 57.128C268.406 57.128 268.798 57.064 269.214 56.92V55.808C268.958 55.896 268.726 55.936 268.526 55.936C268.078 55.936 267.806 55.68 267.806 55.04V45.848H266.526V55.28C266.526 56.568 267.158 57.128 268.102 57.128ZM277.85 57.128C279.642 57.128 280.81 56.16 280.81 54.688C280.81 52.928 279.226 52.552 277.922 52.24C276.834 51.976 276.21 51.744 276.21 51.064C276.21 50.464 276.818 50.024 277.682 50.024C278.514 50.024 279.178 50.376 279.674 51.136L280.578 50.448C279.962 49.48 278.938 48.984 277.73 48.984C276.106 48.984 275.002 49.944 275.002 51.144C275.002 52.656 276.322 53.064 277.562 53.384C278.722 53.688 279.546 53.928 279.546 54.816C279.546 55.6 278.946 56.056 277.938 56.056C276.874 56.056 275.962 55.52 275.482 54.632L274.594 55.384C275.298 56.488 276.458 57.128 277.85 57.128ZM286.403 48.984C285.363 48.984 284.523 49.36 284.003 50.288V45.848H282.715V57H284.003V53.056C284.003 51.088 284.699 50.112 286.082 50.112C287.315 50.112 287.899 50.88 287.899 52.48V57H289.187V52.016C289.187 50.08 288.203 48.984 286.403 48.984ZM294.756 57.128C296.98 57.128 298.572 55.424 298.572 53.048C298.572 50.672 296.988 48.984 294.756 48.984C292.516 48.984 290.932 50.672 290.932 53.048C290.932 55.432 292.524 57.128 294.756 57.128ZM294.756 55.992C293.212 55.992 292.22 54.84 292.22 53.048C292.22 51.264 293.204 50.12 294.756 50.12C296.3 50.12 297.284 51.264 297.284 53.048C297.284 54.84 296.3 55.992 294.756 55.992ZM304.383 48.984C303.303 48.984 302.407 49.384 301.799 50.2V49.112H300.519V60.264H301.799V55.896C302.367 56.672 303.255 57.128 304.383 57.128C306.415 57.128 307.959 55.528 307.959 53.064C307.959 50.736 306.559 48.984 304.383 48.984ZM304.167 55.944C302.703 55.944 301.687 54.76 301.687 53.064C301.687 51.36 302.703 50.168 304.167 50.168C305.639 50.168 306.671 51.36 306.671 53.064C306.671 54.76 305.639 55.944 304.167 55.944ZM313.79 48.984C312.71 48.984 311.814 49.384 311.206 50.2V49.112H309.926V60.264H311.206V55.896C311.774 56.672 312.662 57.128 313.79 57.128C315.822 57.128 317.366 55.528 317.366 53.064C317.366 50.736 315.966 48.984 313.79 48.984ZM313.574 55.944C312.11 55.944 311.094 54.76 311.094 53.064C311.094 51.36 312.11 50.168 313.574 50.168C315.046 50.168 316.078 51.36 316.078 53.064C316.078 54.76 315.046 55.944 313.574 55.944ZM320.668 47.664V45.848H319.308V47.664H320.668ZM320.628 57V49.112H319.34V57H320.628ZM326.637 48.984C325.629 48.984 324.765 49.36 324.237 50.296V49.112H322.949V57H324.237V53.056C324.237 51.016 324.981 50.112 326.317 50.112C327.525 50.112 328.133 50.848 328.133 52.48V57H329.421V52.016C329.421 50.008 328.389 48.984 326.637 48.984ZM334.256 55.992C333.112 55.832 332.392 55.664 332.392 54.936C332.392 54.632 332.544 54.392 332.832 54.176C333.28 54.392 333.808 54.512 334.4 54.512C336.168 54.512 337.384 53.44 337.384 51.824C337.384 51.296 337.256 50.832 337.032 50.432L338.256 49.376L337.584 48.552L336.328 49.616C335.8 49.208 335.112 48.984 334.368 48.984C332.68 48.984 331.336 50.112 331.336 51.776C331.336 52.48 331.576 53.096 332 53.56C331.488 53.944 331.208 54.416 331.208 55.072C331.208 55.832 331.592 56.32 332.296 56.64L330.984 57.6C330.952 57.744 330.944 57.912 330.944 58.048C330.944 59.528 332.328 60.4 334.616 60.4C336.688 60.4 337.952 59.616 337.952 58.152C337.952 56.496 336.248 56.272 334.256 55.992ZM334.384 50.064C335.424 50.064 336.104 50.76 336.104 51.784C336.104 52.76 335.464 53.488 334.376 53.488C333.272 53.488 332.624 52.752 332.624 51.776C332.624 50.776 333.328 50.064 334.384 50.064ZM334.624 59.424C333.272 59.424 332.224 58.976 332.224 58.088C332.224 58.024 332.224 57.96 332.24 57.88L333.216 56.936C333.472 56.992 333.752 57.04 334.048 57.08C335.632 57.304 336.672 57.44 336.672 58.296C336.672 59.096 335.728 59.424 334.624 59.424ZM345.246 47.664V45.848H343.886V47.664H345.246ZM345.206 57V49.112H343.918V57H345.206ZM350.303 57.128C352.095 57.128 353.263 56.16 353.263 54.688C353.263 52.928 351.679 52.552 350.375 52.24C349.287 51.976 348.663 51.744 348.663 51.064C348.663 50.464 349.271 50.024 350.135 50.024C350.967 50.024 351.631 50.376 352.127 51.136L353.031 50.448C352.415 49.48 351.391 48.984 350.183 48.984C348.559 48.984 347.455 49.944 347.455 51.144C347.455 52.656 348.775 53.064 350.015 53.384C351.175 53.688 351.999 53.928 351.999 54.816C351.999 55.6 351.399 56.056 350.391 56.056C349.327 56.056 348.415 55.52 347.935 54.632L347.047 55.384C347.751 56.488 348.911 57.128 350.303 57.128ZM361.165 49.112V48.592C361.165 47.328 361.757 46.768 362.877 46.768C363.629 46.768 364.253 46.992 364.781 47.384L365.397 46.48C364.677 46 363.909 45.72 362.813 45.72C361.213 45.72 359.885 46.624 359.885 48.488V49.112H358.509V50.128H359.885V57H361.165V50.128H364.101V57H365.381V49.112H361.165ZM371.267 48.984C370.331 48.984 369.451 49.512 368.995 50.416V49.112H367.699V57H368.987V53.288C368.987 52.416 369.035 52.064 369.123 51.768C369.427 50.68 370.267 50.224 371.067 50.224C371.419 50.224 371.787 50.328 372.043 50.456L372.667 49.336C372.259 49.112 371.755 48.984 371.267 48.984ZM376.444 57.128C378.236 57.128 379.404 56.16 379.404 54.688C379.404 52.928 377.82 52.552 376.516 52.24C375.428 51.976 374.804 51.744 374.804 51.064C374.804 50.464 375.412 50.024 376.276 50.024C377.108 50.024 377.772 50.376 378.268 51.136L379.172 50.448C378.556 49.48 377.532 48.984 376.324 48.984C374.7 48.984 373.596 49.944 373.596 51.144C373.596 52.656 374.916 53.064 376.156 53.384C377.316 53.688 378.14 53.928 378.14 54.816C378.14 55.6 377.54 56.056 376.532 56.056C375.468 56.056 374.556 55.52 374.076 54.632L373.188 55.384C373.892 56.488 375.052 57.128 376.444 57.128ZM385.082 49.112H383.242V46.248L381.946 46.976V49.112H380.29V50.128H381.946V55.024C381.946 56.504 382.754 57.128 383.874 57.128C384.266 57.128 384.666 57.056 385.082 56.92V55.912C384.746 56.016 384.45 56.064 384.21 56.064C383.498 56.064 383.242 55.584 383.242 54.68V50.128H385.082V49.112ZM387.144 59.456L389.24 54.68H387.8L386.272 59.456H387.144ZM398.621 48.984C397.613 48.984 396.749 49.36 396.221 50.296V49.112H394.933V57H396.221V53.056C396.221 51.016 396.965 50.112 398.301 50.112C399.509 50.112 400.117 50.848 400.117 52.48V57H401.405V52.016C401.405 50.008 400.373 48.984 398.621 48.984ZM406.959 57.128C409.183 57.128 410.775 55.424 410.775 53.048C410.775 50.672 409.191 48.984 406.959 48.984C404.719 48.984 403.135 50.672 403.135 53.048C403.135 55.432 404.727 57.128 406.959 57.128ZM406.959 55.992C405.415 55.992 404.423 54.84 404.423 53.048C404.423 51.264 405.407 50.12 406.959 50.12C408.503 50.12 409.487 51.264 409.487 53.048C409.487 54.84 408.503 55.992 406.959 55.992ZM416.269 49.112H414.429V46.248L413.133 46.976V49.112H411.477V50.128H413.133V55.024C413.133 56.504 413.941 57.128 415.061 57.128C415.453 57.128 415.853 57.056 416.269 56.92V55.912C415.933 56.016 415.637 56.064 415.397 56.064C414.685 56.064 414.429 55.584 414.429 54.68V50.128H416.269V49.112ZM425.281 48.984C423.977 48.984 422.825 49.432 421.945 50.488L422.881 51.264C423.593 50.416 424.305 50.112 425.193 50.112C426.537 50.112 427.225 50.808 427.225 52.072V52.32H424.785C423.921 52.32 423.153 52.48 422.609 52.872C422.073 53.248 421.753 53.84 421.753 54.656C421.753 56.144 422.865 57.128 424.681 57.128C425.721 57.128 426.641 56.76 427.241 55.704L427.321 57H428.505V52.072C428.505 50.104 427.345 48.984 425.281 48.984ZM424.793 56.088C423.697 56.088 423.041 55.528 423.041 54.672C423.041 54.216 423.217 53.896 423.521 53.672C423.865 53.432 424.377 53.336 424.961 53.336H427.225V53.664C427.225 55.056 426.121 56.088 424.793 56.088ZM434.403 48.984C433.395 48.984 432.531 49.36 432.003 50.296V49.112H430.715V57H432.003V53.056C432.003 51.016 432.747 50.112 434.082 50.112C435.291 50.112 435.899 50.848 435.899 52.48V57H437.187V52.016C437.187 50.008 436.155 48.984 434.403 48.984ZM50.312 69.984C49.008 69.984 47.856 70.432 46.976 71.488L47.912 72.264C48.624 71.416 49.336 71.112 50.224 71.112C51.568 71.112 52.256 71.808 52.256 73.072V73.32H49.816C48.952 73.32 48.184 73.48 47.64 73.872C47.104 74.248 46.784 74.84 46.784 75.656C46.784 77.144 47.896 78.128 49.712 78.128C50.752 78.128 51.672 77.76 52.272 76.704L52.352 78H53.536V73.072C53.536 71.104 52.376 69.984 50.312 69.984ZM49.824 77.088C48.728 77.088 48.072 76.528 48.072 75.672C48.072 75.216 48.248 74.896 48.552 74.672C48.896 74.432 49.408 74.336 49.992 74.336H52.256V74.664C52.256 76.056 51.152 77.088 49.824 77.088ZM57.4839 78V71.128H59.3319V70.112H57.4839V69.072C57.4839 68.256 57.8199 67.8 58.5239 67.8C58.8359 67.8 59.0999 67.888 59.3559 68.016L59.7719 67.032C59.3799 66.84 58.9639 66.72 58.3879 66.72C57.1399 66.72 56.2039 67.312 56.2039 69.064V70.112H54.5399V71.128H56.1959V78H57.4839ZM63.7381 70.112H61.8981V67.248L60.6021 67.976V70.112H58.9461V71.128H60.6021V76.024C60.6021 77.504 61.4101 78.128 62.5301 78.128C62.9221 78.128 63.3221 78.056 63.7381 77.92V76.912C63.4021 77.016 63.1061 77.064 62.8661 77.064C62.1541 77.064 61.8981 76.584 61.8981 75.68V71.128H63.7381V70.112ZM71.9181 73.736C71.9181 71.84 70.8701 69.984 68.4461 69.984C66.0781 69.984 64.8861 71.912 64.8861 74.104C64.8861 76.32 66.1021 78.128 68.5741 78.128C69.8781 78.128 70.7981 77.712 71.6781 76.792L70.7741 75.992C70.1181 76.704 69.4701 76.96 68.5821 76.96C67.0941 76.96 66.2221 76 66.1741 74.44H71.8781C71.9021 74.208 71.9181 73.952 71.9181 73.736ZM66.1661 73.432C66.2861 72.112 67.0941 71.064 68.4701 71.064C69.9901 71.064 70.6941 72.2 70.6941 73.28V73.432H66.1661ZM77.4231 69.984C76.4871 69.984 75.6071 70.512 75.1511 71.416V70.112H73.8551V78H75.1431V74.288C75.1431 73.416 75.1911 73.064 75.2791 72.768C75.5831 71.68 76.4231 71.224 77.2231 71.224C77.5751 71.224 77.9431 71.328 78.1991 71.456L78.8231 70.336C78.4151 70.112 77.9111 69.984 77.4231 69.984ZM84.3163 70.112H82.4763V67.248L81.1803 67.976V70.112H79.5243V71.128H81.1803V76.024C81.1803 77.504 81.9883 78.128 83.1083 78.128C83.5003 78.128 83.9003 78.056 84.3163 77.92V76.912C83.9803 77.016 83.6843 77.064 83.4443 77.064C82.7323 77.064 82.4763 76.584 82.4763 75.68V71.128H84.3163V70.112ZM89.7306 69.984C88.6906 69.984 87.8506 70.36 87.3306 71.288V66.848H86.0426V78H87.3306V74.056C87.3306 72.088 88.0266 71.112 89.4106 71.112C90.6426 71.112 91.2266 71.88 91.2266 73.48V78H92.5146V73.016C92.5146 71.08 91.5306 69.984 89.7306 69.984ZM98.0844 78.128C100.308 78.128 101.9 76.424 101.9 74.048C101.9 71.672 100.316 69.984 98.0844 69.984C95.8444 69.984 94.2604 71.672 94.2604 74.048C94.2604 76.432 95.8524 78.128 98.0844 78.128ZM98.0844 76.992C96.5404 76.992 95.5484 75.84 95.5484 74.048C95.5484 72.264 96.5324 71.12 98.0844 71.12C99.6284 71.12 100.612 72.264 100.612 74.048C100.612 75.84 99.6284 76.992 98.0844 76.992ZM108.81 74.056C108.81 76.096 108.066 77 106.73 77C105.522 77 104.914 76.264 104.914 74.632V70.112H103.626V75.096C103.626 77.104 104.658 78.128 106.41 78.128C107.418 78.128 108.282 77.768 108.81 76.824V78H110.098V70.112H108.81V74.056ZM114.99 76.992C113.846 76.832 113.126 76.664 113.126 75.936C113.126 75.632 113.278 75.392 113.566 75.176C114.014 75.392 114.542 75.512 115.134 75.512C116.902 75.512 118.118 74.44 118.118 72.824C118.118 72.296 117.99 71.832 117.766 71.432L118.99 70.376L118.318 69.552L117.062 70.616C116.534 70.208 115.846 69.984 115.102 69.984C113.414 69.984 112.07 71.112 112.07 72.776C112.07 73.48 112.31 74.096 112.734 74.56C112.222 74.944 111.942 75.416 111.942 76.072C111.942 76.832 112.326 77.32 113.03 77.64L111.718 78.6C111.686 78.744 111.678 78.912 111.678 79.048C111.678 80.528 113.062 81.4 115.35 81.4C117.422 81.4 118.686 80.616 118.686 79.152C118.686 77.496 116.982 77.272 114.99 76.992ZM115.118 71.064C116.158 71.064 116.838 71.76 116.838 72.784C116.838 73.76 116.198 74.488 115.11 74.488C114.006 74.488 113.358 73.752 113.358 72.776C113.358 71.776 114.062 71.064 115.118 71.064ZM115.358 80.424C114.006 80.424 112.958 79.976 112.958 79.088C112.958 79.024 112.958 78.96 112.974 78.88L113.95 77.936C114.206 77.992 114.486 78.04 114.782 78.08C116.366 78.304 117.406 78.44 117.406 79.296C117.406 80.096 116.462 80.424 115.358 80.424ZM124.199 69.984C123.159 69.984 122.319 70.36 121.799 71.288V66.848H120.511V78H121.799V74.056C121.799 72.088 122.495 71.112 123.879 71.112C125.111 71.112 125.695 71.88 125.695 73.48V78H126.983V73.016C126.983 71.08 125.999 69.984 124.199 69.984ZM133.019 70.112H131.179V67.248L129.883 67.976V70.112H128.227V71.128H129.883V76.024C129.883 77.504 130.691 78.128 131.811 78.128C132.203 78.128 132.603 78.056 133.019 77.92V76.912C132.683 77.016 132.387 77.064 132.147 77.064C131.435 77.064 131.179 76.584 131.179 75.68V71.128H133.019V70.112Z" fill="#112378"/>
<path d="M28.6668 14.826C28.6645 14.8026 28.659 14.7799 28.6544 14.7567C28.6501 14.7341 28.647 14.7116 28.6403 14.6895C28.6339 14.6679 28.6242 14.6472 28.6159 14.6263C28.6068 14.6034 28.5985 14.5804 28.587 14.5583C28.577 14.5397 28.5642 14.5223 28.5526 14.5043C28.5381 14.4817 28.5241 14.459 28.5069 14.4379C28.504 14.4343 28.5021 14.4302 28.499 14.4265C26.5989 12.187 20.0771 8.65635 15.6745 8.47842C15.5618 8.47283 15.4482 8.46973 15.334 8.46973C15.2198 8.46973 15.1062 8.47262 14.9934 8.47842C10.5909 8.65635 4.0693 12.1868 2.16917 14.4265C2.16606 14.43 2.16441 14.4341 2.1613 14.4379C2.14413 14.459 2.13027 14.4815 2.11558 14.5041C2.10399 14.5221 2.09096 14.5395 2.08123 14.5583C2.06965 14.5802 2.06158 14.6032 2.05248 14.6259C2.04399 14.647 2.03427 14.6679 2.02786 14.6897C2.02144 14.7116 2.01813 14.7341 2.01379 14.7567C2.00923 14.7799 2.00365 14.8028 2.00137 14.8262C1.9991 14.8494 2.00034 14.8726 2.00034 14.8957C2.00034 14.9187 1.9991 14.9415 2.00137 14.9642C2.00365 14.988 2.00944 15.0114 2.01399 15.035C2.01834 15.0569 2.02144 15.079 2.02765 15.1006C2.03427 15.1227 2.0442 15.144 2.05289 15.1657C2.06179 15.1881 2.06986 15.2104 2.08103 15.2317C2.09117 15.251 2.10441 15.2688 2.11641 15.2872C2.13068 15.3093 2.14434 15.3315 2.1611 15.3521C2.1642 15.3559 2.16586 15.36 2.16896 15.3637C4.0691 17.603 10.5909 21.1337 14.9932 21.3116C15.106 21.3172 15.2196 21.3203 15.3338 21.3203C15.448 21.3203 15.5616 21.3174 15.6743 21.3116C20.0767 21.1337 26.5985 17.6032 28.4986 15.3637C28.5017 15.3602 28.5034 15.3561 28.5065 15.3523C28.5239 15.3312 28.5377 15.3085 28.5522 15.2859C28.5638 15.2679 28.5766 15.2508 28.5865 15.2319C28.5981 15.2098 28.6064 15.1868 28.6155 15.1639C28.624 15.1428 28.6337 15.1223 28.6399 15.1008C28.6465 15.0786 28.6497 15.0561 28.654 15.0335C28.6585 15.0103 28.6641 14.9876 28.6664 14.9642C28.6687 14.9412 28.6674 14.9183 28.6674 14.8951C28.6679 14.8719 28.6691 14.849 28.6668 14.826ZM5.09923 15.9697C4.5611 15.5992 4.09641 15.2357 3.72958 14.8951C4.09641 14.5546 4.5613 14.1908 5.09965 13.8201C6.4093 12.9184 8.14558 11.9793 9.92675 11.2479C9.80179 11.4244 9.6853 11.6071 9.57855 11.7956C9.0582 12.7152 8.76089 13.7717 8.76089 14.8951C8.76089 16.0183 9.0582 17.0748 9.57855 17.9944C9.6853 18.1831 9.80179 18.3656 9.92675 18.5421C8.14537 17.8107 6.40889 16.8716 5.09923 15.9697ZM15.3342 19.8718C12.5084 19.8718 10.2092 17.6394 10.2092 14.8951C10.2092 12.1508 12.5084 9.91821 15.3342 9.91821C18.16 9.91821 20.4592 12.1508 20.4592 14.8951C20.4592 17.6394 18.16 19.8718 15.3342 19.8718ZM25.5692 15.9697C24.2595 16.8716 22.523 17.8107 20.7414 18.5421C20.8664 18.3656 20.9829 18.1831 21.0896 17.9944C21.6102 17.0748 21.9073 16.0183 21.9073 14.8951C21.9073 13.7717 21.61 12.7152 21.0896 11.7956C20.9829 11.6069 20.8664 11.4244 20.7414 11.2479C22.5228 11.9793 24.2591 12.9184 25.5688 13.8203C26.1071 14.1908 26.5718 14.5546 26.9388 14.8951C26.572 15.2357 26.1073 15.5992 25.5692 15.9697Z" fill="#F582AE"/>
<path d="M15.3341 12.3721C13.9171 12.3721 12.7643 13.504 12.7643 14.8952C12.7643 16.2863 13.9171 17.4181 15.3341 17.4181C16.7512 17.4181 17.904 16.2861 17.904 14.8952C17.904 13.504 16.7512 12.3721 15.3341 12.3721Z" fill="#F582AE"/>
<path d="M23.1571 6.79896C23.3392 6.79896 23.5213 6.73089 23.6619 6.59392L26.2101 4.1153C26.4968 3.83641 26.503 3.37813 26.2242 3.09137C25.9448 2.80461 25.487 2.7982 25.2002 3.0773L22.6521 5.55592C22.3653 5.83482 22.3591 6.2931 22.638 6.57986C22.7802 6.72572 22.9684 6.79896 23.1571 6.79896Z" fill="#F582AE"/>
<path d="M7.00618 6.59398C7.14687 6.73094 7.32914 6.79901 7.511 6.79901C7.69969 6.79901 7.88818 6.72577 8.03011 6.5797C8.309 6.29294 8.30259 5.83446 8.01604 5.55577L5.4679 3.07715C5.18114 2.79805 4.72266 2.80488 4.44397 3.09122C4.16507 3.37798 4.17149 3.83646 4.45804 4.11515L7.00618 6.59398Z" fill="#F582AE"/>
<path d="M15.2285 4.95352C15.6285 4.95352 15.9527 4.62931 15.9527 4.22938V0.724138C15.9527 0.324207 15.6285 0 15.2285 0C14.8286 0 14.5044 0.324207 14.5044 0.724138V4.22938C14.5044 4.62931 14.8288 4.95352 15.2285 4.95352Z" fill="#F582AE"/>
<path d="M7.00625 23.4062L4.45811 25.8848C4.17136 26.1637 4.16515 26.622 4.44405 26.9088C4.58598 27.0546 4.77446 27.1281 4.96315 27.1281C5.14501 27.1281 5.32729 27.06 5.46798 26.9231L8.01612 24.4444C8.30287 24.1655 8.30908 23.7073 8.03018 23.4205C7.75149 23.134 7.29301 23.1271 7.00625 23.4062Z" fill="#F582AE"/>
<path d="M23.6622 23.4063C23.3755 23.1271 22.917 23.134 22.6383 23.4203C22.3594 23.7071 22.3658 24.1656 22.6524 24.4443L25.2005 26.9229C25.3414 27.0598 25.5235 27.1279 25.7053 27.1279C25.894 27.1279 26.0825 27.0547 26.2244 26.9086C26.5033 26.6218 26.4969 26.1634 26.2104 25.8847L23.6622 23.4063Z" fill="#F582AE"/>
<path d="M15.4401 25.0464C15.0401 25.0464 14.7159 25.3706 14.7159 25.7705V29.2758C14.7159 29.6757 15.0401 29.9999 15.4401 29.9999C15.84 29.9999 16.1642 29.6757 16.1642 29.2758V25.7705C16.1642 25.3706 15.8398 25.0464 15.4401 25.0464Z" fill="#F582AE"/>
<path d="M51.96 250.24C55.128 250.24 57.28 247.928 57.28 244.432C57.28 240.92 55.144 238.608 51.96 238.608C48.808 238.608 46.664 240.928 46.664 244.432C46.664 247.912 48.808 250.24 51.96 250.24ZM51.96 248.392C49.904 248.392 48.584 246.888 48.584 244.432C48.584 241.952 49.904 240.448 51.96 240.448C54.04 240.448 55.344 241.976 55.344 244.432C55.344 246.864 54.04 248.392 51.96 248.392ZM63.955 245.92C63.955 247.736 63.347 248.536 62.171 248.536C61.131 248.536 60.635 247.92 60.635 246.544V242.112H58.787V247.224C58.787 249.096 59.843 250.152 61.667 250.152C62.555 250.152 63.379 249.896 63.955 249.136V250H65.803V242.112H63.955V245.92ZM71.7321 241.96C70.8761 241.96 70.1321 242.408 69.7001 243.112V242.112H67.8361V250H69.6921V246.552C69.6921 245.68 69.7401 245.336 69.8201 245.056C70.0761 244.152 70.7321 243.736 71.4361 243.736C71.8041 243.736 72.1961 243.864 72.4361 244L73.3241 242.392C72.8681 242.12 72.2921 241.96 71.7321 241.96ZM84.4101 246.632L81.5221 238.848H78.6981V250H80.6261V241.584L83.4741 249.024H85.3381L88.1861 241.584V250H90.1141V238.848H87.2901L84.4101 246.632ZM94.1624 240.84V238.848H92.2504V240.84H94.1624ZM94.1224 250V242.112H92.2664V250H94.1224ZM99.0443 250.152C100.948 250.152 102.212 249.104 102.212 247.544C102.212 245.72 100.548 245.32 99.2682 245.008C98.2523 244.76 97.8043 244.576 97.8043 244.144C97.8043 243.736 98.2683 243.44 98.9243 243.44C99.6363 243.44 100.228 243.736 100.716 244.36L101.996 243.36C101.316 242.44 100.252 241.96 98.9963 241.96C97.2523 241.96 96.0763 243.008 96.0763 244.264C96.0763 245.888 97.5323 246.328 98.7563 246.656C99.8283 246.952 100.396 247.16 100.396 247.736C100.396 248.296 99.9723 248.624 99.1723 248.624C98.3003 248.624 97.4763 248.184 96.9483 247.408L95.6842 248.504C96.5323 249.568 97.7003 250.152 99.0443 250.152ZM106.732 250.152C108.636 250.152 109.9 249.104 109.9 247.544C109.9 245.72 108.236 245.32 106.956 245.008C105.94 244.76 105.492 244.576 105.492 244.144C105.492 243.736 105.956 243.44 106.612 243.44C107.324 243.44 107.916 243.736 108.404 244.36L109.684 243.36C109.004 242.44 107.94 241.96 106.684 241.96C104.94 241.96 103.764 243.008 103.764 244.264C103.764 245.888 105.22 246.328 106.444 246.656C107.516 246.952 108.084 247.16 108.084 247.736C108.084 248.296 107.66 248.624 106.86 248.624C105.988 248.624 105.164 248.184 104.636 247.408L103.372 248.504C104.22 249.568 105.388 250.152 106.732 250.152ZM113.459 240.84V238.848H111.547V240.84H113.459ZM113.419 250V242.112H111.563V250H113.419ZM119.037 250.152C121.309 250.152 122.965 248.416 122.965 246.048C122.965 243.664 121.317 241.96 119.037 241.96C116.741 241.96 115.093 243.664 115.093 246.048C115.093 248.432 116.749 250.152 119.037 250.152ZM119.037 248.528C117.733 248.528 116.941 247.592 116.941 246.048C116.941 244.504 117.725 243.584 119.037 243.584C120.333 243.584 121.117 244.504 121.117 246.048C121.117 247.592 120.333 248.528 119.037 248.528ZM128.761 241.96C127.865 241.96 127.041 242.216 126.473 242.976V242.112H124.617V250H126.473V246.184C126.473 244.376 127.073 243.568 128.257 243.568C129.289 243.568 129.785 244.184 129.785 245.56V250H131.641V244.88C131.641 243.016 130.577 241.96 128.761 241.96Z" fill="#F582AE"/>
<path d="M51.36 287V277.048H55.128V275.848H46.232V277.048H50.008V287H51.36ZM58.4438 287.128C60.6678 287.128 62.2598 285.424 62.2598 283.048C62.2598 280.672 60.6758 278.984 58.4438 278.984C56.2038 278.984 54.6198 280.672 54.6198 283.048C54.6198 285.432 56.2118 287.128 58.4438 287.128ZM58.4438 285.992C56.8998 285.992 55.9078 284.84 55.9078 283.048C55.9078 281.264 56.8918 280.12 58.4438 280.12C59.9878 280.12 60.9718 281.264 60.9718 283.048C60.9718 284.84 59.9878 285.992 58.4438 285.992ZM71.5879 287.128C73.0919 287.128 74.2439 286.376 74.7719 284.928L73.6359 284.48C73.3159 285.416 72.6279 286 71.5879 286C69.9879 286 69.2519 284.592 69.2519 283.048C69.2519 281.52 69.9879 280.112 71.5879 280.112C72.6279 280.112 73.3159 280.696 73.6359 281.632L74.7719 281.184C74.2439 279.736 73.0919 278.984 71.5879 278.984C69.2679 278.984 67.9639 280.832 67.9639 283.048C67.9639 285.28 69.2679 287.128 71.5879 287.128ZM80.1731 278.984C79.2371 278.984 78.3571 279.512 77.9011 280.416V279.112H76.6051V287H77.8931V283.288C77.8931 282.416 77.9411 282.064 78.0291 281.768C78.3331 280.68 79.1731 280.224 79.9731 280.224C80.3251 280.224 80.6931 280.328 80.9491 280.456L81.5731 279.336C81.1651 279.112 80.6611 278.984 80.1731 278.984ZM88.9338 282.736C88.9338 280.84 87.8858 278.984 85.4618 278.984C83.0938 278.984 81.9018 280.912 81.9018 283.104C81.9018 285.32 83.1178 287.128 85.5898 287.128C86.8938 287.128 87.8138 286.712 88.6938 285.792L87.7898 284.992C87.1338 285.704 86.4858 285.96 85.5978 285.96C84.1098 285.96 83.2378 285 83.1898 283.44H88.8938C88.9178 283.208 88.9338 282.952 88.9338 282.736ZM83.1818 282.432C83.3018 281.112 84.1098 280.064 85.4858 280.064C87.0058 280.064 87.7098 281.2 87.7098 282.28V282.432H83.1818ZM93.812 278.984C92.508 278.984 91.356 279.432 90.476 280.488L91.412 281.264C92.124 280.416 92.836 280.112 93.724 280.112C95.068 280.112 95.756 280.808 95.756 282.072V282.32H93.316C92.452 282.32 91.684 282.48 91.14 282.872C90.604 283.248 90.284 283.84 90.284 284.656C90.284 286.144 91.396 287.128 93.212 287.128C94.252 287.128 95.172 286.76 95.772 285.704L95.852 287H97.036V282.072C97.036 280.104 95.876 278.984 93.812 278.984ZM93.324 286.088C92.228 286.088 91.572 285.528 91.572 284.672C91.572 284.216 91.748 283.896 92.052 283.672C92.396 283.432 92.908 283.336 93.492 283.336H95.756V283.664C95.756 285.056 94.652 286.088 93.324 286.088ZM103.051 279.112H101.211V276.248L99.9146 276.976V279.112H98.2586V280.128H99.9146V285.024C99.9146 286.504 100.723 287.128 101.843 287.128C102.235 287.128 102.635 287.056 103.051 286.92V285.912C102.715 286.016 102.419 286.064 102.179 286.064C101.467 286.064 101.211 285.584 101.211 284.68V280.128H103.051V279.112ZM111.231 282.736C111.231 280.84 110.183 278.984 107.759 278.984C105.391 278.984 104.199 280.912 104.199 283.104C104.199 285.32 105.415 287.128 107.887 287.128C109.191 287.128 110.111 286.712 110.991 285.792L110.087 284.992C109.431 285.704 108.783 285.96 107.895 285.96C106.407 285.96 105.535 285 105.487 283.44H111.191C111.215 283.208 111.231 282.952 111.231 282.736ZM105.479 282.432C105.599 281.112 106.407 280.064 107.783 280.064C109.303 280.064 110.007 281.2 110.007 282.28V282.432H105.479ZM121.301 279.112H119.461V276.248L118.165 276.976V279.112H116.509V280.128H118.165V285.024C118.165 286.504 118.973 287.128 120.093 287.128C120.485 287.128 120.885 287.056 121.301 286.92V285.912C120.965 286.016 120.669 286.064 120.429 286.064C119.717 286.064 119.461 285.584 119.461 284.68V280.128H121.301V279.112ZM126.715 278.984C125.675 278.984 124.835 279.36 124.315 280.288V275.848H123.027V287H124.315V283.056C124.315 281.088 125.011 280.112 126.395 280.112C127.627 280.112 128.211 280.88 128.211 282.48V287H129.499V282.016C129.499 280.08 128.515 278.984 126.715 278.984ZM138.309 282.736C138.309 280.84 137.261 278.984 134.837 278.984C132.469 278.984 131.277 280.912 131.277 283.104C131.277 285.32 132.493 287.128 134.965 287.128C136.269 287.128 137.189 286.712 138.069 285.792L137.165 284.992C136.509 285.704 135.861 285.96 134.973 285.96C133.485 285.96 132.613 285 132.565 283.44H138.269C138.293 283.208 138.309 282.952 138.309 282.736ZM132.557 282.432C132.677 281.112 133.485 280.064 134.861 280.064C136.381 280.064 137.085 281.2 137.085 282.28V282.432H132.557ZM148.243 278.984C147.115 278.984 146.227 279.44 145.659 280.216V275.848H144.379V287H145.659V285.912C146.267 286.728 147.163 287.128 148.243 287.128C150.419 287.128 151.819 285.376 151.819 283.048C151.819 280.584 150.275 278.984 148.243 278.984ZM148.027 285.944C146.563 285.944 145.547 284.752 145.547 283.048C145.547 281.352 146.563 280.168 148.027 280.168C149.499 280.168 150.531 281.352 150.531 283.048C150.531 284.752 149.499 285.944 148.027 285.944ZM160.418 282.736C160.418 280.84 159.37 278.984 156.946 278.984C154.578 278.984 153.386 280.912 153.386 283.104C153.386 285.32 154.602 287.128 157.074 287.128C158.378 287.128 159.298 286.712 160.178 285.792L159.274 284.992C158.618 285.704 157.97 285.96 157.082 285.96C155.594 285.96 154.722 285 154.674 283.44H160.378C160.402 283.208 160.418 282.952 160.418 282.736ZM154.666 282.432C154.786 281.112 155.594 280.064 156.97 280.064C158.49 280.064 159.194 281.2 159.194 282.28V282.432H154.666ZM164.975 287.128C166.767 287.128 167.935 286.16 167.935 284.688C167.935 282.928 166.351 282.552 165.047 282.24C163.959 281.976 163.335 281.744 163.335 281.064C163.335 280.464 163.943 280.024 164.807 280.024C165.639 280.024 166.303 280.376 166.799 281.136L167.703 280.448C167.087 279.48 166.063 278.984 164.855 278.984C163.231 278.984 162.127 279.944 162.127 281.144C162.127 282.656 163.447 283.064 164.687 283.384C165.847 283.688 166.671 283.928 166.671 284.816C166.671 285.6 166.071 286.056 165.063 286.056C163.999 286.056 163.087 285.52 162.607 284.632L161.719 285.384C162.423 286.488 163.583 287.128 164.975 287.128ZM173.613 279.112H171.773V276.248L170.477 276.976V279.112H168.821V280.128H170.477V285.024C170.477 286.504 171.285 287.128 172.405 287.128C172.797 287.128 173.197 287.056 173.613 286.92V285.912C173.277 286.016 172.981 286.064 172.741 286.064C172.029 286.064 171.773 285.584 171.773 284.68V280.128H173.613V279.112ZM181.009 287.128C181.313 287.128 181.705 287.064 182.121 286.92V285.808C181.865 285.896 181.633 285.936 181.433 285.936C180.985 285.936 180.713 285.68 180.713 285.04V275.848H179.433V285.28C179.433 286.568 180.065 287.128 181.009 287.128ZM186.788 287.128C189.012 287.128 190.604 285.424 190.604 283.048C190.604 280.672 189.02 278.984 186.788 278.984C184.548 278.984 182.964 280.672 182.964 283.048C182.964 285.432 184.556 287.128 186.788 287.128ZM186.788 285.992C185.244 285.992 184.252 284.84 184.252 283.048C184.252 281.264 185.236 280.12 186.788 280.12C188.332 280.12 189.316 281.264 189.316 283.048C189.316 284.84 188.332 285.992 186.788 285.992ZM195.807 287.128C197.311 287.128 198.463 286.376 198.991 284.928L197.855 284.48C197.535 285.416 196.847 286 195.807 286C194.207 286 193.471 284.592 193.471 283.048C193.471 281.52 194.207 280.112 195.807 280.112C196.847 280.112 197.535 280.696 197.855 281.632L198.991 281.184C198.463 279.736 197.311 278.984 195.807 278.984C193.487 278.984 192.183 280.832 192.183 283.048C192.183 285.28 193.487 287.128 195.807 287.128ZM203.875 278.984C202.571 278.984 201.419 279.432 200.539 280.488L201.475 281.264C202.187 280.416 202.899 280.112 203.786 280.112C205.131 280.112 205.819 280.808 205.819 282.072V282.32H203.379C202.515 282.32 201.747 282.48 201.203 282.872C200.667 283.248 200.347 283.84 200.347 284.656C200.347 286.144 201.459 287.128 203.275 287.128C204.315 287.128 205.235 286.76 205.835 285.704L205.915 287H207.099V282.072C207.099 280.104 205.939 278.984 203.875 278.984ZM203.387 286.088C202.291 286.088 201.635 285.528 201.635 284.672C201.635 284.216 201.811 283.896 202.115 283.672C202.459 283.432 202.971 283.336 203.555 283.336H205.819V283.664C205.819 285.056 204.715 286.088 203.387 286.088ZM210.649 287.128C210.953 287.128 211.345 287.064 211.761 286.92V285.808C211.505 285.896 211.273 285.936 211.073 285.936C210.625 285.936 210.353 285.68 210.353 285.04V275.848H209.073V285.28C209.073 286.568 209.705 287.128 210.649 287.128ZM221.069 287.128C223.293 287.128 224.885 285.424 224.885 283.048C224.885 280.672 223.301 278.984 221.069 278.984C218.829 278.984 217.245 280.672 217.245 283.048C217.245 285.432 218.837 287.128 221.069 287.128ZM221.069 285.992C219.525 285.992 218.533 284.84 218.533 283.048C218.533 281.264 219.517 280.12 221.069 280.12C222.613 280.12 223.597 281.264 223.597 283.048C223.597 284.84 222.613 285.992 221.069 285.992ZM230.512 278.984C229.504 278.984 228.64 279.36 228.112 280.296V279.112H226.824V287H228.112V283.056C228.112 281.016 228.856 280.112 230.192 280.112C231.4 280.112 232.008 280.848 232.008 282.48V287H233.296V282.016C233.296 280.008 232.264 278.984 230.512 278.984ZM236.868 287.128C237.172 287.128 237.564 287.064 237.98 286.92V285.808C237.724 285.896 237.492 285.936 237.292 285.936C236.844 285.936 236.572 285.68 236.572 285.04V275.848H235.292V285.28C235.292 286.568 235.924 287.128 236.868 287.128ZM241.059 277.664V275.848H239.699V277.664H241.059ZM241.019 287V279.112H239.731V287H241.019ZM247.028 278.984C246.02 278.984 245.156 279.36 244.628 280.296V279.112H243.34V287H244.628V283.056C244.628 281.016 245.372 280.112 246.707 280.112C247.916 280.112 248.524 280.848 248.524 282.48V287H249.812V282.016C249.812 280.008 248.78 278.984 247.028 278.984ZM258.606 282.736C258.606 280.84 257.558 278.984 255.134 278.984C252.766 278.984 251.574 280.912 251.574 283.104C251.574 285.32 252.79 287.128 255.262 287.128C256.566 287.128 257.486 286.712 258.366 285.792L257.462 284.992C256.806 285.704 256.158 285.96 255.27 285.96C253.782 285.96 252.91 285 252.862 283.44H258.566C258.59 283.208 258.606 282.952 258.606 282.736ZM252.854 282.432C252.974 281.112 253.782 280.064 255.158 280.064C256.678 280.064 257.382 281.2 257.382 282.28V282.432H252.854ZM267.444 287.128C269.236 287.128 270.404 286.16 270.404 284.688C270.404 282.928 268.82 282.552 267.516 282.24C266.428 281.976 265.804 281.744 265.804 281.064C265.804 280.464 266.412 280.024 267.276 280.024C268.108 280.024 268.772 280.376 269.268 281.136L270.172 280.448C269.556 279.48 268.532 278.984 267.324 278.984C265.7 278.984 264.596 279.944 264.596 281.144C264.596 282.656 265.916 283.064 267.156 283.384C268.316 283.688 269.14 283.928 269.14 284.816C269.14 285.6 268.54 286.056 267.532 286.056C266.468 286.056 265.556 285.52 265.076 284.632L264.188 285.384C264.892 286.488 266.052 287.128 267.444 287.128ZM275.996 278.984C274.956 278.984 274.116 279.36 273.596 280.288V275.848H272.308V287H273.596V283.056C273.596 281.088 274.292 280.112 275.676 280.112C276.908 280.112 277.492 280.88 277.492 282.48V287H278.78V282.016C278.78 280.08 277.796 278.984 275.996 278.984ZM284.35 287.128C286.574 287.128 288.166 285.424 288.166 283.048C288.166 280.672 286.582 278.984 284.35 278.984C282.11 278.984 280.526 280.672 280.526 283.048C280.526 285.432 282.118 287.128 284.35 287.128ZM284.35 285.992C282.806 285.992 281.814 284.84 281.814 283.048C281.814 281.264 282.798 280.12 284.35 280.12C285.894 280.12 286.878 281.264 286.878 283.048C286.878 284.84 285.894 285.992 284.35 285.992ZM293.977 278.984C292.897 278.984 292.001 279.384 291.393 280.2V279.112H290.113V290.264H291.393V285.896C291.961 286.672 292.849 287.128 293.977 287.128C296.009 287.128 297.553 285.528 297.553 283.064C297.553 280.736 296.153 278.984 293.977 278.984ZM293.761 285.944C292.297 285.944 291.281 284.76 291.281 283.064C291.281 281.36 292.297 280.168 293.761 280.168C295.233 280.168 296.265 281.36 296.265 283.064C296.265 284.76 295.233 285.944 293.761 285.944ZM303.383 278.984C302.303 278.984 301.407 279.384 300.799 280.2V279.112H299.519V290.264H300.799V285.896C301.367 286.672 302.255 287.128 303.383 287.128C305.415 287.128 306.959 285.528 306.959 283.064C306.959 280.736 305.559 278.984 303.383 278.984ZM303.167 285.944C301.703 285.944 300.687 284.76 300.687 283.064C300.687 281.36 301.703 280.168 303.167 280.168C304.639 280.168 305.671 281.36 305.671 283.064C305.671 284.76 304.639 285.944 303.167 285.944ZM310.262 277.664V275.848H308.902V277.664H310.262ZM310.222 287V279.112H308.934V287H310.222ZM316.231 278.984C315.223 278.984 314.359 279.36 313.831 280.296V279.112H312.543V287H313.831V283.056C313.831 281.016 314.575 280.112 315.911 280.112C317.119 280.112 317.727 280.848 317.727 282.48V287H319.015V282.016C319.015 280.008 317.983 278.984 316.231 278.984ZM323.85 285.992C322.706 285.832 321.986 285.664 321.986 284.936C321.986 284.632 322.138 284.392 322.426 284.176C322.874 284.392 323.402 284.512 323.994 284.512C325.762 284.512 326.978 283.44 326.978 281.824C326.978 281.296 326.85 280.832 326.626 280.432L327.85 279.376L327.178 278.552L325.922 279.616C325.394 279.208 324.706 278.984 323.962 278.984C322.274 278.984 320.93 280.112 320.93 281.776C320.93 282.48 321.17 283.096 321.594 283.56C321.082 283.944 320.802 284.416 320.802 285.072C320.802 285.832 321.186 286.32 321.89 286.64L320.578 287.6C320.546 287.744 320.538 287.912 320.538 288.048C320.538 289.528 321.922 290.4 324.21 290.4C326.282 290.4 327.546 289.616 327.546 288.152C327.546 286.496 325.842 286.272 323.85 285.992ZM323.977 280.064C325.018 280.064 325.698 280.76 325.698 281.784C325.698 282.76 325.058 283.488 323.97 283.488C322.866 283.488 322.218 282.752 322.218 281.776C322.218 280.776 322.922 280.064 323.977 280.064ZM324.218 289.424C322.866 289.424 321.818 288.976 321.818 288.088C321.818 288.024 321.818 287.96 321.834 287.88L322.81 286.936C323.066 286.992 323.346 287.04 323.642 287.08C325.226 287.304 326.266 287.44 326.266 288.296C326.266 289.096 325.322 289.424 324.218 289.424ZM340.184 282.736C340.184 280.84 339.136 278.984 336.712 278.984C334.344 278.984 333.152 280.912 333.152 283.104C333.152 285.32 334.368 287.128 336.84 287.128C338.144 287.128 339.064 286.712 339.944 285.792L339.04 284.992C338.384 285.704 337.736 285.96 336.848 285.96C335.36 285.96 334.488 285 334.44 283.44H340.144C340.168 283.208 340.184 282.952 340.184 282.736ZM334.432 282.432C334.552 281.112 335.36 280.064 336.736 280.064C338.256 280.064 338.96 281.2 338.96 282.28V282.432H334.432ZM342.587 287L344.699 283.928L346.819 287H348.403L345.539 283.04L348.395 279.112H346.811L344.699 282.152L342.587 279.112H341.003L343.843 283.04L341.003 287H342.587ZM353.868 278.984C352.788 278.984 351.892 279.384 351.284 280.2V279.112H350.004V290.264H351.284V285.896C351.852 286.672 352.74 287.128 353.868 287.128C355.9 287.128 357.444 285.528 357.444 283.064C357.444 280.736 356.044 278.984 353.868 278.984ZM353.652 285.944C352.188 285.944 351.172 284.76 351.172 283.064C351.172 281.36 352.188 280.168 353.652 280.168C355.124 280.168 356.156 281.36 356.156 283.064C356.156 284.76 355.124 285.944 353.652 285.944ZM366.09 282.736C366.09 280.84 365.042 278.984 362.618 278.984C360.25 278.984 359.058 280.912 359.058 283.104C359.058 285.32 360.274 287.128 362.746 287.128C364.05 287.128 364.97 286.712 365.85 285.792L364.946 284.992C364.29 285.704 363.642 285.96 362.754 285.96C361.266 285.96 360.394 285 360.346 283.44H366.05C366.074 283.208 366.09 282.952 366.09 282.736ZM360.338 282.432C360.458 281.112 361.266 280.064 362.642 280.064C364.162 280.064 364.866 281.2 364.866 282.28V282.432H360.338ZM371.595 278.984C370.659 278.984 369.779 279.512 369.323 280.416V279.112H368.027V287H369.315V283.288C369.315 282.416 369.363 282.064 369.451 281.768C369.755 280.68 370.595 280.224 371.395 280.224C371.747 280.224 372.115 280.328 372.371 280.456L372.995 279.336C372.587 279.112 372.083 278.984 371.595 278.984ZM375.746 277.664V275.848H374.386V277.664H375.746ZM375.706 287V279.112H374.418V287H375.706ZM384.715 282.736C384.715 280.84 383.667 278.984 381.243 278.984C378.875 278.984 377.683 280.912 377.683 283.104C377.683 285.32 378.899 287.128 381.371 287.128C382.675 287.128 383.595 286.712 384.475 285.792L383.571 284.992C382.915 285.704 382.267 285.96 381.379 285.96C379.891 285.96 379.019 285 378.971 283.44H384.675C384.699 283.208 384.715 282.952 384.715 282.736ZM378.963 282.432C379.083 281.112 379.891 280.064 381.267 280.064C382.787 280.064 383.491 281.2 383.491 282.28V282.432H378.963ZM390.34 278.984C389.332 278.984 388.468 279.36 387.94 280.296V279.112H386.652V287H387.94V283.056C387.94 281.016 388.684 280.112 390.02 280.112C391.228 280.112 391.836 280.848 391.836 282.48V287H393.124V282.016C393.124 280.008 392.092 278.984 390.34 278.984ZM398.494 287.128C399.998 287.128 401.15 286.376 401.678 284.928L400.542 284.48C400.222 285.416 399.534 286 398.494 286C396.894 286 396.158 284.592 396.158 283.048C396.158 281.52 396.894 280.112 398.494 280.112C399.534 280.112 400.222 280.696 400.542 281.632L401.678 281.184C401.15 279.736 399.998 278.984 398.494 278.984C396.174 278.984 394.87 280.832 394.87 283.048C394.87 285.28 396.174 287.128 398.494 287.128ZM409.996 282.736C409.996 280.84 408.948 278.984 406.524 278.984C404.156 278.984 402.964 280.912 402.964 283.104C402.964 285.32 404.18 287.128 406.652 287.128C407.956 287.128 408.876 286.712 409.756 285.792L408.852 284.992C408.196 285.704 407.548 285.96 406.66 285.96C405.172 285.96 404.3 285 404.252 283.44H409.956C409.98 283.208 409.996 282.952 409.996 282.736ZM404.244 282.432C404.364 281.112 405.172 280.064 406.548 280.064C408.068 280.064 408.772 281.2 408.772 282.28V282.432H404.244ZM418.218 287V280.128H420.066V279.112H418.218V278.072C418.218 277.256 418.554 276.8 419.258 276.8C419.57 276.8 419.834 276.888 420.09 277.016L420.506 276.032C420.114 275.84 419.698 275.72 419.122 275.72C417.874 275.72 416.938 276.312 416.938 278.064V279.112H415.274V280.128H416.93V287H418.218ZM424.491 287.128C426.715 287.128 428.307 285.424 428.307 283.048C428.307 280.672 426.723 278.984 424.491 278.984C422.251 278.984 420.667 280.672 420.667 283.048C420.667 285.432 422.259 287.128 424.491 287.128ZM424.491 285.992C422.947 285.992 421.955 284.84 421.955 283.048C421.955 281.264 422.939 280.12 424.491 280.12C426.035 280.12 427.019 281.264 427.019 283.048C427.019 284.84 426.035 285.992 424.491 285.992ZM433.814 278.984C432.878 278.984 431.998 279.512 431.542 280.416V279.112H430.246V287H431.534V283.288C431.534 282.416 431.582 282.064 431.67 281.768C431.974 280.68 432.814 280.224 433.614 280.224C433.966 280.224 434.334 280.328 434.59 280.456L435.214 279.336C434.806 279.112 434.302 278.984 433.814 278.984ZM50.416 308.128C51.92 308.128 53.072 307.376 53.6 305.928L52.464 305.48C52.144 306.416 51.456 307 50.416 307C48.816 307 48.08 305.592 48.08 304.048C48.08 302.52 48.816 301.112 50.416 301.112C51.456 301.112 52.144 301.696 52.464 302.632L53.6 302.184C53.072 300.736 51.92 299.984 50.416 299.984C48.096 299.984 46.792 301.832 46.792 304.048C46.792 306.28 48.096 308.128 50.416 308.128ZM60.357 304.056C60.357 306.096 59.613 307 58.277 307C57.069 307 56.461 306.264 56.461 304.632V300.112H55.173V305.096C55.173 307.104 56.205 308.128 57.957 308.128C58.965 308.128 59.829 307.768 60.357 306.824V308H61.645V300.112H60.357V304.056ZM66.553 308.128C68.345 308.128 69.513 307.16 69.513 305.688C69.513 303.928 67.929 303.552 66.625 303.24C65.537 302.976 64.913 302.744 64.913 302.064C64.913 301.464 65.521 301.024 66.385 301.024C67.217 301.024 67.881 301.376 68.377 302.136L69.281 301.448C68.665 300.48 67.641 299.984 66.433 299.984C64.809 299.984 63.705 300.944 63.705 302.144C63.705 303.656 65.025 304.064 66.265 304.384C67.425 304.688 68.249 304.928 68.249 305.816C68.249 306.6 67.649 307.056 66.641 307.056C65.577 307.056 64.665 306.52 64.185 305.632L63.297 306.384C64.001 307.488 65.161 308.128 66.553 308.128ZM75.1913 300.112H73.3513V297.248L72.0553 297.976V300.112H70.3993V301.128H72.0553V306.024C72.0553 307.504 72.8633 308.128 73.9833 308.128C74.3753 308.128 74.7753 308.056 75.1913 307.92V306.912C74.8553 307.016 74.5593 307.064 74.3193 307.064C73.6073 307.064 73.3513 306.584 73.3513 305.68V301.128H75.1913V300.112ZM80.1313 308.128C82.3553 308.128 83.9473 306.424 83.9473 304.048C83.9473 301.672 82.3633 299.984 80.1313 299.984C77.8913 299.984 76.3073 301.672 76.3073 304.048C76.3073 306.432 77.8993 308.128 80.1313 308.128ZM80.1313 306.992C78.5873 306.992 77.5953 305.84 77.5953 304.048C77.5953 302.264 78.5793 301.12 80.1313 301.12C81.6753 301.12 82.6593 302.264 82.6593 304.048C82.6593 305.84 81.6753 306.992 80.1313 306.992ZM94.0624 299.984C93.1104 299.984 92.1984 300.312 91.5904 301.184C91.1184 300.296 90.2784 299.984 89.3504 299.984C88.4624 299.984 87.6224 300.344 87.1184 301.256V300.112H85.8864V308H87.1824V303.744C87.1824 302.008 87.8784 301.112 89.0704 301.112C90.1504 301.112 90.7344 301.848 90.7344 303.408V308H92.0224V303.744C92.0224 302 92.7104 301.112 93.8784 301.112C95.1184 301.112 95.5824 302.016 95.5824 303.512V308H96.8784V303.216C96.8784 301.44 96.1184 299.984 94.0624 299.984ZM105.668 303.736C105.668 301.84 104.62 299.984 102.196 299.984C99.8281 299.984 98.6361 301.912 98.6361 304.104C98.6361 306.32 99.8521 308.128 102.324 308.128C103.628 308.128 104.548 307.712 105.428 306.792L104.524 305.992C103.868 306.704 103.22 306.96 102.332 306.96C100.844 306.96 99.9721 306 99.9241 304.44H105.628C105.652 304.208 105.668 303.952 105.668 303.736ZM99.9161 303.432C100.036 302.112 100.844 301.064 102.22 301.064C103.74 301.064 104.444 302.2 104.444 303.28V303.432H99.9161ZM111.173 299.984C110.237 299.984 109.357 300.512 108.901 301.416V300.112H107.605V308H108.893V304.288C108.893 303.416 108.941 303.064 109.029 302.768C109.333 301.68 110.173 301.224 110.973 301.224C111.325 301.224 111.693 301.328 111.949 301.456L112.573 300.336C112.165 300.112 111.661 299.984 111.173 299.984ZM116.35 308.128C118.142 308.128 119.31 307.16 119.31 305.688C119.31 303.928 117.726 303.552 116.422 303.24C115.334 302.976 114.71 302.744 114.71 302.064C114.71 301.464 115.318 301.024 116.182 301.024C117.014 301.024 117.678 301.376 118.174 302.136L119.078 301.448C118.462 300.48 117.438 299.984 116.23 299.984C114.606 299.984 113.502 300.944 113.502 302.144C113.502 303.656 114.822 304.064 116.062 304.384C117.222 304.688 118.046 304.928 118.046 305.816C118.046 306.6 117.446 307.056 116.438 307.056C115.374 307.056 114.462 306.52 113.982 305.632L113.094 306.384C113.798 307.488 114.958 308.128 116.35 308.128ZM128.5 299.984C127.196 299.984 126.044 300.432 125.164 301.488L126.1 302.264C126.812 301.416 127.524 301.112 128.411 301.112C129.756 301.112 130.444 301.808 130.444 303.072V303.32H128.004C127.14 303.32 126.372 303.48 125.828 303.872C125.292 304.248 124.972 304.84 124.972 305.656C124.972 307.144 126.084 308.128 127.9 308.128C128.94 308.128 129.86 307.76 130.46 306.704L130.54 308H131.724V303.072C131.724 301.104 130.564 299.984 128.5 299.984ZM128.012 307.088C126.916 307.088 126.26 306.528 126.26 305.672C126.26 305.216 126.436 304.896 126.74 304.672C127.084 304.432 127.596 304.336 128.18 304.336H130.444V304.664C130.444 306.056 129.34 307.088 128.012 307.088ZM137.621 299.984C136.613 299.984 135.749 300.36 135.221 301.296V300.112H133.933V308H135.221V304.056C135.221 302.016 135.965 301.112 137.301 301.112C138.509 301.112 139.117 301.848 139.117 303.48V308H140.405V303.016C140.405 301.008 139.373 299.984 137.621 299.984ZM148.319 301.216C147.751 300.44 146.863 299.984 145.735 299.984C143.703 299.984 142.159 301.584 142.159 304.048C142.159 306.376 143.559 308.128 145.735 308.128C146.815 308.128 147.711 307.728 148.319 306.912V308H149.599V296.848H148.319V301.216ZM145.951 306.944C144.479 306.944 143.447 305.752 143.447 304.048C143.447 302.352 144.479 301.168 145.951 301.168C147.415 301.168 148.431 302.352 148.431 304.048C148.431 305.752 147.415 306.944 145.951 306.944ZM159.915 299.984C158.787 299.984 157.899 300.44 157.331 301.216V296.848H156.051V308H157.331V306.912C157.939 307.728 158.835 308.128 159.915 308.128C162.091 308.128 163.491 306.376 163.491 304.048C163.491 301.584 161.947 299.984 159.915 299.984ZM159.699 306.944C158.235 306.944 157.219 305.752 157.219 304.048C157.219 302.352 158.235 301.168 159.699 301.168C161.171 301.168 162.203 302.352 162.203 304.048C162.203 305.752 161.171 306.944 159.699 306.944ZM170.404 304.056C170.404 306.096 169.66 307 168.324 307C167.116 307 166.508 306.264 166.508 304.632V300.112H165.22V305.096C165.22 307.104 166.252 308.128 168.004 308.128C169.012 308.128 169.876 307.768 170.404 306.824V308H171.692V300.112H170.404V304.056ZM176.6 308.128C178.392 308.128 179.56 307.16 179.56 305.688C179.56 303.928 177.976 303.552 176.672 303.24C175.584 302.976 174.96 302.744 174.96 302.064C174.96 301.464 175.568 301.024 176.432 301.024C177.264 301.024 177.928 301.376 178.424 302.136L179.328 301.448C178.712 300.48 177.688 299.984 176.48 299.984C174.856 299.984 173.752 300.944 173.752 302.144C173.752 303.656 175.072 304.064 176.312 304.384C177.472 304.688 178.296 304.928 178.296 305.816C178.296 306.6 177.696 307.056 176.688 307.056C175.624 307.056 174.712 306.52 174.232 305.632L173.344 306.384C174.048 307.488 175.208 308.128 176.6 308.128ZM182.809 298.664V296.848H181.449V298.664H182.809ZM182.769 308V300.112H181.481V308H182.769ZM188.778 299.984C187.77 299.984 186.906 300.36 186.378 301.296V300.112H185.09V308H186.378V304.056C186.378 302.016 187.122 301.112 188.457 301.112C189.666 301.112 190.274 301.848 190.274 303.48V308H191.562V303.016C191.562 301.008 190.53 299.984 188.778 299.984ZM200.356 303.736C200.356 301.84 199.308 299.984 196.884 299.984C194.516 299.984 193.324 301.912 193.324 304.104C193.324 306.32 194.54 308.128 197.012 308.128C198.316 308.128 199.236 307.712 200.116 306.792L199.212 305.992C198.556 306.704 197.908 306.96 197.02 306.96C195.532 306.96 194.66 306 194.612 304.44H200.316C200.34 304.208 200.356 303.952 200.356 303.736ZM194.604 303.432C194.724 302.112 195.532 301.064 196.908 301.064C198.428 301.064 199.132 302.2 199.132 303.28V303.432H194.604ZM204.912 308.128C206.704 308.128 207.872 307.16 207.872 305.688C207.872 303.928 206.288 303.552 204.984 303.24C203.896 302.976 203.272 302.744 203.272 302.064C203.272 301.464 203.88 301.024 204.744 301.024C205.576 301.024 206.24 301.376 206.736 302.136L207.64 301.448C207.024 300.48 206 299.984 204.792 299.984C203.168 299.984 202.064 300.944 202.064 302.144C202.064 303.656 203.384 304.064 204.624 304.384C205.784 304.688 206.608 304.928 206.608 305.816C206.608 306.6 206.008 307.056 205 307.056C203.936 307.056 203.024 306.52 202.544 305.632L201.656 306.384C202.36 307.488 203.52 308.128 204.912 308.128ZM212.553 308.128C214.345 308.128 215.513 307.16 215.513 305.688C215.513 303.928 213.929 303.552 212.625 303.24C211.537 302.976 210.913 302.744 210.913 302.064C210.913 301.464 211.521 301.024 212.385 301.024C213.217 301.024 213.881 301.376 214.377 302.136L215.281 301.448C214.665 300.48 213.641 299.984 212.433 299.984C210.809 299.984 209.705 300.944 209.705 302.144C209.705 303.656 211.025 304.064 212.265 304.384C213.425 304.688 214.249 304.928 214.249 305.816C214.249 306.6 213.649 307.056 212.641 307.056C211.577 307.056 210.665 306.52 210.185 305.632L209.297 306.384C210.001 307.488 211.161 308.128 212.553 308.128ZM224.991 308.128C227.215 308.128 228.807 306.424 228.807 304.048C228.807 301.672 227.223 299.984 224.991 299.984C222.751 299.984 221.167 301.672 221.167 304.048C221.167 306.432 222.759 308.128 224.991 308.128ZM224.991 306.992C223.447 306.992 222.455 305.84 222.455 304.048C222.455 302.264 223.439 301.12 224.991 301.12C226.535 301.12 227.519 302.264 227.519 304.048C227.519 305.84 226.535 306.992 224.991 306.992ZM233.273 308L235.257 301.912L237.241 308H238.433L240.769 300.112H239.393L237.761 306.032L235.825 300.112H234.681L232.737 306.048L231.113 300.112H229.737L232.073 308H233.273ZM246.074 299.984C245.066 299.984 244.202 300.36 243.674 301.296V300.112H242.386V308H243.674V304.056C243.674 302.016 244.418 301.112 245.754 301.112C246.962 301.112 247.57 301.848 247.57 303.48V308H248.858V303.016C248.858 301.008 247.826 299.984 246.074 299.984ZM257.653 303.736C257.653 301.84 256.605 299.984 254.181 299.984C251.812 299.984 250.621 301.912 250.621 304.104C250.621 306.32 251.837 308.128 254.309 308.128C255.613 308.128 256.533 307.712 257.413 306.792L256.509 305.992C255.853 306.704 255.205 306.96 254.317 306.96C252.829 306.96 251.957 306 251.909 304.44H257.613C257.637 304.208 257.653 303.952 257.653 303.736ZM251.901 303.432C252.021 302.112 252.829 301.064 254.205 301.064C255.725 301.064 256.429 302.2 256.429 303.28V303.432H251.901ZM263.158 299.984C262.222 299.984 261.342 300.512 260.886 301.416V300.112H259.59V308H260.878V304.288C260.878 303.416 260.926 303.064 261.014 302.768C261.318 301.68 262.158 301.224 262.957 301.224C263.31 301.224 263.678 301.328 263.934 301.456L264.558 300.336C264.15 300.112 263.646 299.984 263.158 299.984ZM268.334 308.128C270.126 308.128 271.294 307.16 271.294 305.688C271.294 303.928 269.71 303.552 268.406 303.24C267.318 302.976 266.694 302.744 266.694 302.064C266.694 301.464 267.302 301.024 268.166 301.024C268.998 301.024 269.662 301.376 270.158 302.136L271.062 301.448C270.446 300.48 269.422 299.984 268.214 299.984C266.59 299.984 265.486 300.944 265.486 302.144C265.486 303.656 266.806 304.064 268.046 304.384C269.206 304.688 270.03 304.928 270.03 305.816C270.03 306.6 269.43 307.056 268.422 307.056C267.358 307.056 266.446 306.52 265.966 305.632L265.078 306.384C265.782 307.488 266.942 308.128 268.334 308.128Z" fill="#112378"/>
<path d="M5.56579 243.374C5.75046 245.33 6.65772 247.146 8.11033 248.469C9.56293 249.792 11.4565 250.525 13.4211 250.526H14.2105V255.263H11.8421C10.7952 255.263 9.79117 255.679 9.05089 256.419C8.31062 257.16 7.89474 258.164 7.89474 259.211C7.89474 259.42 7.97791 259.621 8.12597 259.769C8.27402 259.917 8.47483 260 8.68421 260H21.3158C21.5252 260 21.726 259.917 21.874 259.769C22.0221 259.621 22.1053 259.42 22.1053 259.211C22.1053 258.692 22.0032 258.179 21.8048 257.7C21.6064 257.221 21.3157 256.786 20.9491 256.419C20.5826 256.053 20.1474 255.762 19.6685 255.564C19.1896 255.365 18.6763 255.263 18.1579 255.263H15.7895V250.526H16.5789C18.5503 250.535 20.4536 249.806 21.9146 248.482C23.3755 247.159 24.2884 245.336 24.4737 243.374C26.0003 243.181 27.4042 242.438 28.4218 241.284C29.4393 240.13 30.0005 238.644 30 237.105V233.947C30 233.738 29.9168 233.537 29.7688 233.389C29.6207 233.241 29.4199 233.158 29.2105 233.158H24.4737V230.789C24.4737 230.58 24.3905 230.379 24.2425 230.231C24.0944 230.083 23.8936 230 23.6842 230H6.31579C6.10641 230 5.9056 230.083 5.75755 230.231C5.60949 230.379 5.52632 230.58 5.52632 230.789V233.158H0.789474C0.580092 233.158 0.379287 233.241 0.231232 233.389C0.0831766 233.537 0 233.738 0 233.947V237.105C0.00065526 238.65 0.567394 240.141 1.59301 241.296C2.61863 242.451 4.03201 243.19 5.56579 243.374ZM24.4737 234.737H28.4211V237.105C28.4199 238.224 28.023 239.306 27.3005 240.16C26.578 241.014 25.5766 241.585 24.4737 241.771V234.737ZM18.1579 256.842C18.6479 256.842 19.1259 256.994 19.526 257.276C19.9262 257.559 20.2288 257.959 20.3921 258.421H9.60789C9.77122 257.959 10.0738 257.559 10.474 257.276C10.8741 256.994 11.3521 256.842 11.8421 256.842H18.1579ZM7.10526 231.579H22.8947V242.632C22.8947 244.307 22.2293 245.913 21.0449 247.098C19.8604 248.282 18.254 248.947 16.5789 248.947H13.4211C11.746 248.947 10.1396 248.282 8.95512 247.098C7.77067 245.913 7.10526 244.307 7.10526 242.632V231.579ZM1.57895 234.737H5.52632V241.771C4.42337 241.585 3.42199 241.014 2.69952 240.16C1.97704 239.306 1.58008 238.224 1.57895 237.105V234.737Z" fill="#F582AE"/>
<path d="M17.2269 235.844C16.2411 235.844 15.4032 236.465 15.0973 237.331C14.7915 236.465 13.9536 235.844 12.9678 235.844C11.7232 235.844 10.7142 236.834 10.7142 238.056C10.7142 241.332 15.0973 243.636 15.0973 243.636C15.0973 243.636 19.4804 241.332 19.4804 238.056C19.4804 236.834 18.4715 235.844 17.2269 235.844Z" fill="#F582AE"/>
<path d="M51.96 135.24C55.128 135.24 57.28 132.928 57.28 129.432C57.28 125.92 55.144 123.608 51.96 123.608C48.808 123.608 46.664 125.928 46.664 129.432C46.664 132.912 48.808 135.24 51.96 135.24ZM51.96 133.392C49.904 133.392 48.584 131.888 48.584 129.432C48.584 126.952 49.904 125.448 51.96 125.448C54.04 125.448 55.344 126.976 55.344 129.432C55.344 131.864 54.04 133.392 51.96 133.392ZM63.955 130.92C63.955 132.736 63.347 133.536 62.171 133.536C61.131 133.536 60.635 132.92 60.635 131.544V127.112H58.787V132.224C58.787 134.096 59.843 135.152 61.667 135.152C62.555 135.152 63.379 134.896 63.955 134.136V135H65.803V127.112H63.955V130.92ZM71.7321 126.96C70.8761 126.96 70.1321 127.408 69.7001 128.112V127.112H67.8361V135H69.6921V131.552C69.6921 130.68 69.7401 130.336 69.8201 130.056C70.0761 129.152 70.7321 128.736 71.4361 128.736C71.8041 128.736 72.1961 128.864 72.4361 129L73.3241 127.392C72.8681 127.12 72.2921 126.96 71.7321 126.96ZM80.5941 135V130.352H82.2821C84.7541 130.352 86.0741 129.2 86.0741 127.064C86.0741 124.928 84.7701 123.848 82.2821 123.848H78.6821V135H80.5941ZM80.5941 125.568H82.0901C83.4581 125.568 84.1541 126 84.1541 127.088C84.1541 128.208 83.3941 128.632 82.0901 128.632H80.5941V125.568ZM92.455 130.92C92.455 132.736 91.847 133.536 90.671 133.536C89.631 133.536 89.135 132.92 89.135 131.544V127.112H87.287V132.224C87.287 134.096 88.343 135.152 90.167 135.152C91.055 135.152 91.879 134.896 92.455 134.136V135H94.303V127.112H92.455V130.92ZM100.232 126.96C99.3761 126.96 98.6321 127.408 98.2001 128.112V127.112H96.3361V135H98.1921V131.552C98.1921 130.68 98.2401 130.336 98.3201 130.056C98.5761 129.152 99.2321 128.736 99.9361 128.736C100.304 128.736 100.696 128.864 100.936 129L101.824 127.392C101.368 127.12 100.792 126.96 100.232 126.96ZM107.335 126.96C106.447 126.96 105.495 127.312 104.927 128.096V127.112H103.087V138.264H104.927V133.992C105.431 134.688 106.367 135.152 107.335 135.152C109.183 135.152 110.655 133.616 110.655 131.064C110.655 128.72 109.383 126.96 107.335 126.96ZM106.775 133.456C105.551 133.456 104.759 132.504 104.759 131.064C104.759 129.616 105.551 128.656 106.775 128.656C107.999 128.656 108.799 129.608 108.799 131.064C108.799 132.512 107.999 133.456 106.775 133.456ZM115.912 135.152C118.184 135.152 119.84 133.416 119.84 131.048C119.84 128.664 118.192 126.96 115.912 126.96C113.616 126.96 111.968 128.664 111.968 131.048C111.968 133.432 113.624 135.152 115.912 135.152ZM115.912 133.528C114.608 133.528 113.816 132.592 113.816 131.048C113.816 129.504 114.6 128.584 115.912 128.584C117.208 128.584 117.992 129.504 117.992 131.048C117.992 132.592 117.208 133.528 115.912 133.528ZM124.279 135.152C126.183 135.152 127.447 134.104 127.447 132.544C127.447 130.72 125.783 130.32 124.503 130.008C123.487 129.76 123.039 129.576 123.039 129.144C123.039 128.736 123.503 128.44 124.159 128.44C124.871 128.44 125.463 128.736 125.951 129.36L127.231 128.36C126.551 127.44 125.487 126.96 124.231 126.96C122.487 126.96 121.311 128.008 121.311 129.264C121.311 130.888 122.767 131.328 123.991 131.656C125.063 131.952 125.631 132.16 125.631 132.736C125.631 133.296 125.207 133.624 124.407 133.624C123.535 133.624 122.711 133.184 122.183 132.408L120.919 133.504C121.767 134.568 122.935 135.152 124.279 135.152ZM136.024 130.928C136.024 128.768 134.856 126.96 132.408 126.96C129.816 126.96 128.688 129.016 128.688 131.096C128.688 133.224 129.848 135.152 132.536 135.152C133.888 135.152 134.904 134.68 135.76 133.744L134.48 132.608C133.928 133.24 133.288 133.48 132.552 133.48C131.288 133.48 130.608 132.76 130.536 131.664H135.984C136.008 131.384 136.024 131.152 136.024 130.928ZM130.528 130.224C130.648 129.32 131.256 128.496 132.448 128.496C133.576 128.496 134.264 129.272 134.272 130.224H130.528Z" fill="#F582AE"/>
<path d="M51.36 172V162.048H55.128V160.848H46.232V162.048H50.008V172H51.36ZM58.4438 172.128C60.6678 172.128 62.2598 170.424 62.2598 168.048C62.2598 165.672 60.6758 163.984 58.4438 163.984C56.2038 163.984 54.6198 165.672 54.6198 168.048C54.6198 170.432 56.2118 172.128 58.4438 172.128ZM58.4438 170.992C56.8998 170.992 55.9078 169.84 55.9078 168.048C55.9078 166.264 56.8918 165.12 58.4438 165.12C59.9878 165.12 60.9718 166.264 60.9718 168.048C60.9718 169.84 59.9878 170.992 58.4438 170.992ZM74.8039 164.112H73.0839L69.6119 167.824V160.848H68.3239V172H69.6119V169.432L71.0439 167.896L73.7079 172H75.2359L71.9799 167.024L74.8039 164.112ZM82.7931 167.736C82.7931 165.84 81.7451 163.984 79.3211 163.984C76.9531 163.984 75.7611 165.912 75.7611 168.104C75.7611 170.32 76.9771 172.128 79.4491 172.128C80.7531 172.128 81.6731 171.712 82.5531 170.792L81.6491 169.992C80.9931 170.704 80.3451 170.96 79.4571 170.96C77.9691 170.96 77.0971 170 77.0491 168.44H82.7531C82.7771 168.208 82.7931 167.952 82.7931 167.736ZM77.0411 167.432C77.1611 166.112 77.9691 165.064 79.3451 165.064C80.8651 165.064 81.5691 166.2 81.5691 167.28V167.432H77.0411ZM91.3556 167.736C91.3556 165.84 90.3076 163.984 87.8836 163.984C85.5156 163.984 84.3236 165.912 84.3236 168.104C84.3236 170.32 85.5396 172.128 88.0116 172.128C89.3156 172.128 90.2356 171.712 91.1156 170.792L90.2116 169.992C89.5556 170.704 88.9076 170.96 88.0196 170.96C86.5316 170.96 85.6596 170 85.6116 168.44H91.3156C91.3396 168.208 91.3556 167.952 91.3556 167.736ZM85.6036 167.432C85.7236 166.112 86.5316 165.064 87.9076 165.064C89.4276 165.064 90.1316 166.2 90.1316 167.28V167.432H85.6036ZM97.1646 163.984C96.0846 163.984 95.1886 164.384 94.5806 165.2V164.112H93.3006V175.264H94.5806V170.896C95.1486 171.672 96.0366 172.128 97.1646 172.128C99.1966 172.128 100.741 170.528 100.741 168.064C100.741 165.736 99.3406 163.984 97.1646 163.984ZM96.9486 170.944C95.4846 170.944 94.4686 169.76 94.4686 168.064C94.4686 166.36 95.4846 165.168 96.9486 165.168C98.4206 165.168 99.4526 166.36 99.4526 168.064C99.4526 169.76 98.4206 170.944 96.9486 170.944ZM108.368 172.128C108.672 172.128 109.064 172.064 109.48 171.92V170.808C109.224 170.896 108.992 170.936 108.792 170.936C108.344 170.936 108.072 170.68 108.072 170.04V160.848H106.792V170.28C106.792 171.568 107.424 172.128 108.368 172.128ZM114.147 172.128C116.371 172.128 117.963 170.424 117.963 168.048C117.963 165.672 116.379 163.984 114.147 163.984C111.907 163.984 110.323 165.672 110.323 168.048C110.323 170.432 111.915 172.128 114.147 172.128ZM114.147 170.992C112.603 170.992 111.611 169.84 111.611 168.048C111.611 166.264 112.595 165.12 114.147 165.12C115.691 165.12 116.675 166.264 116.675 168.048C116.675 169.84 115.691 170.992 114.147 170.992ZM123.166 172.128C124.67 172.128 125.822 171.376 126.35 169.928L125.214 169.48C124.894 170.416 124.206 171 123.166 171C121.566 171 120.83 169.592 120.83 168.048C120.83 166.52 121.566 165.112 123.166 165.112C124.206 165.112 124.894 165.696 125.214 166.632L126.35 166.184C125.822 164.736 124.67 163.984 123.166 163.984C120.846 163.984 119.542 165.832 119.542 168.048C119.542 170.28 120.846 172.128 123.166 172.128ZM131.234 163.984C129.93 163.984 128.778 164.432 127.898 165.488L128.834 166.264C129.546 165.416 130.258 165.112 131.146 165.112C132.49 165.112 133.178 165.808 133.178 167.072V167.32H130.738C129.874 167.32 129.106 167.48 128.562 167.872C128.026 168.248 127.706 168.84 127.706 169.656C127.706 171.144 128.818 172.128 130.634 172.128C131.674 172.128 132.594 171.76 133.194 170.704L133.274 172H134.458V167.072C134.458 165.104 133.298 163.984 131.234 163.984ZM130.746 171.088C129.65 171.088 128.994 170.528 128.994 169.672C128.994 169.216 129.17 168.896 129.474 168.672C129.818 168.432 130.33 168.336 130.914 168.336H133.178V168.664C133.178 170.056 132.074 171.088 130.746 171.088ZM138.009 172.128C138.313 172.128 138.705 172.064 139.121 171.92V170.808C138.865 170.896 138.633 170.936 138.433 170.936C137.985 170.936 137.713 170.68 137.713 170.04V160.848H136.433V170.28C136.433 171.568 137.065 172.128 138.009 172.128ZM142.399 172.128C142.703 172.128 143.095 172.064 143.511 171.92V170.808C143.255 170.896 143.023 170.936 142.823 170.936C142.375 170.936 142.103 170.68 142.103 170.04V160.848H140.823V170.28C140.823 171.568 141.455 172.128 142.399 172.128ZM146.719 175.256L151.263 164.112H149.863L147.495 170.344L145.151 164.112H143.735L146.815 171.64L145.327 175.256H146.719ZM160.366 172.128C162.59 172.128 164.182 170.424 164.182 168.048C164.182 165.672 162.598 163.984 160.366 163.984C158.126 163.984 156.542 165.672 156.542 168.048C156.542 170.432 158.134 172.128 160.366 172.128ZM160.366 170.992C158.822 170.992 157.83 169.84 157.83 168.048C157.83 166.264 158.814 165.12 160.366 165.12C161.91 165.12 162.894 166.264 162.894 168.048C162.894 169.84 161.91 170.992 160.366 170.992ZM168.648 172L170.632 165.912L172.616 172H173.808L176.144 164.112H174.768L173.136 170.032L171.2 164.112H170.056L168.112 170.048L166.488 164.112H165.112L167.448 172H168.648ZM181.449 163.984C180.441 163.984 179.577 164.36 179.049 165.296V164.112H177.761V172H179.049V168.056C179.049 166.016 179.793 165.112 181.129 165.112C182.337 165.112 182.945 165.848 182.945 167.48V172H184.233V167.016C184.233 165.008 183.201 163.984 181.449 163.984ZM193.028 167.736C193.028 165.84 191.98 163.984 189.556 163.984C187.188 163.984 185.996 165.912 185.996 168.104C185.996 170.32 187.212 172.128 189.684 172.128C190.988 172.128 191.908 171.712 192.788 170.792L191.884 169.992C191.228 170.704 190.58 170.96 189.692 170.96C188.204 170.96 187.332 170 187.284 168.44H192.988C193.012 168.208 193.028 167.952 193.028 167.736ZM187.276 167.432C187.396 166.112 188.204 165.064 189.58 165.064C191.1 165.064 191.804 166.2 191.804 167.28V167.432H187.276ZM200.71 165.216C200.142 164.44 199.254 163.984 198.126 163.984C196.094 163.984 194.55 165.584 194.55 168.048C194.55 170.376 195.95 172.128 198.126 172.128C199.206 172.128 200.102 171.728 200.71 170.912V172H201.99V160.848H200.71V165.216ZM198.342 170.944C196.87 170.944 195.838 169.752 195.838 168.048C195.838 166.352 196.87 165.168 198.342 165.168C199.806 165.168 200.822 166.352 200.822 168.048C200.822 169.752 199.806 170.944 198.342 170.944ZM211.209 172.128C213.001 172.128 214.169 171.16 214.169 169.688C214.169 167.928 212.585 167.552 211.281 167.24C210.193 166.976 209.569 166.744 209.569 166.064C209.569 165.464 210.177 165.024 211.041 165.024C211.873 165.024 212.537 165.376 213.033 166.136L213.937 165.448C213.321 164.48 212.297 163.984 211.089 163.984C209.465 163.984 208.361 164.944 208.361 166.144C208.361 167.656 209.681 168.064 210.921 168.384C212.081 168.688 212.905 168.928 212.905 169.816C212.905 170.6 212.305 171.056 211.297 171.056C210.233 171.056 209.321 170.52 208.841 169.632L207.953 170.384C208.657 171.488 209.817 172.128 211.209 172.128ZM224.25 163.984C223.298 163.984 222.386 164.312 221.778 165.184C221.306 164.296 220.466 163.984 219.538 163.984C218.65 163.984 217.81 164.344 217.306 165.256V164.112H216.074V172H217.37V167.744C217.37 166.008 218.066 165.112 219.258 165.112C220.338 165.112 220.922 165.848 220.922 167.408V172H222.21V167.744C222.21 166 222.898 165.112 224.066 165.112C225.306 165.112 225.77 166.016 225.77 167.512V172H227.066V167.216C227.066 165.44 226.306 163.984 224.25 163.984ZM232.312 163.984C231.008 163.984 229.856 164.432 228.976 165.488L229.912 166.264C230.624 165.416 231.336 165.112 232.224 165.112C233.568 165.112 234.256 165.808 234.256 167.072V167.32H231.816C230.952 167.32 230.184 167.48 229.64 167.872C229.104 168.248 228.784 168.84 228.784 169.656C228.784 171.144 229.896 172.128 231.712 172.128C232.752 172.128 233.672 171.76 234.272 170.704L234.352 172H235.536V167.072C235.536 165.104 234.376 163.984 232.312 163.984ZM231.824 171.088C230.728 171.088 230.072 170.528 230.072 169.672C230.072 169.216 230.248 168.896 230.552 168.672C230.896 168.432 231.408 168.336 231.992 168.336H234.256V168.664C234.256 170.056 233.152 171.088 231.824 171.088ZM239.087 172.128C239.391 172.128 239.783 172.064 240.199 171.92V170.808C239.943 170.896 239.711 170.936 239.511 170.936C239.063 170.936 238.791 170.68 238.791 170.04V160.848H237.511V170.28C237.511 171.568 238.143 172.128 239.087 172.128ZM243.477 172.128C243.781 172.128 244.173 172.064 244.589 171.92V170.808C244.333 170.896 244.101 170.936 243.901 170.936C243.453 170.936 243.181 170.68 243.181 170.04V160.848H241.901V170.28C241.901 171.568 242.533 172.128 243.477 172.128ZM254.321 163.984C253.193 163.984 252.305 164.44 251.737 165.216V160.848H250.457V172H251.737V170.912C252.345 171.728 253.241 172.128 254.321 172.128C256.497 172.128 257.897 170.376 257.897 168.048C257.897 165.584 256.353 163.984 254.321 163.984ZM254.105 170.944C252.641 170.944 251.625 169.752 251.625 168.048C251.625 166.352 252.641 165.168 254.105 165.168C255.577 165.168 256.609 166.352 256.609 168.048C256.609 169.752 255.577 170.944 254.105 170.944ZM264.81 168.056C264.81 170.096 264.066 171 262.73 171C261.522 171 260.914 170.264 260.914 168.632V164.112H259.626V169.096C259.626 171.104 260.658 172.128 262.41 172.128C263.418 172.128 264.282 171.768 264.81 170.824V172H266.098V164.112H264.81V168.056ZM271.006 172.128C272.798 172.128 273.966 171.16 273.966 169.688C273.966 167.928 272.382 167.552 271.078 167.24C269.99 166.976 269.366 166.744 269.366 166.064C269.366 165.464 269.974 165.024 270.838 165.024C271.67 165.024 272.334 165.376 272.83 166.136L273.734 165.448C273.118 164.48 272.094 163.984 270.886 163.984C269.262 163.984 268.158 164.944 268.158 166.144C268.158 167.656 269.478 168.064 270.718 168.384C271.878 168.688 272.702 168.928 272.702 169.816C272.702 170.6 272.102 171.056 271.094 171.056C270.03 171.056 269.118 170.52 268.638 169.632L267.75 170.384C268.454 171.488 269.614 172.128 271.006 172.128ZM277.215 162.664V160.848H275.855V162.664H277.215ZM277.175 172V164.112H275.887V172H277.175ZM283.184 163.984C282.176 163.984 281.312 164.36 280.784 165.296V164.112H279.496V172H280.784V168.056C280.784 166.016 281.528 165.112 282.864 165.112C284.072 165.112 284.68 165.848 284.68 167.48V172H285.968V167.016C285.968 165.008 284.936 163.984 283.184 163.984ZM294.762 167.736C294.762 165.84 293.714 163.984 291.29 163.984C288.922 163.984 287.73 165.912 287.73 168.104C287.73 170.32 288.946 172.128 291.418 172.128C292.722 172.128 293.642 171.712 294.522 170.792L293.618 169.992C292.962 170.704 292.314 170.96 291.426 170.96C289.938 170.96 289.066 170 289.018 168.44H294.722C294.746 168.208 294.762 167.952 294.762 167.736ZM289.01 167.432C289.13 166.112 289.938 165.064 291.314 165.064C292.834 165.064 293.538 166.2 293.538 167.28V167.432H289.01ZM299.319 172.128C301.111 172.128 302.279 171.16 302.279 169.688C302.279 167.928 300.695 167.552 299.391 167.24C298.303 166.976 297.679 166.744 297.679 166.064C297.679 165.464 298.287 165.024 299.151 165.024C299.983 165.024 300.647 165.376 301.143 166.136L302.047 165.448C301.431 164.48 300.407 163.984 299.199 163.984C297.575 163.984 296.471 164.944 296.471 166.144C296.471 167.656 297.791 168.064 299.031 168.384C300.191 168.688 301.015 168.928 301.015 169.816C301.015 170.6 300.415 171.056 299.407 171.056C298.343 171.056 297.431 170.52 296.951 169.632L296.063 170.384C296.767 171.488 297.927 172.128 299.319 172.128ZM306.959 172.128C308.751 172.128 309.919 171.16 309.919 169.688C309.919 167.928 308.335 167.552 307.031 167.24C305.943 166.976 305.319 166.744 305.319 166.064C305.319 165.464 305.927 165.024 306.791 165.024C307.623 165.024 308.287 165.376 308.783 166.136L309.687 165.448C309.071 164.48 308.047 163.984 306.839 163.984C305.215 163.984 304.111 164.944 304.111 166.144C304.111 167.656 305.431 168.064 306.671 168.384C307.831 168.688 308.655 168.928 308.655 169.816C308.655 170.6 308.055 171.056 307.047 171.056C305.983 171.056 305.071 170.52 304.591 169.632L303.703 170.384C304.407 171.488 305.567 172.128 306.959 172.128ZM318.371 167.736C318.371 165.84 317.323 163.984 314.899 163.984C312.531 163.984 311.339 165.912 311.339 168.104C311.339 170.32 312.555 172.128 315.027 172.128C316.331 172.128 317.251 171.712 318.131 170.792L317.227 169.992C316.571 170.704 315.923 170.96 315.035 170.96C313.547 170.96 312.675 170 312.627 168.44H318.331C318.355 168.208 318.371 167.952 318.371 167.736ZM312.619 167.432C312.739 166.112 313.547 165.064 314.923 165.064C316.443 165.064 317.147 166.2 317.147 167.28V167.432H312.619ZM322.928 172.128C324.72 172.128 325.888 171.16 325.888 169.688C325.888 167.928 324.304 167.552 323 167.24C321.912 166.976 321.288 166.744 321.288 166.064C321.288 165.464 321.896 165.024 322.76 165.024C323.592 165.024 324.256 165.376 324.752 166.136L325.656 165.448C325.04 164.48 324.016 163.984 322.808 163.984C321.184 163.984 320.08 164.944 320.08 166.144C320.08 167.656 321.4 168.064 322.64 168.384C323.8 168.688 324.624 168.928 324.624 169.816C324.624 170.6 324.024 171.056 323.016 171.056C321.952 171.056 321.04 170.52 320.56 169.632L319.672 170.384C320.376 171.488 321.536 172.128 322.928 172.128ZM335.078 163.984C333.774 163.984 332.622 164.432 331.742 165.488L332.678 166.264C333.39 165.416 334.102 165.112 334.99 165.112C336.334 165.112 337.022 165.808 337.022 167.072V167.32H334.582C333.718 167.32 332.95 167.48 332.406 167.872C331.87 168.248 331.55 168.84 331.55 169.656C331.55 171.144 332.662 172.128 334.478 172.128C335.518 172.128 336.438 171.76 337.038 170.704L337.118 172H338.302V167.072C338.302 165.104 337.142 163.984 335.078 163.984ZM334.59 171.088C333.494 171.088 332.838 170.528 332.838 169.672C332.838 169.216 333.014 168.896 333.318 168.672C333.662 168.432 334.174 168.336 334.758 168.336H337.022V168.664C337.022 170.056 335.918 171.088 334.59 171.088ZM344.316 164.112H342.476V161.248L341.18 161.976V164.112H339.524V165.128H341.18V170.024C341.18 171.504 341.988 172.128 343.108 172.128C343.5 172.128 343.9 172.056 344.316 171.92V170.912C343.98 171.016 343.684 171.064 343.444 171.064C342.732 171.064 342.476 170.584 342.476 169.68V165.128H344.316V164.112ZM354.176 164.112H352.336V161.248L351.04 161.976V164.112H349.384V165.128H351.04V170.024C351.04 171.504 351.848 172.128 352.968 172.128C353.36 172.128 353.76 172.056 354.176 171.92V170.912C353.84 171.016 353.544 171.064 353.304 171.064C352.592 171.064 352.336 170.584 352.336 169.68V165.128H354.176V164.112ZM359.59 163.984C358.55 163.984 357.71 164.36 357.19 165.288V160.848H355.902V172H357.19V168.056C357.19 166.088 357.886 165.112 359.27 165.112C360.502 165.112 361.086 165.88 361.086 167.48V172H362.374V167.016C362.374 165.08 361.39 163.984 359.59 163.984ZM371.184 167.736C371.184 165.84 370.136 163.984 367.712 163.984C365.344 163.984 364.152 165.912 364.152 168.104C364.152 170.32 365.368 172.128 367.84 172.128C369.144 172.128 370.064 171.712 370.944 170.792L370.04 169.992C369.384 170.704 368.736 170.96 367.848 170.96C366.36 170.96 365.488 170 365.44 168.44H371.144C371.168 168.208 371.184 167.952 371.184 167.736ZM365.432 167.432C365.552 166.112 366.36 165.064 367.736 165.064C369.256 165.064 369.96 166.2 369.96 167.28V167.432H365.432ZM380.934 163.984C379.894 163.984 379.054 164.36 378.534 165.288V160.848H377.246V172H378.534V168.056C378.534 166.088 379.23 165.112 380.614 165.112C381.846 165.112 382.43 165.88 382.43 167.48V172H383.718V167.016C383.718 165.08 382.734 163.984 380.934 163.984ZM392.528 167.736C392.528 165.84 391.48 163.984 389.056 163.984C386.688 163.984 385.496 165.912 385.496 168.104C385.496 170.32 386.712 172.128 389.184 172.128C390.488 172.128 391.408 171.712 392.288 170.792L391.384 169.992C390.728 170.704 390.08 170.96 389.192 170.96C387.704 170.96 386.832 170 386.784 168.44H392.488C392.512 168.208 392.528 167.952 392.528 167.736ZM386.776 167.432C386.896 166.112 387.704 165.064 389.08 165.064C390.6 165.064 391.304 166.2 391.304 167.28V167.432H386.776ZM397.406 163.984C396.102 163.984 394.95 164.432 394.07 165.488L395.006 166.264C395.718 165.416 396.43 165.112 397.318 165.112C398.662 165.112 399.35 165.808 399.35 167.072V167.32H396.91C396.046 167.32 395.278 167.48 394.734 167.872C394.198 168.248 393.878 168.84 393.878 169.656C393.878 171.144 394.99 172.128 396.806 172.128C397.846 172.128 398.766 171.76 399.366 170.704L399.446 172H400.63V167.072C400.63 165.104 399.47 163.984 397.406 163.984ZM396.918 171.088C395.822 171.088 395.166 170.528 395.166 169.672C395.166 169.216 395.342 168.896 395.646 168.672C395.99 168.432 396.502 168.336 397.086 168.336H399.35V168.664C399.35 170.056 398.246 171.088 396.918 171.088ZM406.408 163.984C405.472 163.984 404.592 164.512 404.136 165.416V164.112H402.84V172H404.128V168.288C404.128 167.416 404.176 167.064 404.264 166.768C404.568 165.68 405.408 165.224 406.207 165.224C406.56 165.224 406.928 165.328 407.184 165.456L407.808 164.336C407.4 164.112 406.896 163.984 406.408 163.984ZM413.301 164.112H411.461V161.248L410.165 161.976V164.112H408.509V165.128H410.165V170.024C410.165 171.504 410.973 172.128 412.093 172.128C412.485 172.128 412.885 172.056 413.301 171.92V170.912C412.965 171.016 412.669 171.064 412.429 171.064C411.717 171.064 411.461 170.584 411.461 169.68V165.128H413.301V164.112ZM422.6 172.128C424.824 172.128 426.416 170.424 426.416 168.048C426.416 165.672 424.832 163.984 422.6 163.984C420.36 163.984 418.776 165.672 418.776 168.048C418.776 170.432 420.368 172.128 422.6 172.128ZM422.6 170.992C421.056 170.992 420.064 169.84 420.064 168.048C420.064 166.264 421.048 165.12 422.6 165.12C424.144 165.12 425.128 166.264 425.128 168.048C425.128 169.84 424.144 170.992 422.6 170.992ZM430.046 172V165.128H431.894V164.112H430.046V163.072C430.046 162.256 430.382 161.8 431.086 161.8C431.398 161.8 431.662 161.888 431.918 162.016L432.334 161.032C431.942 160.84 431.526 160.72 430.95 160.72C429.702 160.72 428.766 161.312 428.766 163.064V164.112H427.102V165.128H428.758V172H430.046ZM50.416 193.128C51.92 193.128 53.072 192.376 53.6 190.928L52.464 190.48C52.144 191.416 51.456 192 50.416 192C48.816 192 48.08 190.592 48.08 189.048C48.08 187.52 48.816 186.112 50.416 186.112C51.456 186.112 52.144 186.696 52.464 187.632L53.6 187.184C53.072 185.736 51.92 184.984 50.416 184.984C48.096 184.984 46.792 186.832 46.792 189.048C46.792 191.28 48.096 193.128 50.416 193.128ZM58.6781 193.128C60.9021 193.128 62.4941 191.424 62.4941 189.048C62.4941 186.672 60.9101 184.984 58.6781 184.984C56.4381 184.984 54.8541 186.672 54.8541 189.048C54.8541 191.432 56.4461 193.128 58.6781 193.128ZM58.6781 191.992C57.1341 191.992 56.1421 190.84 56.1421 189.048C56.1421 187.264 57.1261 186.12 58.6781 186.12C60.2221 186.12 61.2061 187.264 61.2061 189.048C61.2061 190.84 60.2221 191.992 58.6781 191.992ZM72.6093 184.984C71.6573 184.984 70.7453 185.312 70.1373 186.184C69.6653 185.296 68.8253 184.984 67.8973 184.984C67.0093 184.984 66.1693 185.344 65.6653 186.256V185.112H64.4333V193H65.7293V188.744C65.7293 187.008 66.4253 186.112 67.6173 186.112C68.6973 186.112 69.2813 186.848 69.2813 188.408V193H70.5693V188.744C70.5693 187 71.2573 186.112 72.4253 186.112C73.6653 186.112 74.1293 187.016 74.1293 188.512V193H75.4253V188.216C75.4253 186.44 74.6653 184.984 72.6093 184.984ZM85.828 184.984C84.876 184.984 83.964 185.312 83.356 186.184C82.884 185.296 82.044 184.984 81.116 184.984C80.228 184.984 79.388 185.344 78.884 186.256V185.112H77.652V193H78.948V188.744C78.948 187.008 79.644 186.112 80.836 186.112C81.916 186.112 82.5 186.848 82.5 188.408V193H83.788V188.744C83.788 187 84.476 186.112 85.644 186.112C86.884 186.112 87.348 187.016 87.348 188.512V193H88.644V188.216C88.644 186.44 87.884 184.984 85.828 184.984ZM97.4338 188.736C97.4338 186.84 96.3858 184.984 93.9618 184.984C91.5938 184.984 90.4018 186.912 90.4018 189.104C90.4018 191.32 91.6178 193.128 94.0898 193.128C95.3938 193.128 96.3138 192.712 97.1938 191.792L96.2898 190.992C95.6338 191.704 94.9858 191.96 94.0978 191.96C92.6098 191.96 91.7378 191 91.6898 189.44H97.3938C97.4178 189.208 97.4338 188.952 97.4338 188.736ZM91.6818 188.432C91.8018 187.112 92.6098 186.064 93.9858 186.064C95.5058 186.064 96.2098 187.2 96.2098 188.28V188.432H91.6818ZM102.939 184.984C102.003 184.984 101.123 185.512 100.667 186.416V185.112H99.3708V193H100.659V189.288C100.659 188.416 100.707 188.064 100.795 187.768C101.099 186.68 101.939 186.224 102.739 186.224C103.091 186.224 103.459 186.328 103.715 186.456L104.339 185.336C103.931 185.112 103.427 184.984 102.939 184.984ZM108.275 193.128C109.779 193.128 110.931 192.376 111.459 190.928L110.323 190.48C110.003 191.416 109.315 192 108.275 192C106.675 192 105.939 190.592 105.939 189.048C105.939 187.52 106.675 186.112 108.275 186.112C109.315 186.112 110.003 186.696 110.323 187.632L111.459 187.184C110.931 185.736 109.779 184.984 108.275 184.984C105.955 184.984 104.651 186.832 104.651 189.048C104.651 191.28 105.955 193.128 108.275 193.128ZM119.778 188.736C119.778 186.84 118.73 184.984 116.306 184.984C113.938 184.984 112.746 186.912 112.746 189.104C112.746 191.32 113.962 193.128 116.434 193.128C117.738 193.128 118.658 192.712 119.538 191.792L118.634 190.992C117.978 191.704 117.33 191.96 116.442 191.96C114.954 191.96 114.082 191 114.034 189.44H119.738C119.762 189.208 119.778 188.952 119.778 188.736ZM114.026 188.432C114.146 187.112 114.954 186.064 116.33 186.064C117.85 186.064 118.554 187.2 118.554 188.28V188.432H114.026Z" fill="#112378"/>
<path d="M4.77703 127.565C4.77703 127.516 4.77703 127.516 4.77703 127.468V119.919C4.77703 118.166 6.27928 116.753 8.14414 116.753C8.86937 116.753 9.54279 116.948 10.0608 117.338C10.4752 116.023 11.7703 115 13.2725 115C14.8266 115 16.1734 116.023 16.536 117.386C17.0541 117.045 17.7275 116.851 18.4527 116.851C20.0068 116.851 21.3536 117.873 21.7162 119.237C22.2342 118.896 22.9077 118.701 23.6329 118.701C25.4977 118.701 27 120.114 27 121.867V129.416C27 129.513 27 129.61 27 129.708V130C27 136.38 25.8604 139.107 25.0315 141.104C24.5653 142.273 24.2027 143.101 24.2027 144.269C24.2027 144.659 23.8401 145 23.4257 145C23.0113 145 22.6487 144.659 22.6487 144.269C22.6487 142.808 23.0631 141.786 23.5811 140.568C24.2545 138.912 25.1869 136.721 25.3941 132.094C24.8761 132.386 24.3063 132.532 23.6329 132.532C22.0788 132.532 20.732 131.51 20.3694 130.146C19.8514 130.487 19.1779 130.682 18.4527 130.682C17.1577 130.682 16.018 130 15.5 128.977C14.5676 129.464 13.3761 129.708 11.7185 129.756V131.218C15.3964 131.802 16.8987 136.623 16.9505 136.818C17.0541 137.208 16.8468 137.597 16.4324 137.744C16.018 137.841 15.6036 137.646 15.4482 137.256C15.4482 137.208 13.9977 132.63 10.8896 132.63C10.4752 132.63 10.1126 132.289 10.1126 131.899V129.026C10.1126 128.831 10.2162 128.636 10.3198 128.49C10.4752 128.344 10.6824 128.247 10.8896 128.295C13.1171 128.295 14.464 128.003 15.2928 127.273C15.2928 127.224 15.3446 127.224 15.3446 127.224C15.9144 126.688 16.2252 125.86 16.277 124.74H15.8108C15.8108 124.74 15.8108 124.74 15.759 124.74C15.759 124.74 15.759 124.74 15.7072 124.74H9.28378C8.71396 124.74 8.19595 124.984 7.88514 125.471L7.83333 125.519C7.21171 126.25 5.55405 128.393 5.55405 129.951C5.55405 136.039 6.64189 138.62 7.41892 140.519C7.93694 141.737 8.35135 142.76 8.35135 144.221C8.35135 144.61 7.98874 144.951 7.57433 144.951C7.15991 144.951 6.7973 144.61 6.7973 144.221C6.7973 143.052 6.43469 142.224 5.96847 141.055C5.13964 139.058 4 136.331 4 129.951C4.0518 129.221 4.36261 128.344 4.77703 127.565ZM15.0338 118.214C15.0338 117.289 14.205 116.51 13.2207 116.51C12.2365 116.51 11.4077 117.289 11.4077 118.214V119.968V123.377H15.0338V120.065V118.214ZM21.768 129.416C21.768 130.341 22.5968 131.12 23.5811 131.12C24.5135 131.12 25.2905 130.438 25.3423 129.562V129.416C25.3423 129.367 25.3423 129.318 25.3423 129.269V121.867C25.3423 120.942 24.5135 120.162 23.5293 120.162C22.545 120.162 21.7162 120.942 21.7162 121.867V127.565V129.416H21.768ZM18.4009 129.269C19.3851 129.269 20.214 128.49 20.214 127.565V121.867V120.016C20.214 119.091 19.3851 118.312 18.4009 118.312C17.4167 118.312 16.5878 119.091 16.5878 120.016V123.328H17.1059C17.3131 123.328 17.5203 123.425 17.6757 123.523C17.8311 123.669 17.8829 123.864 17.8829 124.058C17.8829 125.812 17.4685 127.127 16.6914 128.052C16.8987 128.782 17.6239 129.269 18.4009 129.269ZM9.38739 123.377H9.90541V119.968C9.90541 119.042 9.07658 118.263 8.09234 118.263C7.10811 118.263 6.27928 119.042 6.27928 119.968V125.179C6.48649 124.935 6.59009 124.789 6.69369 124.692C7.31532 123.864 8.29955 123.377 9.38739 123.377Z" fill="#F582AE"/>
</svg>
