<svg width="34" height="24" viewBox="0 0 34 24" fill="none" xmlns="http://www.w3.org/2000/svg">
<path d="M10.8623 0.434673C10.9674 0.305685 11.0977 0.200526 11.2448 0.125898C11.3919 0.0512711 11.5526 0.00881347 11.7167 0.00123231C11.8807 -0.00634885 12.0445 0.0211128 12.1976 0.0818665C12.3507 0.14262 12.4897 0.235333 12.6058 0.354094C12.7219 0.472855 12.8126 0.615059 12.872 0.771639C12.9314 0.92822 12.9582 1.09574 12.9508 1.26352C12.9434 1.43131 12.9019 1.59567 12.8289 1.74613C12.756 1.89659 12.6531 2.02986 12.527 2.13742L4.0333 10.8351H32.1082C32.4113 10.8515 32.6967 10.9862 32.9055 11.2115C33.1144 11.4367 33.2308 11.7353 33.2308 12.0457C33.2308 12.3561 33.1144 12.6547 32.9055 12.88C32.6967 13.1052 32.4113 13.2399 32.1082 13.2564H4.0333L12.5404 21.9438C12.7545 22.1732 12.8739 22.4781 12.8739 22.7952C12.8739 23.1123 12.7545 23.4172 12.5404 23.6466C12.4312 23.7586 12.3014 23.8475 12.1586 23.9081C12.0158 23.9688 11.8626 24 11.708 24C11.5533 24 11.4002 23.9688 11.2573 23.9081C11.1145 23.8475 10.9848 23.7586 10.8756 23.6466L0.354122 12.8852C0.242138 12.7749 0.153057 12.6427 0.0922089 12.4964C0.0313606 12.3501 0 12.1928 0 12.0338C0 11.8748 0.0313606 11.7175 0.0922089 11.5712C0.153057 11.4249 0.242138 11.2927 0.354122 11.1824L10.8623 0.434673Z" fill="#112378"/>
</svg>
