<svg width="30" height="30" viewBox="0 0 30 30" fill="none" xmlns="http://www.w3.org/2000/svg">
<path d="M5.56579 13.3737C5.75046 15.3295 6.65772 17.1463 8.11033 18.469C9.56293 19.7916 11.4565 20.5252 13.4211 20.5263H14.2105V25.2632H11.8421C10.7952 25.2632 9.79117 25.679 9.05089 26.4193C8.31062 27.1596 7.89474 28.1636 7.89474 29.2105C7.89474 29.4199 7.97791 29.6207 8.12597 29.7688C8.27402 29.9168 8.47483 30 8.68421 30H21.3158C21.5252 30 21.726 29.9168 21.874 29.7688C22.0221 29.6207 22.1053 29.4199 22.1053 29.2105C22.1053 28.6922 22.0032 28.1789 21.8048 27.6999C21.6064 27.221 21.3157 26.7859 20.9491 26.4193C20.5826 26.0528 20.1474 25.762 19.6685 25.5636C19.1896 25.3653 18.6763 25.2632 18.1579 25.2632H15.7895V20.5263H16.5789C18.5503 20.535 20.4536 19.8059 21.9146 18.4823C23.3755 17.1587 24.2884 15.3363 24.4737 13.3737C26.0003 13.1813 27.4042 12.4383 28.4218 11.2841C29.4393 10.1299 30.0005 8.64396 30 7.10526V3.94737C30 3.73799 29.9168 3.53718 29.7688 3.38913C29.6207 3.24107 29.4199 3.15789 29.2105 3.15789H24.4737V0.789474C24.4737 0.580092 24.3905 0.379287 24.2425 0.231232C24.0944 0.0831766 23.8936 0 23.6842 0H6.31579C6.10641 0 5.9056 0.0831766 5.75755 0.231232C5.60949 0.379287 5.52632 0.580092 5.52632 0.789474V3.15789H0.789474C0.580092 3.15789 0.379287 3.24107 0.231232 3.38913C0.0831766 3.53718 0 3.73799 0 3.94737V7.10526C0.00065526 8.64997 0.567394 10.1409 1.59301 11.296C2.61863 12.4511 4.03201 13.1903 5.56579 13.3737ZM24.4737 4.73684H28.4211V7.10526C28.4199 8.22385 28.023 9.30595 27.3005 10.1599C26.578 11.0139 25.5766 11.5846 24.4737 11.7711V4.73684ZM18.1579 26.8421C18.6479 26.8419 19.1259 26.9936 19.526 27.2764C19.9262 27.5592 20.2288 27.9591 20.3921 28.4211H9.60789C9.77122 27.9591 10.0738 27.5592 10.474 27.2764C10.8741 26.9936 11.3521 26.8419 11.8421 26.8421H18.1579ZM7.10526 1.57895H22.8947V12.6316C22.8947 14.3066 22.2293 15.9131 21.0449 17.0975C19.8604 18.282 18.254 18.9474 16.5789 18.9474H13.4211C11.746 18.9474 10.1396 18.282 8.95512 17.0975C7.77067 15.9131 7.10526 14.3066 7.10526 12.6316V1.57895ZM1.57895 4.73684H5.52632V11.7711C4.42337 11.5846 3.42199 11.0139 2.69952 10.1599C1.97704 9.30595 1.58008 8.22385 1.57895 7.10526V4.73684Z" fill="#F582AE"/>
<path d="M17.2269 5.84412C16.2411 5.84412 15.4032 6.46557 15.0974 7.33121C14.7915 6.4656 13.9536 5.84412 12.9678 5.84412C11.7232 5.84412 10.7142 6.83464 10.7142 8.05656C10.7142 11.3322 15.0974 13.6363 15.0974 13.6363C15.0974 13.6363 19.4805 11.3321 19.4805 8.05656C19.4805 6.83464 18.4715 5.84412 17.2269 5.84412Z" fill="#F582AE"/>
</svg>
