<svg width="27" height="30" viewBox="0 0 27 30" fill="none" xmlns="http://www.w3.org/2000/svg">
<path d="M26.6668 14.826C26.6645 14.8026 26.659 14.7799 26.6544 14.7567C26.6501 14.7341 26.647 14.7116 26.6403 14.6895C26.6339 14.6679 26.6242 14.6472 26.6159 14.6263C26.6068 14.6034 26.5985 14.5804 26.587 14.5583C26.577 14.5397 26.5642 14.5223 26.5526 14.5043C26.5381 14.4817 26.5241 14.459 26.5069 14.4379C26.504 14.4343 26.5021 14.4302 26.499 14.4265C24.5989 12.187 18.0771 8.65635 13.6745 8.47842C13.5618 8.47283 13.4482 8.46973 13.334 8.46973C13.2198 8.46973 13.1062 8.47262 12.9934 8.47842C8.59089 8.65635 2.0693 12.1868 0.169165 14.4265C0.166062 14.43 0.164407 14.4341 0.161303 14.4379C0.144131 14.459 0.130269 14.4815 0.115579 14.5041C0.103993 14.5221 0.0909587 14.5395 0.0812345 14.5583C0.0696483 14.5802 0.0615794 14.6032 0.0524759 14.6259C0.0439932 14.647 0.0342689 14.6679 0.0278551 14.6897C0.0214413 14.7116 0.018131 14.7341 0.0137862 14.7567C0.00923448 14.7799 0.00364818 14.8028 0.00137232 14.8262C-0.000903543 14.8494 0.000338011 14.8726 0.000338011 14.8957C0.000338011 14.9187 -0.000903543 14.9415 0.00137232 14.9642C0.00364818 14.988 0.00944146 15.0114 0.0139932 15.035C0.018338 15.0569 0.0214415 15.079 0.0276484 15.1006C0.034269 15.1227 0.0442 15.144 0.0528897 15.1657C0.0617862 15.1881 0.0698551 15.2104 0.0810275 15.2317C0.0911655 15.251 0.104407 15.2688 0.116407 15.2872C0.130683 15.3093 0.144338 15.3315 0.161097 15.3521C0.1642 15.3559 0.165855 15.36 0.168959 15.3637C2.0691 17.603 8.59089 21.1337 12.9932 21.3116C13.106 21.3172 13.2196 21.3203 13.3338 21.3203C13.448 21.3203 13.5616 21.3174 13.6743 21.3116C18.0767 21.1337 24.5985 17.6032 26.4986 15.3637C26.5017 15.3602 26.5034 15.3561 26.5065 15.3523C26.5239 15.3312 26.5377 15.3085 26.5522 15.2859C26.5638 15.2679 26.5766 15.2508 26.5865 15.2319C26.5981 15.2098 26.6064 15.1868 26.6155 15.1639C26.624 15.1428 26.6337 15.1223 26.6399 15.1008C26.6465 15.0786 26.6497 15.0561 26.654 15.0335C26.6585 15.0103 26.6641 14.9876 26.6664 14.9642C26.6687 14.9412 26.6674 14.9183 26.6674 14.8951C26.6679 14.8719 26.6691 14.849 26.6668 14.826ZM3.09923 15.9697C2.5611 15.5992 2.09641 15.2357 1.72958 14.8951C2.09641 14.5546 2.5613 14.1908 3.09965 13.8201C4.4093 12.9184 6.14558 11.9793 7.92675 11.2479C7.80179 11.4244 7.6853 11.6071 7.57855 11.7956C7.0582 12.7152 6.76089 13.7717 6.76089 14.8951C6.76089 16.0183 7.0582 17.0748 7.57855 17.9944C7.6853 18.1831 7.80179 18.3656 7.92675 18.5421C6.14537 17.8107 4.40889 16.8716 3.09923 15.9697ZM13.3342 19.8718C10.5084 19.8718 8.20917 17.6394 8.20917 14.8951C8.20917 12.1508 10.5084 9.91821 13.3342 9.91821C16.16 9.91821 18.4592 12.1508 18.4592 14.8951C18.4592 17.6394 16.16 19.8718 13.3342 19.8718ZM23.5692 15.9697C22.2595 16.8716 20.523 17.8107 18.7414 18.5421C18.8664 18.3656 18.9829 18.1831 19.0896 17.9944C19.6102 17.0748 19.9073 16.0183 19.9073 14.8951C19.9073 13.7717 19.61 12.7152 19.0896 11.7956C18.9829 11.6069 18.8664 11.4244 18.7414 11.2479C20.5228 11.9793 22.2591 12.9184 23.5688 13.8203C24.1071 14.1908 24.5718 14.5546 24.9388 14.8951C24.572 15.2357 24.1073 15.5992 23.5692 15.9697Z" fill="#F582AE"/>
<path d="M13.3342 12.3719C11.9172 12.3719 10.7643 13.5039 10.7643 14.8951C10.7643 16.2862 11.9172 17.4179 13.3342 17.4179C14.7512 17.4179 15.9041 16.286 15.9041 14.8951C15.9041 13.5039 14.7512 12.3719 13.3342 12.3719Z" fill="#F582AE"/>
<path d="M21.1572 6.79908C21.3392 6.79908 21.5213 6.73101 21.662 6.59405L24.2101 4.11543C24.4969 3.83653 24.5031 3.37825 24.2242 3.09149C23.9449 2.80474 23.487 2.79832 23.2003 3.07743L20.6521 5.55605C20.3654 5.83494 20.3592 6.29322 20.6381 6.57998C20.7802 6.72584 20.9685 6.79908 21.1572 6.79908Z" fill="#F582AE"/>
<path d="M5.0062 6.59398C5.14689 6.73094 5.32917 6.79901 5.51103 6.79901C5.69972 6.79901 5.8882 6.72577 6.03013 6.5797C6.30903 6.29294 6.30261 5.83446 6.01606 5.55577L3.46792 3.07715C3.18117 2.79805 2.72268 2.80488 2.44399 3.09122C2.1651 3.37798 2.17151 3.83646 2.45806 4.11515L5.0062 6.59398Z" fill="#F582AE"/>
<path d="M13.2285 4.95352C13.6284 4.95352 13.9526 4.62931 13.9526 4.22938V0.724138C13.9526 0.324207 13.6284 0 13.2285 0C12.8285 0 12.5043 0.324207 12.5043 0.724138V4.22938C12.5043 4.62931 12.8287 4.95352 13.2285 4.95352Z" fill="#F582AE"/>
<path d="M5.0062 23.406L2.45806 25.8846C2.1713 26.1635 2.1651 26.6218 2.44399 26.9085C2.58592 27.0544 2.77441 27.1278 2.9631 27.1278C3.14496 27.1278 3.32723 27.0598 3.46792 26.9228L6.01606 24.4442C6.30282 24.1653 6.30903 23.707 6.03013 23.4203C5.75144 23.1337 5.29296 23.1269 5.0062 23.406Z" fill="#F582AE"/>
<path d="M21.6622 23.406C21.3754 23.1269 20.917 23.1337 20.6383 23.4201C20.3594 23.7068 20.3658 24.1653 20.6523 24.444L23.2005 26.9226C23.3414 27.0596 23.5234 27.1277 23.7053 27.1277C23.894 27.1277 24.0825 27.0544 24.2244 26.9084C24.5033 26.6216 24.4969 26.1631 24.2103 25.8844L21.6622 23.406Z" fill="#F582AE"/>
<path d="M13.4401 25.0465C13.0402 25.0465 12.716 25.3707 12.716 25.7706V29.2759C12.716 29.6758 13.0402 30 13.4401 30C13.8401 30 14.1643 29.6758 14.1643 29.2759V25.7706C14.1643 25.3707 13.8399 25.0465 13.4401 25.0465Z" fill="#F582AE"/>
</svg>