<svg width="23" height="30" viewBox="0 0 23 30" fill="none" xmlns="http://www.w3.org/2000/svg">
<path d="M0.777027 12.5649C0.777027 12.5162 0.777027 12.5162 0.777027 12.4675V4.91883C0.777027 3.16558 2.27928 1.75325 4.14414 1.75325C4.86937 1.75325 5.54279 1.94805 6.06081 2.33766C6.47523 1.02273 7.77027 0 9.27252 0C10.8266 0 12.1734 1.02273 12.536 2.38636C13.0541 2.04545 13.7275 1.85065 14.4527 1.85065C16.0068 1.85065 17.3536 2.87338 17.7162 4.23701C18.2342 3.8961 18.9077 3.7013 19.6329 3.7013C21.4977 3.7013 23 5.11364 23 6.86688V14.4156C23 14.513 23 14.6104 23 14.7078V15C23 21.3799 21.8604 24.1071 21.0315 26.1039C20.5653 27.2727 20.2027 28.1007 20.2027 29.2695C20.2027 29.6591 19.8401 30 19.4257 30C19.0113 30 18.6487 29.6591 18.6487 29.2695C18.6487 27.8084 19.0631 26.7857 19.5811 25.5682C20.2545 23.9123 21.1869 21.7208 21.3941 17.0942C20.8761 17.3864 20.3063 17.5325 19.6329 17.5325C18.0788 17.5325 16.732 16.5097 16.3694 15.1461C15.8514 15.487 15.1779 15.6818 14.4527 15.6818C13.1577 15.6818 12.018 15 11.5 13.9773C10.5676 14.4643 9.37613 14.7078 7.71847 14.7565V16.2175C11.3964 16.8019 12.8987 21.6234 12.9505 21.8182C13.0541 22.2078 12.8468 22.5974 12.4324 22.7435C12.018 22.8409 11.6036 22.6461 11.4482 22.2565C11.4482 22.2078 9.99775 17.6299 6.88964 17.6299C6.47523 17.6299 6.11261 17.289 6.11261 16.8993V14.026C6.11261 13.8312 6.21622 13.6364 6.31982 13.4903C6.47523 13.3442 6.68243 13.2468 6.88964 13.2955C9.11712 13.2955 10.464 13.0032 11.2928 12.2727C11.2928 12.224 11.3446 12.224 11.3446 12.224C11.9144 11.6883 12.2252 10.8604 12.277 9.74026H11.8108C11.8108 9.74026 11.8108 9.74026 11.759 9.74026C11.759 9.74026 11.759 9.74026 11.7072 9.74026H5.28378C4.71396 9.74026 4.19595 9.98377 3.88514 10.4708L3.83333 10.5195C3.21171 11.25 1.55405 13.3929 1.55405 14.9513C1.55405 21.039 2.64189 23.6201 3.41892 25.5195C3.93694 26.737 4.35135 27.7597 4.35135 29.2208C4.35135 29.6104 3.98874 29.9513 3.57433 29.9513C3.15991 29.9513 2.7973 29.6104 2.7973 29.2208C2.7973 28.0519 2.43469 27.224 1.96847 26.0552C1.13964 24.0584 0 21.3312 0 14.9513C0.0518018 14.2208 0.362613 13.3442 0.777027 12.5649ZM11.0338 3.21429C11.0338 2.28896 10.205 1.50974 9.22072 1.50974C8.23649 1.50974 7.40766 2.28896 7.40766 3.21429V4.96753V8.37662H11.0338V5.06493V3.21429ZM17.768 14.4156C17.768 15.3409 18.5968 16.1201 19.5811 16.1201C20.5135 16.1201 21.2905 15.4383 21.3423 14.5617V14.4156C21.3423 14.3669 21.3423 14.3182 21.3423 14.2695V6.86688C21.3423 5.94156 20.5135 5.16234 19.5293 5.16234C18.545 5.16234 17.7162 5.94156 17.7162 6.86688V12.5649V14.4156H17.768ZM14.4009 14.2695C15.3851 14.2695 16.214 13.4903 16.214 12.5649V6.86688V5.01623C16.214 4.09091 15.3851 3.31169 14.4009 3.31169C13.4167 3.31169 12.5878 4.09091 12.5878 5.01623V8.32792H13.1059C13.3131 8.32792 13.5203 8.42533 13.6757 8.52273C13.8311 8.66883 13.8829 8.86364 13.8829 9.05844C13.8829 10.8117 13.4685 12.1266 12.6914 13.0519C12.8987 13.7825 13.6239 14.2695 14.4009 14.2695ZM5.38739 8.37662H5.90541V4.96753C5.90541 4.04221 5.07658 3.26299 4.09234 3.26299C3.10811 3.26299 2.27928 4.04221 2.27928 4.96753V10.1786C2.48649 9.93506 2.59009 9.78896 2.69369 9.69156C3.31532 8.86364 4.29955 8.37662 5.38739 8.37662Z" fill="#F582AE"/>
</svg>
