<svg width="34" height="24" viewBox="0 0 34 24" fill="none" xmlns="http://www.w3.org/2000/svg">
<path d="M22.5993 0.434673C22.4941 0.305685 22.3638 0.200526 22.2167 0.125898C22.0696 0.0512711 21.9089 0.00881347 21.7449 0.00123231C21.5808 -0.00634885 21.4171 0.0211128 21.264 0.0818665C21.1109 0.14262 20.9718 0.235333 20.8557 0.354094C20.7396 0.472855 20.649 0.615059 20.5896 0.771639C20.5302 0.92822 20.5033 1.09574 20.5107 1.26352C20.5181 1.43131 20.5597 1.59567 20.6326 1.74613C20.7056 1.89659 20.8084 2.02986 20.9345 2.13742L29.4282 10.8351H1.3533C1.05023 10.8515 0.764874 10.9862 0.556032 11.2115C0.347189 11.4367 0.230774 11.7353 0.230774 12.0457C0.230774 12.3561 0.347189 12.6547 0.556032 12.88C0.764874 13.1052 1.05023 13.2399 1.3533 13.2564H29.4282L20.9212 21.9438C20.7071 22.1732 20.5876 22.4781 20.5876 22.7952C20.5876 23.1123 20.7071 23.4172 20.9212 23.6466C21.0304 23.7586 21.1601 23.8475 21.3029 23.9081C21.4458 23.9688 21.5989 24 21.7536 24C21.9082 24 22.0614 23.9688 22.2042 23.9081C22.3471 23.8475 22.4768 23.7586 22.586 23.6466L33.1074 12.8852C33.2194 12.7749 33.3085 12.6427 33.3693 12.4964C33.4302 12.3501 33.4615 12.1928 33.4615 12.0338C33.4615 11.8748 33.4302 11.7175 33.3693 11.5712C33.3085 11.4249 33.2194 11.2927 33.1074 11.1824L22.5993 0.434673Z" fill="#112378"/>
</svg>
